{"glyphs":{"0":{"ha":1083,"x_min":81,"x_max":1003,"o":"m 590 818 q 804 767 710 818 q 951 626 899 715 q 1003 426 1003 536 q 923 207 1003 308 q 723 46 843 106 q 492 -14 603 -14 q 280 38 374 -14 q 133 178 186 89 q 81 378 81 268 q 160 597 81 496 q 360 758 240 699 q 590 818 479 818 m 510 667 q 378 610 422 667 q 335 444 335 554 q 397 225 335 313 q 572 138 458 138 q 749 361 749 138 q 687 580 749 493 q 510 667 625 667 z "},"1":{"ha":704,"x_min":76,"x_max":628,"o":"m 582 -1 l 99 -1 l 99 76 l 233 182 l 233 671 l 76 714 l 122 804 l 604 804 l 604 726 l 469 621 l 469 133 l 628 89 l 582 -1 z "},"2":{"ha":907,"x_min":54,"x_max":843,"o":"m 843 -25 l 732 0 l 61 0 l 61 78 q 326 296 235 215 q 453 428 417 376 q 489 524 489 479 q 450 613 489 578 q 350 647 411 647 q 96 563 254 647 l 54 642 l 247 797 q 389 818 307 818 q 581 791 499 818 q 708 715 663 764 q 753 603 753 667 q 674 454 753 547 q 432 238 596 361 l 717 238 l 767 358 l 843 336 l 843 -25 z "},"3":{"ha":778,"x_min":28,"x_max":717,"o":"m 454 354 q 655 244 593 299 q 717 117 717 189 q 562 -147 717 -32 q 67 -367 407 -262 l 38 -265 q 298 -159 210 -204 q 422 -65 386 -114 q 458 51 458 -17 q 415 157 458 111 q 272 250 372 203 l 272 319 q 372 425 343 381 q 400 522 400 469 q 367 619 400 582 q 281 657 333 657 q 69 572 214 657 l 28 651 l 222 807 q 297 818 263 818 q 478 789 396 818 q 610 710 561 760 q 658 601 658 660 q 603 482 653 540 q 454 353 554 424 l 454 354 z "},"4":{"ha":1004,"x_min":42,"x_max":1004,"o":"m 792 68 l 792 -215 l 556 -297 l 556 68 l 42 68 l 42 146 l 556 763 l 792 844 l 792 201 l 1004 201 l 956 68 l 792 68 m 556 578 l 246 201 l 556 201 l 556 578 z "},"5":{"ha":869,"x_min":54,"x_max":751,"o":"m 221 494 q 547 361 432 422 q 707 239 663 300 q 751 100 751 178 q 656 -108 751 -19 q 419 -253 560 -196 q 85 -367 278 -311 l 54 -265 q 333 -160 240 -206 q 460 -72 426 -115 q 493 35 493 -28 q 463 123 493 85 q 345 204 432 161 q 88 306 258 247 l 189 804 l 596 804 l 646 925 l 722 903 l 722 542 l 611 567 l 235 567 l 221 494 z "},"6":{"ha":1061,"x_min":108,"x_max":981,"o":"m 861 1135 q 477 808 592 964 q 363 478 363 651 q 388 308 363 386 q 465 184 414 231 q 586 138 515 138 q 690 186 654 138 q 725 329 725 235 q 658 540 725 456 q 488 665 592 624 l 547 763 q 763 715 664 763 q 922 585 863 667 q 981 406 981 503 q 910 204 981 301 q 729 47 840 107 q 501 -14 618 -14 q 299 42 389 -14 q 159 199 210 99 q 108 425 108 299 q 169 697 108 567 q 385 960 231 826 q 811 1226 540 1094 l 861 1135 z "},"7":{"ha":914,"x_min":89,"x_max":874,"o":"m 874 717 l 292 -367 l 196 -324 l 676 567 l 215 567 l 165 450 l 89 472 l 89 829 l 200 804 l 874 804 l 874 717 z "},"8":{"ha":1064,"x_min":81,"x_max":983,"o":"m 686 682 q 842 583 782 626 q 942 481 901 539 q 983 353 983 424 q 914 192 983 278 q 744 46 844 106 q 564 -14 644 -14 q 314 30 424 -14 q 142 149 204 74 q 81 317 81 225 q 144 456 81 386 q 357 625 208 525 q 207 753 261 688 q 153 900 153 818 q 218 1043 153 967 q 377 1172 283 1119 q 549 1225 471 1225 q 732 1191 651 1225 q 857 1099 813 1157 q 901 974 901 1042 q 851 849 896 914 q 686 682 806 785 m 533 1096 q 441 1059 476 1096 q 406 967 406 1022 q 456 844 406 899 q 603 732 507 790 q 658 831 646 796 q 669 910 669 865 q 631 1042 669 989 q 533 1094 592 1094 l 533 1096 m 571 119 q 685 170 642 119 q 729 290 729 221 q 694 389 729 343 q 606 472 658 435 q 465 561 554 508 l 435 579 q 354 475 374 517 q 335 385 335 433 q 367 254 335 315 q 455 156 400 193 q 571 119 510 119 z "},"9":{"ha":1061,"x_min":81,"x_max":953,"o":"m 558 818 q 761 763 671 818 q 902 612 851 708 q 953 394 953 515 q 893 134 953 257 q 681 -115 833 11 q 258 -367 528 -240 l 208 -275 q 585 33 474 -112 q 697 342 697 178 q 672 502 697 428 q 597 622 647 576 q 475 667 547 667 q 335 474 335 667 q 401 264 335 347 q 568 139 467 181 l 508 42 q 295 90 393 42 q 139 219 197 138 q 81 397 81 300 q 150 599 81 501 q 331 758 219 697 q 558 818 443 818 z "}," ":{"ha":388,"x_min":0,"x_max":0,"o":""},"A":{"ha":1272,"x_min":-1,"x_max":1281,"o":"m 1235 0 l 718 0 l 718 78 l 869 168 l 785 375 l 356 375 l 279 189 l 492 90 l 447 0 l -1 0 l -1 78 l 149 190 l 504 1047 l 744 1118 l 1139 161 l 1281 90 l 1235 0 m 572 899 l 400 482 l 742 482 l 572 899 z "},"Á":{"ha":1272,"x_min":-1,"x_max":1281,"o":"m 1235 0 l 718 0 l 718 78 l 869 168 l 785 375 l 356 375 l 279 189 l 492 90 l 447 0 l -1 0 l -1 78 l 149 190 l 504 1047 l 744 1118 l 1139 161 l 1281 90 l 1235 0 m 572 899 l 400 482 l 742 482 l 572 899 m 951 1489 l 593 1274 l 513 1311 l 661 1583 l 917 1557 l 951 1489 z "},"Ă":{"ha":1272,"x_min":-1,"x_max":1281,"o":"m 1235 0 l 718 0 l 718 78 l 869 168 l 785 375 l 356 375 l 279 189 l 492 90 l 447 0 l -1 0 l -1 78 l 149 190 l 504 1047 l 744 1118 l 1139 161 l 1281 90 l 1235 0 m 572 899 l 400 482 l 742 482 l 572 899 m 971 1572 q 906 1422 960 1493 q 774 1308 851 1351 q 622 1265 697 1265 q 439 1305 526 1265 q 308 1415 351 1344 l 508 1574 q 668 1421 556 1421 q 733 1440 708 1421 q 765 1493 758 1460 l 971 1572 z "},"Â":{"ha":1272,"x_min":-1,"x_max":1281,"o":"m 1235 0 l 718 0 l 718 78 l 869 168 l 785 375 l 356 375 l 279 189 l 492 90 l 447 0 l -1 0 l -1 78 l 149 190 l 504 1047 l 744 1118 l 1139 161 l 1281 90 l 1235 0 m 572 899 l 400 482 l 742 482 l 572 899 m 950 1289 l 700 1263 l 586 1431 l 342 1265 l 288 1349 l 622 1575 l 985 1357 l 950 1289 z "},"Ä":{"ha":1272,"x_min":-1,"x_max":1281,"o":"m 369 1272 q 283 1308 318 1272 q 247 1397 247 1344 q 272 1469 247 1436 q 335 1523 297 1503 q 407 1543 372 1543 q 494 1506 460 1543 q 529 1415 529 1469 q 504 1344 529 1378 q 442 1292 479 1311 q 369 1272 404 1272 m 853 1272 q 766 1308 801 1272 q 731 1397 731 1344 q 756 1469 731 1436 q 818 1523 781 1503 q 890 1543 856 1543 q 978 1506 943 1543 q 1013 1415 1013 1469 q 988 1344 1013 1378 q 925 1292 963 1311 q 853 1272 888 1272 m 1235 0 l 718 0 l 718 78 l 869 168 l 785 375 l 356 375 l 279 189 l 492 90 l 447 0 l -1 0 l -1 78 l 149 190 l 504 1047 l 744 1118 l 1139 161 l 1281 90 l 1235 0 m 572 899 l 400 482 l 742 482 l 572 899 z "},"À":{"ha":1272,"x_min":-1,"x_max":1281,"o":"m 1235 0 l 718 0 l 718 78 l 869 168 l 785 375 l 356 375 l 279 189 l 492 90 l 447 0 l -1 0 l -1 78 l 149 190 l 504 1047 l 744 1118 l 1139 161 l 1281 90 l 1235 0 m 572 899 l 400 482 l 742 482 l 572 899 m 671 1274 l 311 1489 l 346 1557 l 601 1583 l 750 1311 l 671 1274 z "},"Ā":{"ha":1272,"x_min":-1,"x_max":1281,"o":"m 1235 0 l 718 0 l 718 78 l 869 168 l 785 375 l 356 375 l 279 189 l 492 90 l 447 0 l -1 0 l -1 78 l 149 190 l 504 1047 l 744 1118 l 1139 161 l 1281 90 l 1235 0 m 572 899 l 400 482 l 742 482 l 572 899 m 278 1465 l 983 1465 l 983 1361 l 278 1361 l 278 1465 z "},"Ą":{"ha":1272,"x_min":-1,"x_max":1281,"o":"m 1236 0 q 1164 -142 1164 -94 q 1180 -178 1164 -165 q 1231 -193 1196 -192 l 1231 -281 l 1122 -367 q 929 -206 929 -329 q 940 -147 929 -169 l 1125 0 l 718 0 l 718 78 l 869 168 l 785 375 l 356 375 l 279 189 l 492 90 l 447 0 l -1 0 l -1 78 l 149 190 l 504 1047 l 744 1118 l 1139 161 l 1281 90 l 1235 0 l 1236 0 m 572 899 l 400 482 l 742 482 l 572 899 z "},"Å":{"ha":1272,"x_min":-1,"x_max":1281,"o":"m 1235 0 l 718 0 l 718 78 l 869 168 l 785 375 l 356 375 l 279 189 l 492 90 l 447 0 l -1 0 l -1 78 l 149 190 l 504 1047 l 744 1118 l 1139 161 l 1281 90 l 1235 0 m 572 899 l 400 482 l 742 482 l 572 899 m 679 1579 q 813 1538 760 1579 q 867 1435 867 1496 q 822 1340 867 1385 q 711 1268 778 1294 q 581 1242 644 1242 q 447 1283 501 1242 q 393 1386 393 1325 q 438 1481 393 1436 q 549 1553 482 1526 q 679 1579 615 1579 m 599 1493 q 558 1481 572 1493 q 543 1444 543 1468 q 574 1362 543 1394 q 661 1329 606 1329 q 703 1342 689 1329 q 718 1378 718 1354 q 687 1460 718 1428 q 599 1493 656 1493 z "},"Ã":{"ha":1272,"x_min":-1,"x_max":1281,"o":"m 1235 0 l 718 0 l 718 78 l 869 168 l 785 375 l 356 375 l 279 189 l 492 90 l 447 0 l -1 0 l -1 78 l 149 190 l 504 1047 l 744 1118 l 1139 161 l 1281 90 l 1235 0 m 572 899 l 400 482 l 742 482 l 572 899 m 594 1597 q 697 1508 654 1536 q 776 1481 740 1481 q 840 1501 808 1481 l 911 1547 l 965 1464 l 663 1264 q 558 1354 600 1326 q 481 1382 515 1382 q 415 1358 450 1382 l 346 1314 l 292 1397 l 594 1597 z "},"Æ":{"ha":1554,"x_min":0,"x_max":1461,"o":"m 1361 1 l 533 1 l 533 79 l 664 182 l 664 506 l 442 506 l 283 182 l 443 92 l 397 1 l 0 1 l 0 79 l 147 190 l 519 950 l 346 1001 l 392 1092 l 1346 1092 l 1446 1117 l 1446 763 l 1369 732 l 1199 986 l 914 986 l 914 611 l 1029 611 l 1131 767 l 1208 767 l 1208 363 l 1118 317 l 1028 504 l 914 504 l 914 106 l 1188 106 l 1383 389 l 1460 357 l 1461 -24 l 1361 1 m 664 958 l 494 613 l 664 613 l 664 958 z "},"B":{"ha":1104,"x_min":43,"x_max":1065,"o":"m 850 594 q 1008 484 950 557 q 1065 321 1065 411 q 990 156 1065 233 q 801 33 914 79 q 586 -12 689 -12 q 450 -6 517 -12 q 278 1 339 1 l 67 1 l 67 79 l 197 182 l 197 963 l 43 1003 l 89 1093 l 276 1093 q 525 1101 403 1093 q 664 1107 619 1107 q 845 1071 767 1107 q 967 973 924 1035 q 1010 835 1010 911 q 966 704 1010 767 q 850 593 922 642 l 850 594 m 743 761 q 696 922 743 861 q 556 983 649 983 q 449 960 499 983 l 449 603 l 604 603 q 708 643 672 603 q 743 761 743 683 m 626 125 q 753 167 707 125 q 800 281 800 208 q 748 435 800 375 q 593 501 696 496 l 565 501 l 449 501 l 449 156 q 625 125 528 125 l 626 125 z "},"C":{"ha":1163,"x_min":81,"x_max":1104,"o":"m 713 1119 q 901 1099 793 1119 q 1058 1054 1008 1078 l 1058 758 l 926 758 q 632 960 819 960 q 492 911 556 960 q 391 778 428 863 q 354 588 354 693 q 391 369 354 468 q 503 210 428 269 q 689 151 578 151 q 1049 290 815 151 l 1104 201 l 849 3 q 731 -22 788 -15 q 611 -28 675 -28 q 335 43 456 -28 q 147 238 214 114 q 81 521 81 363 q 181 822 81 683 q 429 1040 281 960 q 713 1119 578 1119 z "},"Ć":{"ha":1163,"x_min":81,"x_max":1104,"o":"m 713 1119 q 901 1099 793 1119 q 1058 1054 1008 1078 l 1058 758 l 926 758 q 632 960 819 960 q 492 911 556 960 q 391 778 428 863 q 354 588 354 693 q 391 369 354 468 q 503 210 428 269 q 689 151 578 151 q 1049 290 815 151 l 1104 201 l 849 3 q 731 -22 788 -15 q 611 -28 675 -28 q 335 43 456 -28 q 147 238 214 114 q 81 521 81 363 q 181 822 81 683 q 429 1040 281 960 q 713 1119 578 1119 m 943 1489 l 585 1274 l 504 1311 l 653 1583 l 908 1557 l 943 1489 z "},"Č":{"ha":1163,"x_min":81,"x_max":1104,"o":"m 713 1119 q 901 1099 793 1119 q 1058 1054 1008 1078 l 1058 758 l 926 758 q 632 960 819 960 q 492 911 556 960 q 391 778 428 863 q 354 588 354 693 q 391 369 354 468 q 503 210 428 269 q 689 151 578 151 q 1049 290 815 151 l 1104 201 l 849 3 q 731 -22 788 -15 q 611 -28 675 -28 q 335 43 456 -28 q 147 238 214 114 q 81 521 81 363 q 181 822 81 683 q 429 1040 281 960 q 713 1119 578 1119 m 631 1271 l 268 1489 l 303 1557 l 553 1583 l 667 1415 l 911 1581 l 965 1497 l 631 1271 z "},"Ç":{"ha":1163,"x_min":81,"x_max":1104,"o":"m 849 0 q 731 -24 793 -17 q 668 -76 689 -60 q 767 -153 740 -119 q 793 -228 793 -186 q 719 -326 793 -292 q 492 -367 644 -360 l 492 -289 q 564 -251 542 -272 q 586 -199 586 -229 q 569 -149 586 -171 q 504 -96 551 -126 l 586 -26 q 322 51 438 -21 q 144 244 207 122 q 81 521 81 367 q 181 822 81 683 q 429 1040 281 960 q 713 1119 578 1119 q 901 1099 793 1119 q 1058 1054 1008 1078 l 1058 758 l 926 758 q 632 960 819 960 q 492 911 556 960 q 391 778 428 863 q 354 588 354 693 q 391 369 354 468 q 503 210 428 269 q 689 151 578 151 q 1049 290 815 151 l 1104 201 l 849 3 l 849 0 z "},"Ċ":{"ha":1163,"x_min":81,"x_max":1104,"o":"m 713 1119 q 901 1099 793 1119 q 1058 1054 1008 1078 l 1058 758 l 926 758 q 632 960 819 960 q 492 911 556 960 q 391 778 428 863 q 354 588 354 693 q 391 369 354 468 q 503 210 428 269 q 689 151 578 151 q 1049 290 815 151 l 1104 201 l 849 3 q 731 -22 788 -15 q 611 -28 675 -28 q 335 43 456 -28 q 147 238 214 114 q 81 521 81 363 q 181 822 81 683 q 429 1040 281 960 q 713 1119 578 1119 m 640 1538 q 738 1499 700 1538 q 776 1404 776 1461 q 749 1329 776 1364 q 679 1274 721 1294 q 599 1253 638 1253 q 502 1291 540 1253 q 464 1386 464 1329 q 492 1461 464 1426 q 560 1517 519 1496 q 640 1538 601 1538 z "},"D":{"ha":1278,"x_min":43,"x_max":1199,"o":"m 671 1106 q 947 1037 826 1106 q 1133 846 1067 968 q 1199 569 1199 724 q 1099 277 1199 411 q 853 65 1000 143 q 572 -14 706 -14 q 446 -7 508 -14 q 286 0 342 0 l 67 0 l 67 78 l 197 181 l 197 954 l 43 1001 l 89 1092 l 285 1092 q 535 1100 413 1092 q 671 1106 629 1106 m 613 115 q 772 165 700 115 q 884 304 843 215 q 925 504 925 393 q 885 745 925 638 q 765 917 846 853 q 564 982 683 982 q 449 949 501 982 l 449 142 q 611 115 519 115 l 613 115 z "},"Ð":{"ha":1278,"x_min":43,"x_max":1199,"o":"m 671 1106 q 947 1037 826 1106 q 1133 846 1067 968 q 1199 569 1199 724 q 1099 277 1199 411 q 853 65 1000 143 q 572 -14 706 -14 q 446 -7 508 -14 q 286 0 342 0 l 67 0 l 67 78 l 197 181 l 197 526 l 143 526 l 143 592 l 197 592 l 197 954 l 43 1001 l 89 1092 l 285 1092 q 535 1100 413 1092 q 671 1106 629 1106 m 613 115 q 772 165 700 115 q 884 304 843 215 q 925 504 925 393 q 885 745 925 638 q 765 917 846 853 q 564 982 683 982 q 449 949 501 982 l 449 592 l 585 592 l 585 526 l 449 526 l 449 142 q 611 115 519 115 l 613 115 z "},"Ď":{"ha":1278,"x_min":43,"x_max":1199,"o":"m 671 1106 q 947 1037 826 1106 q 1133 846 1067 968 q 1199 569 1199 724 q 1099 277 1199 411 q 853 65 1000 143 q 572 -14 706 -14 q 446 -7 508 -14 q 286 0 342 0 l 67 0 l 67 78 l 197 181 l 197 954 l 43 1001 l 89 1092 l 285 1092 q 535 1100 413 1092 q 671 1106 629 1106 m 613 115 q 772 165 700 115 q 884 304 843 215 q 925 504 925 393 q 885 745 925 638 q 765 917 846 853 q 564 982 683 982 q 449 949 501 982 l 449 142 q 611 115 519 115 l 613 115 m 589 1271 l 226 1489 l 261 1557 l 511 1583 l 625 1415 l 869 1581 l 924 1497 l 589 1271 z "},"Đ":{"ha":1278,"x_min":43,"x_max":1199,"o":"m 671 1106 q 947 1037 826 1106 q 1133 846 1067 968 q 1199 569 1199 724 q 1099 277 1199 411 q 853 65 1000 143 q 572 -14 706 -14 q 446 -7 508 -14 q 286 0 342 0 l 67 0 l 67 78 l 197 181 l 197 526 l 143 526 l 143 592 l 197 592 l 197 954 l 43 1001 l 89 1092 l 285 1092 q 535 1100 413 1092 q 671 1106 629 1106 m 613 115 q 772 165 700 115 q 884 304 843 215 q 925 504 925 393 q 885 745 925 638 q 765 917 846 853 q 564 982 683 982 q 449 949 501 982 l 449 592 l 585 592 l 585 526 l 449 526 l 449 142 q 611 115 519 115 l 613 115 z "},"E":{"ha":1139,"x_min":43,"x_max":1044,"o":"m 944 -1 l 67 -1 l 67 76 l 197 179 l 197 956 l 43 1001 l 89 1092 l 931 1092 l 1031 1117 l 1031 763 l 954 732 l 783 986 l 449 986 l 449 611 l 614 611 l 715 767 l 793 767 l 793 363 l 703 317 l 613 504 l 449 504 l 449 106 l 772 106 l 968 389 l 1044 357 l 1044 -26 l 944 -1 z "},"É":{"ha":1139,"x_min":43,"x_max":1044,"o":"m 944 -1 l 67 -1 l 67 76 l 197 179 l 197 956 l 43 1001 l 89 1092 l 931 1092 l 1031 1117 l 1031 763 l 954 732 l 783 986 l 449 986 l 449 611 l 614 611 l 715 767 l 793 767 l 793 363 l 703 317 l 613 504 l 449 504 l 449 106 l 772 106 l 968 389 l 1044 357 l 1044 -26 l 944 -1 m 904 1489 l 546 1274 l 465 1311 l 614 1583 l 869 1557 l 904 1489 z "},"Ě":{"ha":1139,"x_min":43,"x_max":1044,"o":"m 944 -1 l 67 -1 l 67 76 l 197 179 l 197 956 l 43 1001 l 89 1092 l 931 1092 l 1031 1117 l 1031 763 l 954 732 l 783 986 l 449 986 l 449 611 l 614 611 l 715 767 l 793 767 l 793 363 l 703 317 l 613 504 l 449 504 l 449 106 l 772 106 l 968 389 l 1044 357 l 1044 -26 l 944 -1 m 592 1271 l 229 1489 l 264 1557 l 514 1583 l 628 1415 l 872 1581 l 926 1497 l 592 1271 z "},"Ê":{"ha":1139,"x_min":43,"x_max":1044,"o":"m 944 -1 l 67 -1 l 67 76 l 197 179 l 197 956 l 43 1001 l 89 1092 l 931 1092 l 1031 1117 l 1031 763 l 954 732 l 783 986 l 449 986 l 449 611 l 614 611 l 715 767 l 793 767 l 793 363 l 703 317 l 613 504 l 449 504 l 449 106 l 772 106 l 968 389 l 1044 357 l 1044 -26 l 944 -1 m 903 1289 l 653 1263 l 539 1431 l 294 1265 l 240 1349 l 575 1575 l 938 1357 l 903 1289 z "},"Ë":{"ha":1139,"x_min":43,"x_max":1044,"o":"m 322 1272 q 235 1308 271 1272 q 200 1397 200 1344 q 225 1469 200 1436 q 288 1523 250 1503 q 360 1543 325 1543 q 447 1506 413 1543 q 482 1415 482 1469 q 457 1344 482 1378 q 394 1292 432 1311 q 322 1272 357 1272 m 806 1272 q 719 1308 754 1272 q 683 1397 683 1344 q 708 1469 683 1436 q 771 1523 733 1503 q 843 1543 808 1543 q 931 1506 896 1543 q 965 1415 965 1469 q 940 1344 965 1378 q 878 1292 915 1311 q 806 1272 840 1272 m 944 -1 l 67 -1 l 67 76 l 197 179 l 197 956 l 43 1001 l 89 1092 l 931 1092 l 1031 1117 l 1031 763 l 954 732 l 783 986 l 449 986 l 449 611 l 614 611 l 715 767 l 793 767 l 793 363 l 703 317 l 613 504 l 449 504 l 449 106 l 772 106 l 968 389 l 1044 357 l 1044 -26 l 944 -1 z "},"Ė":{"ha":1139,"x_min":43,"x_max":1044,"o":"m 944 -1 l 67 -1 l 67 76 l 197 179 l 197 956 l 43 1001 l 89 1092 l 931 1092 l 1031 1117 l 1031 763 l 954 732 l 783 986 l 449 986 l 449 611 l 614 611 l 715 767 l 793 767 l 793 363 l 703 317 l 613 504 l 449 504 l 449 106 l 772 106 l 968 389 l 1044 357 l 1044 -26 l 944 -1 m 601 1538 q 699 1499 661 1538 q 738 1404 738 1461 q 710 1329 738 1364 q 640 1274 682 1294 q 560 1253 599 1253 q 463 1291 501 1253 q 425 1386 425 1329 q 453 1461 425 1426 q 522 1517 481 1496 q 601 1538 563 1538 z "},"È":{"ha":1139,"x_min":43,"x_max":1044,"o":"m 944 -1 l 67 -1 l 67 76 l 197 179 l 197 956 l 43 1001 l 89 1092 l 931 1092 l 1031 1117 l 1031 763 l 954 732 l 783 986 l 449 986 l 449 611 l 614 611 l 715 767 l 793 767 l 793 363 l 703 317 l 613 504 l 449 504 l 449 106 l 772 106 l 968 389 l 1044 357 l 1044 -26 l 944 -1 m 624 1274 l 264 1489 l 299 1557 l 554 1583 l 703 1311 l 624 1274 z "},"Ē":{"ha":1139,"x_min":43,"x_max":1044,"o":"m 944 -1 l 67 -1 l 67 76 l 197 179 l 197 956 l 43 1001 l 89 1092 l 931 1092 l 1031 1117 l 1031 763 l 954 732 l 783 986 l 449 986 l 449 611 l 614 611 l 715 767 l 793 767 l 793 363 l 703 317 l 613 504 l 449 504 l 449 106 l 772 106 l 968 389 l 1044 357 l 1044 -26 l 944 -1 m 231 1465 l 936 1465 l 936 1361 l 231 1361 l 231 1465 z "},"Ę":{"ha":1139,"x_min":43,"x_max":1044,"o":"m 989 -12 q 926 -143 926 -97 q 942 -180 926 -167 q 993 -194 958 -193 l 993 -282 l 885 -368 q 692 -207 692 -331 q 703 -149 692 -171 l 888 -1 l 67 -1 l 67 76 l 197 179 l 197 956 l 43 1001 l 89 1092 l 931 1092 l 1031 1117 l 1031 763 l 954 732 l 783 986 l 449 986 l 449 611 l 614 611 l 715 767 l 793 767 l 793 363 l 703 317 l 613 504 l 449 504 l 449 106 l 772 106 l 968 389 l 1044 357 l 1044 -25 l 989 -12 z "},"F":{"ha":1083,"x_min":43,"x_max":1031,"o":"m 1031 761 l 954 731 l 778 985 l 449 985 l 449 610 l 614 610 l 715 765 l 793 765 l 793 358 l 703 314 l 613 503 l 449 503 l 449 142 l 690 89 l 644 -1 l 67 -1 l 67 76 l 197 179 l 197 956 l 43 1001 l 89 1092 l 931 1092 l 1031 1115 l 1031 761 z "},"G":{"ha":1307,"x_min":82,"x_max":1263,"o":"m 1132 243 l 1169 160 l 914 3 q 783 -22 846 -15 q 649 -28 721 -28 q 353 43 482 -28 q 153 238 224 114 q 82 521 82 363 q 188 822 82 683 q 451 1040 293 960 q 750 1119 608 1119 q 953 1099 836 1119 q 1124 1054 1069 1078 l 1124 724 l 993 724 q 669 960 871 960 q 510 911 582 960 q 397 778 439 863 q 356 588 356 693 q 397 360 356 464 q 521 195 438 257 q 726 133 604 133 q 778 133 732 133 q 879 142 824 133 l 879 419 l 656 474 l 701 564 l 1263 564 l 1263 486 l 1132 375 l 1132 243 z "},"Ğ":{"ha":1307,"x_min":82,"x_max":1263,"o":"m 1132 243 l 1169 160 l 914 3 q 783 -22 846 -15 q 649 -28 721 -28 q 353 43 482 -28 q 153 238 224 114 q 82 521 82 363 q 188 822 82 683 q 451 1040 293 960 q 750 1119 608 1119 q 953 1099 836 1119 q 1124 1054 1069 1078 l 1124 724 l 993 724 q 669 960 871 960 q 510 911 582 960 q 397 778 439 863 q 356 588 356 693 q 397 360 356 464 q 521 195 438 257 q 726 133 604 133 q 778 133 732 133 q 879 142 824 133 l 879 419 l 656 474 l 701 564 l 1263 564 l 1263 486 l 1132 375 l 1132 243 m 1019 1572 q 954 1422 1008 1493 q 823 1308 900 1351 q 671 1265 746 1265 q 488 1305 575 1265 q 357 1415 400 1344 l 557 1574 q 717 1421 604 1421 q 782 1440 757 1421 q 814 1493 807 1460 l 1019 1572 z "},"Ģ":{"ha":1307,"x_min":82,"x_max":1263,"o":"m 1132 243 l 1169 160 l 914 3 q 783 -22 846 -15 q 649 -28 721 -28 q 353 43 482 -28 q 153 238 224 114 q 82 521 82 363 q 188 822 82 683 q 451 1040 293 960 q 750 1119 608 1119 q 953 1099 836 1119 q 1124 1054 1069 1078 l 1124 724 l 993 724 q 669 960 871 960 q 510 911 582 960 q 397 778 439 863 q 356 588 356 693 q 397 360 356 464 q 521 195 438 257 q 726 133 604 133 q 778 133 732 133 q 879 142 824 133 l 879 419 l 656 474 l 701 564 l 1263 564 l 1263 486 l 1132 375 l 1132 243 m 883 -193 l 706 -422 l 590 -422 l 632 -275 l 510 -206 l 554 -115 l 883 -115 l 883 -193 z "},"Ġ":{"ha":1307,"x_min":82,"x_max":1263,"o":"m 1132 243 l 1169 160 l 914 3 q 783 -22 846 -15 q 649 -28 721 -28 q 353 43 482 -28 q 153 238 224 114 q 82 521 82 363 q 188 822 82 683 q 451 1040 293 960 q 750 1119 608 1119 q 953 1099 836 1119 q 1124 1054 1069 1078 l 1124 724 l 993 724 q 669 960 871 960 q 510 911 582 960 q 397 778 439 863 q 356 588 356 693 q 397 360 356 464 q 521 195 438 257 q 726 133 604 133 q 778 133 732 133 q 879 142 824 133 l 879 419 l 656 474 l 701 564 l 1263 564 l 1263 486 l 1132 375 l 1132 243 m 697 1538 q 795 1499 757 1538 q 833 1404 833 1461 q 806 1329 833 1364 q 736 1274 778 1294 q 656 1253 694 1253 q 559 1291 597 1253 q 521 1386 521 1329 q 549 1461 521 1426 q 617 1517 576 1496 q 697 1538 658 1538 z "},"H":{"ha":1368,"x_min":43,"x_max":1325,"o":"m 1281 1 l 789 1 l 789 79 l 919 189 l 919 492 l 449 492 l 449 136 l 603 92 l 558 1 l 67 1 l 67 79 l 197 189 l 197 958 l 43 1003 l 89 1093 l 581 1093 l 581 1015 l 449 904 l 449 599 l 919 599 l 919 958 l 765 1003 l 811 1093 l 1303 1093 l 1303 1015 l 1171 904 l 1171 135 l 1325 92 l 1281 1 z "},"Ħ":{"ha":1368,"x_min":0,"x_max":1368,"o":"m 1171 135 l 1325 90 l 1281 0 l 789 0 l 789 78 l 919 188 l 919 490 l 449 490 l 449 135 l 603 90 l 558 0 l 67 0 l 67 78 l 197 188 l 197 732 l 0 732 l 0 838 l 197 838 l 197 957 l 43 1001 l 89 1092 l 581 1092 l 581 1014 l 449 903 l 449 838 l 919 838 l 919 957 l 765 1001 l 811 1092 l 1303 1092 l 1303 1014 l 1171 903 l 1171 838 l 1368 838 l 1368 732 l 1171 732 l 1171 135 m 449 732 l 449 597 l 919 597 l 919 732 l 449 732 z "},"I":{"ha":646,"x_min":43,"x_max":603,"o":"m 558 1 l 67 1 l 67 79 l 197 189 l 197 958 l 43 1003 l 89 1093 l 581 1093 l 581 1015 l 449 904 l 449 135 l 603 92 l 558 1 z "},"Ĳ":{"ha":1253,"x_min":43,"x_max":1208,"o":"m 558 1 l 67 1 l 67 79 l 197 189 l 197 958 l 43 1003 l 89 1093 l 581 1093 l 581 1015 l 449 904 l 449 135 l 603 92 l 558 1 m 1076 138 q 1080 35 1076 82 q 1089 -28 1083 -11 l 775 -367 l 688 -299 q 797 -131 768 -200 q 825 42 825 -61 l 825 957 l 644 1001 l 689 1092 l 1208 1092 l 1208 1014 l 1076 911 l 1076 138 z "},"Í":{"ha":646,"x_min":43,"x_max":644,"o":"m 558 1 l 67 1 l 67 79 l 197 189 l 197 958 l 43 1003 l 89 1093 l 581 1093 l 581 1015 l 449 904 l 449 135 l 603 92 l 558 1 m 644 1489 l 286 1274 l 206 1311 l 354 1583 l 610 1557 l 644 1489 z "},"Î":{"ha":646,"x_min":-19,"x_max":678,"o":"m 558 1 l 67 1 l 67 79 l 197 189 l 197 958 l 43 1003 l 89 1093 l 581 1093 l 581 1015 l 449 904 l 449 135 l 603 92 l 558 1 m 643 1289 l 393 1263 l 279 1431 l 35 1265 l -19 1349 l 315 1575 l 678 1357 l 643 1289 z "},"Ï":{"ha":646,"x_min":-15,"x_max":667,"o":"m 558 1 l 67 1 l 67 79 l 197 189 l 197 958 l 43 1003 l 89 1093 l 581 1093 l 581 1015 l 449 904 l 449 135 l 603 92 l 558 1 m 138 1539 q 223 1503 190 1539 q 256 1415 256 1468 q 232 1346 256 1378 q 172 1295 208 1314 q 102 1276 136 1276 q 18 1311 51 1276 q -15 1399 -15 1346 q 9 1468 -15 1436 q 69 1520 33 1501 q 138 1539 104 1539 m 548 1539 q 633 1503 600 1539 q 666 1415 666 1468 q 642 1346 666 1378 q 582 1295 618 1314 q 512 1276 545 1276 q 428 1311 461 1276 q 395 1399 395 1346 q 419 1468 395 1436 q 478 1520 443 1501 q 548 1539 514 1539 z "},"İ":{"ha":646,"x_min":43,"x_max":603,"o":"m 558 1 l 67 1 l 67 79 l 197 189 l 197 958 l 43 1003 l 89 1093 l 581 1093 l 581 1015 l 449 904 l 449 135 l 603 92 l 558 1 m 342 1538 q 440 1499 401 1538 q 478 1404 478 1461 q 450 1329 478 1364 q 381 1274 422 1294 q 300 1253 339 1253 q 203 1291 242 1253 q 165 1386 165 1329 q 193 1461 165 1426 q 262 1517 221 1496 q 342 1538 303 1538 z "},"Ì":{"ha":646,"x_min":4,"x_max":603,"o":"m 558 1 l 67 1 l 67 79 l 197 189 l 197 958 l 43 1003 l 89 1093 l 581 1093 l 581 1015 l 449 904 l 449 135 l 603 92 l 558 1 m 364 1274 l 4 1489 l 39 1557 l 294 1583 l 443 1311 l 364 1274 z "},"Ī":{"ha":646,"x_min":-29,"x_max":676,"o":"m 558 1 l 67 1 l 67 79 l 197 189 l 197 958 l 43 1003 l 89 1093 l 581 1093 l 581 1015 l 449 904 l 449 135 l 603 92 l 558 1 m -29 1465 l 676 1465 l 676 1361 l -29 1361 l -29 1465 z "},"Į":{"ha":646,"x_min":43,"x_max":603,"o":"m 558 1 q 486 -140 486 -93 q 502 -177 486 -164 q 553 -192 518 -190 l 553 -279 l 444 -365 q 251 -204 251 -328 q 263 -146 251 -168 l 447 1 l 67 1 l 67 79 l 197 189 l 197 958 l 43 1003 l 89 1093 l 581 1093 l 581 1015 l 449 904 l 449 135 l 603 90 l 558 1 z "},"J":{"ha":607,"x_min":-1,"x_max":563,"o":"m 431 138 q 434 35 431 82 q 443 -28 438 -11 l 129 -367 l 42 -299 q 151 -131 122 -200 q 179 42 179 -61 l 179 957 l -1 1001 l 43 1092 l 563 1092 l 563 1014 l 431 911 l 431 138 z "},"K":{"ha":1256,"x_min":43,"x_max":1239,"o":"m 603 90 l 558 0 l 67 0 l 67 78 l 197 188 l 197 957 l 43 1001 l 89 1092 l 581 1092 l 581 1014 l 449 903 l 449 135 l 603 90 m 1193 0 l 899 0 l 503 547 l 904 900 l 742 1001 l 788 1092 l 1204 1092 l 1204 1014 l 751 615 l 1088 161 l 1239 90 l 1193 0 z "},"Ķ":{"ha":1256,"x_min":43,"x_max":1239,"o":"m 603 90 l 558 0 l 67 0 l 67 78 l 197 188 l 197 957 l 43 1001 l 89 1092 l 581 1092 l 581 1014 l 449 903 l 449 135 l 603 90 m 1193 0 l 899 0 l 503 547 l 904 900 l 742 1001 l 788 1092 l 1204 1092 l 1204 1014 l 751 615 l 1088 161 l 1239 90 l 1193 0 m 857 -193 l 679 -422 l 564 -422 l 606 -275 l 483 -206 l 528 -115 l 857 -115 l 857 -193 z "},"L":{"ha":1107,"x_min":43,"x_max":1053,"o":"m 953 0 l 67 0 l 67 78 l 197 181 l 197 961 l 43 1001 l 89 1092 l 581 1092 l 581 1014 l 449 911 l 449 106 l 761 106 l 976 417 l 1053 385 l 1053 -25 l 953 0 z "},"Ĺ":{"ha":1107,"x_min":43,"x_max":1053,"o":"m 953 0 l 67 0 l 67 78 l 197 181 l 197 961 l 43 1001 l 89 1092 l 581 1092 l 581 1014 l 449 911 l 449 106 l 761 106 l 976 417 l 1053 385 l 1053 -25 l 953 0 m 664 1489 l 306 1274 l 225 1311 l 374 1583 l 629 1557 l 664 1489 z "},"Ľ":{"ha":1107,"x_min":43,"x_max":1053,"o":"m 953 0 l 67 0 l 67 78 l 197 181 l 197 961 l 43 1001 l 89 1092 l 581 1092 l 581 1014 l 449 911 l 449 106 l 761 106 l 976 417 l 1053 385 l 1053 -25 l 953 0 m 965 853 l 808 672 l 719 740 q 760 882 754 813 l 686 936 l 686 1014 l 876 1092 l 965 1092 l 965 853 z "},"Ļ":{"ha":1107,"x_min":43,"x_max":1053,"o":"m 953 0 l 67 0 l 67 78 l 197 181 l 197 961 l 43 1001 l 89 1092 l 581 1092 l 581 1014 l 449 911 l 449 106 l 761 106 l 976 417 l 1053 385 l 1053 -25 l 953 0 m 761 -193 l 583 -422 l 468 -422 l 510 -275 l 388 -206 l 432 -115 l 761 -115 l 761 -193 z "},"Ŀ":{"ha":1107,"x_min":43,"x_max":1053,"o":"m 953 0 l 67 0 l 67 78 l 197 181 l 197 961 l 43 1001 l 89 1092 l 581 1092 l 581 1014 l 449 911 l 449 106 l 761 106 l 976 417 l 1053 385 l 1053 -25 l 953 0 m 869 857 q 967 818 929 857 q 1006 724 1006 779 q 978 648 1006 683 q 908 592 950 613 q 828 571 867 571 q 731 609 769 571 q 693 704 693 647 q 721 780 693 744 q 790 836 749 815 q 869 857 831 857 z "},"Ł":{"ha":1089,"x_min":0,"x_max":1053,"o":"m 953 -1 l 67 -1 l 67 76 l 197 179 l 197 374 l 0 218 l 0 297 l 197 453 l 197 960 l 43 1000 l 89 1090 l 581 1090 l 581 1013 l 449 910 l 449 590 l 772 846 l 772 767 l 449 511 l 449 106 l 761 106 l 976 417 l 1053 385 l 1053 -26 l 953 -1 z "},"M":{"ha":1582,"x_min":43,"x_max":1538,"o":"m 1493 -6 l 1001 -6 l 1001 72 l 1132 175 l 1132 842 l 788 -4 l 667 -4 l 317 849 l 317 149 l 471 88 l 426 -3 l 67 -3 l 67 75 l 197 178 l 197 935 l 43 1000 l 89 1090 l 479 1090 l 796 318 l 1110 1090 l 1515 1090 l 1515 1013 l 1383 910 l 1383 131 l 1538 85 l 1493 -6 z "},"N":{"ha":1249,"x_min":43,"x_max":1219,"o":"m 1088 903 l 1088 0 l 968 0 l 317 743 l 317 164 l 514 90 l 469 0 l 67 0 l 67 78 l 197 188 l 197 917 l 43 1001 l 89 1092 l 333 1092 l 968 369 l 968 929 l 771 1001 l 817 1092 l 1219 1092 l 1219 1014 l 1088 903 z "},"Ń":{"ha":1249,"x_min":43,"x_max":1219,"o":"m 1088 903 l 1088 0 l 968 0 l 317 743 l 317 164 l 514 90 l 469 0 l 67 0 l 67 78 l 197 188 l 197 917 l 43 1001 l 89 1092 l 333 1092 l 968 369 l 968 929 l 771 1001 l 817 1092 l 1219 1092 l 1219 1014 l 1088 903 m 950 1489 l 592 1274 l 511 1311 l 660 1583 l 915 1557 l 950 1489 z "},"Ň":{"ha":1249,"x_min":43,"x_max":1219,"o":"m 1088 903 l 1088 0 l 968 0 l 317 743 l 317 164 l 514 90 l 469 0 l 67 0 l 67 78 l 197 188 l 197 917 l 43 1001 l 89 1092 l 333 1092 l 968 369 l 968 929 l 771 1001 l 817 1092 l 1219 1092 l 1219 1014 l 1088 903 m 638 1271 l 275 1489 l 310 1557 l 560 1583 l 674 1415 l 918 1581 l 972 1497 l 638 1271 z "},"Ņ":{"ha":1249,"x_min":43,"x_max":1219,"o":"m 1088 903 l 1088 0 l 968 0 l 317 743 l 317 164 l 514 90 l 469 0 l 67 0 l 67 78 l 197 188 l 197 917 l 43 1001 l 89 1092 l 333 1092 l 968 369 l 968 929 l 771 1001 l 817 1092 l 1219 1092 l 1219 1014 l 1088 903 m 818 -193 l 640 -422 l 525 -422 l 567 -275 l 444 -206 l 489 -115 l 818 -115 l 818 -193 z "},"Ŋ":{"ha":1249,"x_min":43,"x_max":1219,"o":"m 1088 138 q 1091 35 1088 82 q 1100 -28 1094 -11 l 785 -367 l 697 -299 q 819 -142 778 -207 q 876 -25 861 -78 q 888 92 890 28 l 317 743 l 317 164 l 514 90 l 469 0 l 67 0 l 67 78 l 197 188 l 197 917 l 43 1001 l 89 1092 l 333 1092 l 968 369 l 968 929 l 771 1001 l 817 1092 l 1219 1092 l 1219 1014 l 1088 903 l 1088 138 z "},"Ñ":{"ha":1249,"x_min":43,"x_max":1219,"o":"m 1088 903 l 1088 0 l 968 0 l 317 743 l 317 164 l 514 90 l 469 0 l 67 0 l 67 78 l 197 188 l 197 917 l 43 1001 l 89 1092 l 333 1092 l 968 369 l 968 929 l 771 1001 l 817 1092 l 1219 1092 l 1219 1014 l 1088 903 m 593 1597 q 696 1508 653 1536 q 775 1481 739 1481 q 839 1501 807 1481 l 910 1547 l 964 1464 l 661 1264 q 556 1354 599 1326 q 479 1382 514 1382 q 414 1358 449 1382 l 344 1314 l 290 1397 l 593 1597 z "},"O":{"ha":1333,"x_min":81,"x_max":1254,"o":"m 717 1119 q 999 1049 876 1119 q 1188 853 1121 978 q 1254 569 1254 728 q 1153 269 1254 407 q 902 52 1051 132 q 618 -28 753 -28 q 337 42 458 -28 q 148 238 215 113 q 81 521 81 363 q 181 822 81 683 q 432 1040 282 960 q 717 1119 582 1119 m 636 960 q 494 911 558 960 q 392 778 429 863 q 354 588 354 693 q 392 359 354 463 q 508 194 431 256 q 699 132 585 132 q 840 181 775 132 q 942 314 904 229 q 979 504 979 399 q 942 733 979 631 q 827 898 904 836 q 636 960 750 960 z "},"Ó":{"ha":1333,"x_min":81,"x_max":1254,"o":"m 717 1119 q 999 1049 876 1119 q 1188 853 1121 978 q 1254 569 1254 728 q 1153 269 1254 407 q 902 52 1051 132 q 618 -28 753 -28 q 337 42 458 -28 q 148 238 215 113 q 81 521 81 363 q 181 822 81 683 q 432 1040 282 960 q 717 1119 582 1119 m 636 960 q 494 911 558 960 q 392 778 429 863 q 354 588 354 693 q 392 359 354 463 q 508 194 431 256 q 699 132 585 132 q 840 181 775 132 q 942 314 904 229 q 979 504 979 399 q 942 733 979 631 q 827 898 904 836 q 636 960 750 960 m 989 1489 l 631 1274 l 550 1311 l 699 1583 l 954 1557 l 989 1489 z "},"Ô":{"ha":1333,"x_min":81,"x_max":1254,"o":"m 717 1119 q 999 1049 876 1119 q 1188 853 1121 978 q 1254 569 1254 728 q 1153 269 1254 407 q 902 52 1051 132 q 618 -28 753 -28 q 337 42 458 -28 q 148 238 215 113 q 81 521 81 363 q 181 822 81 683 q 432 1040 282 960 q 717 1119 582 1119 m 636 960 q 494 911 558 960 q 392 778 429 863 q 354 588 354 693 q 392 359 354 463 q 508 194 431 256 q 699 132 585 132 q 840 181 775 132 q 942 314 904 229 q 979 504 979 399 q 942 733 979 631 q 827 898 904 836 q 636 960 750 960 m 988 1289 l 738 1263 l 624 1431 l 379 1265 l 325 1349 l 660 1575 l 1022 1357 l 988 1289 z "},"Ö":{"ha":1333,"x_min":81,"x_max":1254,"o":"m 444 1543 q 532 1506 497 1543 q 567 1415 567 1469 q 542 1344 567 1378 q 479 1292 517 1311 q 407 1272 442 1272 q 320 1308 356 1272 q 285 1397 285 1344 q 310 1469 285 1436 q 372 1523 335 1503 q 444 1543 410 1543 m 928 1543 q 1015 1506 981 1543 q 1050 1415 1050 1469 q 1025 1344 1050 1378 q 963 1292 1000 1311 q 890 1272 925 1272 q 803 1308 839 1272 q 768 1397 768 1344 q 793 1469 768 1436 q 856 1523 818 1503 q 928 1543 893 1543 m 717 1119 q 999 1049 876 1119 q 1188 853 1121 978 q 1254 569 1254 728 q 1153 269 1254 407 q 902 52 1051 132 q 618 -28 753 -28 q 337 42 458 -28 q 148 238 215 113 q 81 521 81 363 q 181 822 81 683 q 432 1040 282 960 q 717 1119 582 1119 m 636 960 q 494 911 558 960 q 392 778 429 863 q 354 588 354 693 q 392 359 354 463 q 508 194 431 256 q 699 132 585 132 q 840 181 775 132 q 942 314 904 229 q 979 504 979 399 q 942 733 979 631 q 827 898 904 836 q 636 960 750 960 z "},"Ò":{"ha":1333,"x_min":81,"x_max":1254,"o":"m 717 1119 q 999 1049 876 1119 q 1188 853 1121 978 q 1254 569 1254 728 q 1153 269 1254 407 q 902 52 1051 132 q 618 -28 753 -28 q 337 42 458 -28 q 148 238 215 113 q 81 521 81 363 q 181 822 81 683 q 432 1040 282 960 q 717 1119 582 1119 m 636 960 q 494 911 558 960 q 392 778 429 863 q 354 588 354 693 q 392 359 354 463 q 508 194 431 256 q 699 132 585 132 q 840 181 775 132 q 942 314 904 229 q 979 504 979 399 q 942 733 979 631 q 827 898 904 836 q 636 960 750 960 m 708 1274 l 349 1489 l 383 1557 l 639 1583 l 788 1311 l 708 1274 z "},"Ő":{"ha":1333,"x_min":81,"x_max":1254,"o":"m 717 1119 q 999 1049 876 1119 q 1188 853 1121 978 q 1254 569 1254 728 q 1153 269 1254 407 q 902 52 1051 132 q 618 -28 753 -28 q 337 42 458 -28 q 148 238 215 113 q 81 521 81 363 q 181 822 81 683 q 432 1040 282 960 q 717 1119 582 1119 m 636 960 q 494 911 558 960 q 392 778 429 863 q 354 588 354 693 q 392 359 354 463 q 508 194 431 256 q 699 132 585 132 q 840 181 775 132 q 942 314 904 229 q 979 504 979 399 q 942 733 979 631 q 827 898 904 836 q 636 960 750 960 m 611 1399 l 407 1285 l 386 1414 l 511 1574 l 681 1544 l 611 1399 m 1068 1399 l 864 1285 l 843 1414 l 967 1574 l 1138 1544 l 1068 1399 z "},"Ō":{"ha":1333,"x_min":81,"x_max":1254,"o":"m 717 1119 q 999 1049 876 1119 q 1188 853 1121 978 q 1254 569 1254 728 q 1153 269 1254 407 q 902 52 1051 132 q 618 -28 753 -28 q 337 42 458 -28 q 148 238 215 113 q 81 521 81 363 q 181 822 81 683 q 432 1040 282 960 q 717 1119 582 1119 m 636 960 q 494 911 558 960 q 392 778 429 863 q 354 588 354 693 q 392 359 354 463 q 508 194 431 256 q 699 132 585 132 q 840 181 775 132 q 942 314 904 229 q 979 504 979 399 q 942 733 979 631 q 827 898 904 836 q 636 960 750 960 m 315 1465 l 1021 1465 l 1021 1361 l 315 1361 l 315 1465 z "},"Ø":{"ha":1333,"x_min":79,"x_max":1253,"o":"m 1008 1043 q 1189 850 1125 974 q 1253 571 1253 726 q 1151 271 1253 408 q 901 53 1050 133 q 617 -26 751 -26 q 411 8 507 -26 l 282 -215 l 199 -168 l 325 50 q 144 244 208 121 q 79 522 79 367 q 180 823 79 685 q 431 1041 281 961 q 715 1121 581 1121 q 922 1085 826 1121 l 1051 1307 l 1135 1260 l 1010 1042 l 1008 1043 m 354 590 q 377 408 354 493 q 446 260 400 322 l 818 906 q 635 960 742 960 q 492 912 557 960 q 390 779 428 864 q 353 589 353 694 l 354 590 m 699 136 q 840 185 776 136 q 942 318 904 233 q 979 508 979 403 q 956 690 979 606 q 889 836 933 775 l 517 190 q 699 135 594 135 l 699 136 z "},"Õ":{"ha":1333,"x_min":81,"x_max":1254,"o":"m 717 1119 q 999 1049 876 1119 q 1188 853 1121 978 q 1254 569 1254 728 q 1153 269 1254 407 q 902 52 1051 132 q 618 -28 753 -28 q 337 42 458 -28 q 148 238 215 113 q 81 521 81 363 q 181 822 81 683 q 432 1040 282 960 q 717 1119 582 1119 m 636 960 q 494 911 558 960 q 392 778 429 863 q 354 588 354 693 q 392 359 354 463 q 508 194 431 256 q 699 132 585 132 q 840 181 775 132 q 942 314 904 229 q 979 504 979 399 q 942 733 979 631 q 827 898 904 836 q 636 960 750 960 m 632 1597 q 735 1508 692 1536 q 814 1481 778 1481 q 878 1501 846 1481 l 949 1547 l 1003 1464 l 700 1264 q 595 1354 638 1326 q 518 1382 553 1382 q 453 1358 488 1382 l 383 1314 l 329 1397 l 632 1597 z "},"Œ":{"ha":1722,"x_min":81,"x_max":1626,"o":"m 1526 0 l 983 0 q 732 -8 854 0 q 597 -14 640 -14 q 327 55 444 -14 q 145 246 210 124 q 81 522 81 368 q 178 815 81 681 q 420 1027 275 949 q 696 1106 565 1106 q 822 1099 760 1106 q 982 1092 926 1092 l 1513 1092 l 1613 1117 l 1613 763 l 1536 732 l 1365 986 l 1071 986 l 1071 611 l 1200 611 l 1307 767 l 1385 767 l 1385 363 l 1294 317 l 1197 504 l 1071 504 l 1071 106 l 1354 106 l 1550 389 l 1626 357 l 1626 -25 l 1526 0 m 353 586 q 391 346 353 454 q 508 173 429 238 q 704 108 588 108 q 819 143 765 108 l 819 950 q 657 976 749 976 q 504 926 574 976 q 394 787 435 875 q 354 588 354 699 l 353 586 z "},"P":{"ha":1100,"x_min":43,"x_max":1060,"o":"m 625 543 q 742 594 699 543 q 785 736 785 646 q 732 915 785 846 q 576 983 679 983 q 449 942 508 983 l 449 143 l 690 90 l 644 0 l 67 0 l 67 78 l 197 181 l 197 954 l 43 1001 l 89 1092 l 319 1092 q 563 1100 443 1092 q 693 1106 651 1106 q 885 1063 801 1106 q 1014 947 968 1021 q 1060 783 1060 874 q 983 596 1060 683 q 790 458 907 508 q 563 414 674 408 l 501 451 l 547 542 l 625 542 l 625 543 z "},"Þ":{"ha":1082,"x_min":42,"x_max":1042,"o":"m 624 381 q 728 418 690 381 q 767 522 767 456 q 717 664 767 608 q 575 719 668 719 q 447 678 507 719 l 447 135 l 601 90 l 557 0 l 65 0 l 65 78 l 196 188 l 196 957 l 42 1001 l 88 1092 l 579 1092 l 579 1014 l 447 903 l 447 831 q 561 838 496 832 q 693 843 650 843 q 875 807 796 843 q 998 708 954 771 q 1042 571 1042 646 q 968 410 1042 486 q 782 290 894 333 q 563 251 669 246 l 501 290 l 547 381 l 624 381 z "},"Q":{"ha":1333,"x_min":81,"x_max":1488,"o":"m 1488 -264 q 1128 -367 1225 -367 q 981 -265 1081 -367 q 751 -8 882 -162 q 618 -28 681 -28 q 337 42 458 -28 q 148 238 215 113 q 81 521 81 363 q 181 822 81 683 q 432 1040 282 960 q 717 1119 582 1119 q 999 1049 876 1119 q 1188 853 1121 978 q 1254 569 1254 728 q 1156 272 1254 408 q 907 54 1057 136 q 1131 -100 1028 -33 q 1254 -167 1233 -167 l 1442 -167 l 1488 -264 m 354 588 q 392 359 354 463 q 508 194 431 256 q 699 132 585 132 q 840 181 775 132 q 942 314 904 229 q 979 504 979 399 q 942 733 979 631 q 827 898 904 836 q 636 960 750 960 q 494 911 558 960 q 392 778 429 863 q 354 588 354 693 z "},"R":{"ha":1176,"x_min":44,"x_max":1186,"o":"m 1142 0 l 840 0 l 572 481 l 511 518 l 546 586 l 610 586 q 728 632 685 586 q 771 761 771 678 q 719 920 771 858 q 567 982 667 982 q 450 943 504 982 l 450 133 l 604 89 l 560 -1 l 68 -1 l 68 76 l 199 186 l 199 957 l 44 1000 l 90 1090 l 321 1090 q 558 1099 442 1090 q 683 1104 642 1104 q 873 1066 790 1104 q 1001 963 956 1028 q 1046 817 1046 897 q 960 636 1046 719 q 750 511 874 553 l 861 479 l 1042 157 l 1186 90 l 1142 0 z "},"Ŕ":{"ha":1176,"x_min":44,"x_max":1186,"o":"m 1142 0 l 840 0 l 572 481 l 511 518 l 546 586 l 610 586 q 728 632 685 586 q 771 761 771 678 q 719 920 771 858 q 567 982 667 982 q 450 943 504 982 l 450 133 l 604 89 l 560 -1 l 68 -1 l 68 76 l 199 186 l 199 957 l 44 1000 l 90 1090 l 321 1090 q 558 1099 442 1090 q 683 1104 642 1104 q 873 1066 790 1104 q 1001 963 956 1028 q 1046 817 1046 897 q 960 636 1046 719 q 750 511 874 553 l 861 479 l 1042 157 l 1186 90 l 1142 0 m 883 1489 l 525 1274 l 444 1311 l 593 1583 l 849 1557 l 883 1489 z "},"Ř":{"ha":1176,"x_min":44,"x_max":1186,"o":"m 1142 0 l 840 0 l 572 481 l 511 518 l 546 586 l 610 586 q 728 632 685 586 q 771 761 771 678 q 719 920 771 858 q 567 982 667 982 q 450 943 504 982 l 450 133 l 604 89 l 560 -1 l 68 -1 l 68 76 l 199 186 l 199 957 l 44 1000 l 90 1090 l 321 1090 q 558 1099 442 1090 q 683 1104 642 1104 q 873 1066 790 1104 q 1001 963 956 1028 q 1046 817 1046 897 q 960 636 1046 719 q 750 511 874 553 l 861 479 l 1042 157 l 1186 90 l 1142 0 m 571 1271 l 208 1489 l 243 1557 l 493 1583 l 607 1415 l 851 1581 l 906 1497 l 571 1271 z "},"Ŗ":{"ha":1176,"x_min":44,"x_max":1186,"o":"m 1142 0 l 840 0 l 572 481 l 511 518 l 546 586 l 610 586 q 728 632 685 586 q 771 761 771 678 q 719 920 771 858 q 567 982 667 982 q 450 943 504 982 l 450 133 l 604 89 l 560 -1 l 68 -1 l 68 76 l 199 186 l 199 957 l 44 1000 l 90 1090 l 321 1090 q 558 1099 442 1090 q 683 1104 642 1104 q 873 1066 790 1104 q 1001 963 956 1028 q 1046 817 1046 897 q 960 636 1046 719 q 750 511 874 553 l 861 479 l 1042 157 l 1186 90 l 1142 0 m 828 -193 l 650 -422 l 535 -422 l 576 -275 l 454 -206 l 499 -115 l 828 -115 l 828 -193 z "},"S":{"ha":972,"x_min":69,"x_max":910,"o":"m 646 229 q 613 308 646 271 q 531 378 581 346 q 397 456 481 410 q 230 556 294 513 q 121 656 165 599 q 76 781 76 713 q 140 930 76 850 q 297 1065 204 1010 q 467 1119 389 1119 q 685 1099 560 1119 q 868 1054 810 1078 l 868 750 l 738 750 q 609 925 679 863 q 461 988 539 988 q 374 952 406 988 q 342 863 342 917 q 376 778 342 818 q 460 706 410 739 q 597 626 511 674 q 761 529 699 571 q 867 432 824 488 q 910 310 910 376 q 842 160 910 240 q 676 26 774 81 q 497 -29 578 -29 q 265 -8 400 -29 q 69 36 129 13 l 69 340 l 200 340 q 342 165 261 228 q 504 103 422 103 q 607 140 568 103 q 646 229 646 176 z "},"Ś":{"ha":972,"x_min":69,"x_max":910,"o":"m 646 229 q 613 308 646 271 q 531 378 581 346 q 397 456 481 410 q 230 556 294 513 q 121 656 165 599 q 76 781 76 713 q 140 930 76 850 q 297 1065 204 1010 q 467 1119 389 1119 q 685 1099 560 1119 q 868 1054 810 1078 l 868 750 l 738 750 q 609 925 679 863 q 461 988 539 988 q 374 952 406 988 q 342 863 342 917 q 376 778 342 818 q 460 706 410 739 q 597 626 511 674 q 761 529 699 571 q 867 432 824 488 q 910 310 910 376 q 842 160 910 240 q 676 26 774 81 q 497 -29 578 -29 q 265 -8 400 -29 q 69 36 129 13 l 69 340 l 200 340 q 342 165 261 228 q 504 103 422 103 q 607 140 568 103 q 646 229 646 176 m 793 1489 l 435 1274 l 354 1311 l 503 1583 l 758 1557 l 793 1489 z "},"Š":{"ha":972,"x_min":69,"x_max":910,"o":"m 646 229 q 613 308 646 271 q 531 378 581 346 q 397 456 481 410 q 230 556 294 513 q 121 656 165 599 q 76 781 76 713 q 140 930 76 850 q 297 1065 204 1010 q 467 1119 389 1119 q 685 1099 560 1119 q 868 1054 810 1078 l 868 750 l 738 750 q 609 925 679 863 q 461 988 539 988 q 374 952 406 988 q 342 863 342 917 q 376 778 342 818 q 460 706 410 739 q 597 626 511 674 q 761 529 699 571 q 867 432 824 488 q 910 310 910 376 q 842 160 910 240 q 676 26 774 81 q 497 -29 578 -29 q 265 -8 400 -29 q 69 36 129 13 l 69 340 l 200 340 q 342 165 261 228 q 504 103 422 103 q 607 140 568 103 q 646 229 646 176 m 481 1271 l 118 1489 l 153 1557 l 403 1583 l 517 1415 l 761 1581 l 815 1497 l 481 1271 z "},"Ş":{"ha":972,"x_min":69,"x_max":910,"o":"m 908 310 q 867 197 908 257 q 760 84 826 136 q 624 1 694 32 q 536 -75 588 -32 q 635 -151 608 -118 q 661 -226 661 -185 q 587 -324 661 -290 q 360 -365 513 -358 l 360 -287 q 432 -249 410 -271 q 454 -197 454 -228 q 437 -147 454 -169 q 372 -94 419 -125 q 454 -28 422 -56 q 238 -4 354 -24 q 69 36 122 15 l 69 340 l 200 340 q 342 165 261 228 q 504 103 422 103 q 607 140 568 103 q 646 229 646 176 q 613 308 646 271 q 531 378 581 346 q 397 456 481 410 q 230 556 294 513 q 121 656 165 599 q 76 781 76 713 q 140 930 76 850 q 297 1065 204 1010 q 467 1119 389 1119 q 685 1099 560 1119 q 868 1054 810 1078 l 868 750 l 738 750 q 609 925 679 863 q 461 988 539 988 q 374 952 406 988 q 342 863 342 917 q 376 778 342 818 q 460 706 410 739 q 597 626 511 674 q 761 529 699 571 q 867 432 824 488 q 910 310 910 376 l 908 310 z "},"Ș":{"ha":972,"x_min":69,"x_max":910,"o":"m 646 229 q 613 308 646 271 q 531 378 581 346 q 397 456 481 410 q 230 556 294 513 q 121 656 165 599 q 76 781 76 713 q 140 930 76 850 q 297 1065 204 1010 q 467 1119 389 1119 q 685 1099 560 1119 q 868 1054 810 1078 l 868 750 l 738 750 q 609 925 679 863 q 461 988 539 988 q 374 952 406 988 q 342 863 342 917 q 376 778 342 818 q 460 706 410 739 q 597 626 511 674 q 761 529 699 571 q 867 432 824 488 q 910 310 910 376 q 842 160 910 240 q 676 26 774 81 q 497 -29 578 -29 q 265 -8 400 -29 q 69 36 129 13 l 69 340 l 200 340 q 342 165 261 228 q 504 103 422 103 q 607 140 568 103 q 646 229 646 176 m 675 -193 l 497 -422 l 382 -422 l 424 -275 l 301 -206 l 346 -115 l 675 -115 l 675 -193 z "},"ẞ":{"ha":1290,"x_min":43,"x_max":1225,"o":"m 875 697 l 1225 697 l 1225 610 l 831 236 l 1079 236 l 1135 358 l 1211 336 l 1211 -25 l 1100 0 l 524 0 l 524 88 l 921 461 l 549 461 l 549 549 l 913 879 q 803 917 860 894 q 663 962 717 947 q 547 976 608 976 q 458 942 490 976 q 426 851 426 907 l 426 0 l 43 0 l 43 78 l 174 188 l 174 781 q 238 930 174 850 q 394 1065 301 1010 q 564 1119 486 1119 q 808 1108 639 1119 q 1225 1092 1031 1092 l 1225 1008 l 875 697 z "},"T":{"ha":1174,"x_min":63,"x_max":1111,"o":"m 1111 735 l 1035 704 l 839 986 l 710 986 l 710 131 l 865 90 l 819 0 l 328 0 l 328 78 l 458 181 l 458 986 l 335 986 l 139 704 l 63 735 l 63 1117 l 163 1092 l 1011 1092 l 1111 1117 l 1111 735 z "},"Ŧ":{"ha":1174,"x_min":63,"x_max":1111,"o":"m 1111 735 l 1035 704 l 839 986 l 710 986 l 710 597 l 976 597 l 976 490 l 710 490 l 710 131 l 865 90 l 819 0 l 328 0 l 328 78 l 458 181 l 458 490 l 196 490 l 196 597 l 458 597 l 458 986 l 335 986 l 139 704 l 63 735 l 63 1117 l 163 1092 l 1011 1092 l 1111 1117 l 1111 735 z "},"Ť":{"ha":1174,"x_min":63,"x_max":1111,"o":"m 1111 735 l 1035 704 l 839 986 l 710 986 l 710 131 l 865 90 l 819 0 l 328 0 l 328 78 l 458 181 l 458 986 l 335 986 l 139 704 l 63 735 l 63 1117 l 163 1092 l 1011 1092 l 1111 1117 l 1111 735 m 594 1271 l 232 1489 l 267 1557 l 517 1583 l 631 1415 l 875 1581 l 929 1497 l 594 1271 z "},"Ţ":{"ha":1174,"x_min":63,"x_max":1110,"o":"m 1110 735 l 1033 704 l 838 986 l 708 986 l 708 131 l 711 129 l 724 142 l 769 114 l 864 89 l 818 -1 l 711 -1 q 625 -76 678 -31 q 724 -153 697 -119 q 750 -228 750 -186 q 676 -326 750 -292 q 449 -367 601 -360 l 449 -289 q 521 -251 499 -272 q 543 -199 543 -229 q 526 -149 543 -171 q 461 -96 508 -126 l 575 0 l 328 0 l 328 78 l 458 181 l 458 986 l 335 986 l 139 704 l 63 735 l 63 1117 l 163 1092 l 1011 1092 l 1110 1117 l 1110 735 z "},"Ț":{"ha":1174,"x_min":63,"x_max":1111,"o":"m 1111 735 l 1035 704 l 839 986 l 710 986 l 710 131 l 865 90 l 819 0 l 328 0 l 328 78 l 458 181 l 458 986 l 335 986 l 139 704 l 63 735 l 63 1117 l 163 1092 l 1011 1092 l 1111 1117 l 1111 735 m 763 -193 l 585 -422 l 469 -422 l 511 -275 l 389 -206 l 433 -115 l 763 -115 l 763 -193 z "},"U":{"ha":1247,"x_min":13,"x_max":1224,"o":"m 1092 911 l 1092 431 q 1019 181 1092 285 q 838 24 946 76 q 629 -28 731 -28 q 390 27 496 -28 q 224 178 283 82 q 165 396 165 275 l 165 961 l 13 1001 l 57 1092 l 549 1092 l 549 1014 l 417 911 l 417 446 q 493 215 417 297 q 724 132 569 132 q 839 167 782 132 q 933 271 896 203 q 971 432 971 339 l 971 939 l 810 1001 l 854 1092 l 1224 1092 l 1224 1014 l 1092 911 z "},"Ú":{"ha":1247,"x_min":13,"x_max":1224,"o":"m 1092 911 l 1092 431 q 1019 181 1092 285 q 838 24 946 76 q 629 -28 731 -28 q 390 27 496 -28 q 224 178 283 82 q 165 396 165 275 l 165 961 l 13 1001 l 57 1092 l 549 1092 l 549 1014 l 417 911 l 417 446 q 493 215 417 297 q 724 132 569 132 q 839 167 782 132 q 933 271 896 203 q 971 432 971 339 l 971 939 l 810 1001 l 854 1092 l 1224 1092 l 1224 1014 l 1092 911 m 963 1489 l 604 1274 l 524 1311 l 672 1583 l 928 1557 l 963 1489 z "},"Û":{"ha":1247,"x_min":13,"x_max":1224,"o":"m 1092 911 l 1092 431 q 1019 181 1092 285 q 838 24 946 76 q 629 -28 731 -28 q 390 27 496 -28 q 224 178 283 82 q 165 396 165 275 l 165 961 l 13 1001 l 57 1092 l 549 1092 l 549 1014 l 417 911 l 417 446 q 493 215 417 297 q 724 132 569 132 q 839 167 782 132 q 933 271 896 203 q 971 432 971 339 l 971 939 l 810 1001 l 854 1092 l 1224 1092 l 1224 1014 l 1092 911 m 961 1289 l 711 1263 l 597 1431 l 353 1265 l 299 1349 l 633 1575 l 996 1357 l 961 1289 z "},"Ü":{"ha":1247,"x_min":13,"x_max":1224,"o":"m 381 1272 q 294 1308 329 1272 q 258 1397 258 1344 q 283 1469 258 1436 q 346 1523 308 1503 q 418 1543 383 1543 q 506 1506 471 1543 q 540 1415 540 1469 q 515 1344 540 1378 q 453 1292 490 1311 q 381 1272 415 1272 m 864 1272 q 777 1308 813 1272 q 742 1397 742 1344 q 767 1469 742 1436 q 829 1523 792 1503 q 901 1543 867 1543 q 989 1506 954 1543 q 1024 1415 1024 1469 q 999 1344 1024 1378 q 936 1292 974 1311 q 864 1272 899 1272 m 1092 911 l 1092 431 q 1019 181 1092 285 q 838 24 946 76 q 629 -28 731 -28 q 390 27 496 -28 q 224 178 283 82 q 165 396 165 275 l 165 961 l 13 1001 l 57 1092 l 549 1092 l 549 1014 l 417 911 l 417 446 q 493 215 417 297 q 724 132 569 132 q 839 167 782 132 q 933 271 896 203 q 971 432 971 339 l 971 939 l 810 1001 l 854 1092 l 1224 1092 l 1224 1014 l 1092 911 z "},"Ù":{"ha":1247,"x_min":13,"x_max":1224,"o":"m 1092 911 l 1092 431 q 1019 181 1092 285 q 838 24 946 76 q 629 -28 731 -28 q 390 27 496 -28 q 224 178 283 82 q 165 396 165 275 l 165 961 l 13 1001 l 57 1092 l 549 1092 l 549 1014 l 417 911 l 417 446 q 493 215 417 297 q 724 132 569 132 q 839 167 782 132 q 933 271 896 203 q 971 432 971 339 l 971 939 l 810 1001 l 854 1092 l 1224 1092 l 1224 1014 l 1092 911 m 682 1274 l 322 1489 l 357 1557 l 613 1583 l 761 1311 l 682 1274 z "},"Ű":{"ha":1247,"x_min":13,"x_max":1224,"o":"m 1092 911 l 1092 431 q 1019 181 1092 285 q 838 24 946 76 q 629 -28 731 -28 q 390 27 496 -28 q 224 178 283 82 q 165 396 165 275 l 165 961 l 13 1001 l 57 1092 l 549 1092 l 549 1014 l 417 911 l 417 446 q 493 215 417 297 q 724 132 569 132 q 839 167 782 132 q 933 271 896 203 q 971 432 971 339 l 971 939 l 810 1001 l 854 1092 l 1224 1092 l 1224 1014 l 1092 911 m 585 1399 l 381 1285 l 360 1414 l 485 1574 l 654 1544 l 585 1399 m 1042 1399 l 838 1285 l 817 1414 l 940 1574 l 1111 1544 l 1042 1399 z "},"Ū":{"ha":1247,"x_min":13,"x_max":1224,"o":"m 1092 911 l 1092 431 q 1019 181 1092 285 q 838 24 946 76 q 629 -28 731 -28 q 390 27 496 -28 q 224 178 283 82 q 165 396 165 275 l 165 961 l 13 1001 l 57 1092 l 549 1092 l 549 1014 l 417 911 l 417 446 q 493 215 417 297 q 724 132 569 132 q 839 167 782 132 q 933 271 896 203 q 971 432 971 339 l 971 939 l 810 1001 l 854 1092 l 1224 1092 l 1224 1014 l 1092 911 m 289 1465 l 994 1465 l 994 1361 l 289 1361 l 289 1465 z "},"Ų":{"ha":1247,"x_min":13,"x_max":1224,"o":"m 1092 910 l 1092 429 q 1056 247 1092 328 q 960 107 1021 167 q 823 -58 854 -7 q 792 -135 792 -108 q 814 -178 792 -165 q 890 -194 836 -192 l 890 -282 l 782 -368 q 640 -312 690 -351 q 589 -217 589 -272 q 600 -149 589 -175 l 733 -15 q 629 -28 679 -28 q 390 27 496 -28 q 224 178 283 82 q 165 396 165 275 l 165 961 l 13 1001 l 57 1092 l 549 1092 l 549 1014 l 417 911 l 417 446 q 493 215 417 297 q 724 132 569 132 q 839 167 782 132 q 933 271 896 203 q 971 432 971 339 l 971 939 l 810 1001 l 854 1092 l 1224 1092 l 1224 1013 l 1092 910 z "},"Ů":{"ha":1247,"x_min":13,"x_max":1224,"o":"m 1092 911 l 1092 431 q 1019 181 1092 285 q 838 24 946 76 q 629 -28 731 -28 q 390 27 496 -28 q 224 178 283 82 q 165 396 165 275 l 165 961 l 13 1001 l 57 1092 l 549 1092 l 549 1014 l 417 911 l 417 446 q 493 215 417 297 q 724 132 569 132 q 839 167 782 132 q 933 271 896 203 q 971 432 971 339 l 971 939 l 810 1001 l 854 1092 l 1224 1092 l 1224 1014 l 1092 911 m 690 1579 q 824 1538 771 1579 q 878 1435 878 1496 q 833 1340 878 1385 q 722 1268 789 1294 q 592 1242 656 1242 q 458 1283 513 1242 q 404 1386 404 1325 q 449 1481 404 1436 q 560 1553 493 1526 q 690 1579 626 1579 m 610 1493 q 569 1481 583 1493 q 554 1444 554 1468 q 585 1362 554 1394 q 672 1329 617 1329 q 715 1342 700 1329 q 729 1378 729 1354 q 698 1460 729 1428 q 610 1493 667 1493 z "},"V":{"ha":1274,"x_min":-10,"x_max":1274,"o":"m 1121 900 l 765 44 l 526 -26 l 132 931 l -10 1001 l 35 1092 l 553 1092 l 553 1014 l 401 924 l 700 193 l 993 901 l 781 1001 l 825 1092 l 1274 1092 l 1272 1014 l 1121 900 z "},"W":{"ha":1779,"x_min":-7,"x_max":1781,"o":"m 1640 908 l 1331 46 l 1092 -25 l 894 533 l 739 46 l 499 -25 l 131 935 l -7 1003 l 38 1093 l 488 1093 l 488 1015 l 390 943 l 667 208 l 829 715 l 751 935 l 625 1001 l 669 1092 l 1156 1092 l 1156 1014 l 1017 928 l 1263 207 l 1506 899 l 1286 1001 l 1332 1092 l 1779 1092 l 1781 1015 l 1640 908 z "},"Ẃ":{"ha":1779,"x_min":-7,"x_max":1781,"o":"m 1640 908 l 1331 46 l 1092 -25 l 894 533 l 739 46 l 499 -25 l 131 935 l -7 1003 l 38 1093 l 488 1093 l 488 1015 l 390 943 l 667 208 l 829 715 l 751 935 l 625 1001 l 669 1092 l 1156 1092 l 1156 1014 l 1017 928 l 1263 207 l 1506 899 l 1286 1001 l 1332 1092 l 1779 1092 l 1781 1015 l 1640 908 m 1250 1489 l 892 1274 l 811 1311 l 960 1583 l 1215 1557 l 1250 1489 z "},"Ŵ":{"ha":1779,"x_min":-7,"x_max":1781,"o":"m 1640 908 l 1331 46 l 1092 -25 l 894 533 l 739 46 l 499 -25 l 131 935 l -7 1003 l 38 1093 l 488 1093 l 488 1015 l 390 943 l 667 208 l 829 715 l 751 935 l 625 1001 l 669 1092 l 1156 1092 l 1156 1014 l 1017 928 l 1263 207 l 1506 899 l 1286 1001 l 1332 1092 l 1779 1092 l 1781 1015 l 1640 908 m 1249 1289 l 999 1263 l 885 1431 l 640 1265 l 586 1349 l 921 1575 l 1283 1357 l 1249 1289 z "},"Ẅ":{"ha":1779,"x_min":-7,"x_max":1781,"o":"m 668 1272 q 581 1308 617 1272 q 546 1397 546 1344 q 571 1469 546 1436 q 633 1523 596 1503 q 706 1543 671 1543 q 793 1506 758 1543 q 828 1415 828 1469 q 803 1344 828 1378 q 740 1292 778 1311 q 668 1272 703 1272 m 1151 1272 q 1065 1308 1100 1272 q 1029 1397 1029 1344 q 1054 1469 1029 1436 q 1117 1523 1079 1503 q 1189 1543 1154 1543 q 1276 1506 1242 1543 q 1311 1415 1311 1469 q 1286 1344 1311 1378 q 1224 1292 1261 1311 q 1151 1272 1186 1272 m 1640 908 l 1331 46 l 1092 -25 l 894 533 l 739 46 l 499 -25 l 131 935 l -7 1003 l 38 1093 l 488 1093 l 488 1015 l 390 943 l 667 208 l 829 715 l 751 935 l 625 1001 l 669 1092 l 1156 1092 l 1156 1014 l 1017 928 l 1263 207 l 1506 899 l 1286 1001 l 1332 1092 l 1779 1092 l 1781 1015 l 1640 908 z "},"Ẁ":{"ha":1779,"x_min":-7,"x_max":1781,"o":"m 1640 908 l 1331 46 l 1092 -25 l 894 533 l 739 46 l 499 -25 l 131 935 l -7 1003 l 38 1093 l 488 1093 l 488 1015 l 390 943 l 667 208 l 829 715 l 751 935 l 625 1001 l 669 1092 l 1156 1092 l 1156 1014 l 1017 928 l 1263 207 l 1506 899 l 1286 1001 l 1332 1092 l 1779 1092 l 1781 1015 l 1640 908 m 969 1274 l 610 1489 l 644 1557 l 900 1583 l 1049 1311 l 969 1274 z "},"X":{"ha":1231,"x_min":8,"x_max":1211,"o":"m 1167 0 l 683 0 l 683 78 l 793 150 l 565 421 l 332 178 l 501 92 l 456 1 l 8 1 l 8 79 l 174 190 l 486 513 l 129 933 l 13 1001 l 58 1092 l 542 1092 l 542 1014 l 428 947 l 656 676 l 868 914 l 697 1001 l 742 1092 l 1190 1092 l 1190 1014 l 1035 910 l 739 582 l 1111 143 l 1211 90 l 1167 0 z "},"Y":{"ha":1176,"x_min":-8,"x_max":1176,"o":"m 710 131 l 864 89 l 819 -1 l 336 -1 l 336 76 l 467 179 l 467 364 l 93 949 l -8 1000 l 19 1090 l 493 1090 l 493 1013 l 389 932 l 638 544 l 886 904 l 683 1001 l 728 1092 l 1176 1092 l 1176 1014 l 1039 914 l 710 432 l 710 131 z "},"Ý":{"ha":1176,"x_min":-8,"x_max":1176,"o":"m 710 131 l 864 89 l 819 -1 l 336 -1 l 336 76 l 467 179 l 467 364 l 93 949 l -8 1000 l 19 1090 l 493 1090 l 493 1013 l 389 932 l 638 544 l 886 904 l 683 1001 l 728 1092 l 1176 1092 l 1176 1014 l 1039 914 l 710 432 l 710 131 m 914 1489 l 556 1274 l 475 1311 l 624 1583 l 879 1557 l 914 1489 z "},"Ŷ":{"ha":1176,"x_min":-8,"x_max":1176,"o":"m 710 131 l 864 89 l 819 -1 l 336 -1 l 336 76 l 467 179 l 467 364 l 93 949 l -8 1000 l 19 1090 l 493 1090 l 493 1013 l 389 932 l 638 544 l 886 904 l 683 1001 l 728 1092 l 1176 1092 l 1176 1014 l 1039 914 l 710 432 l 710 131 m 913 1289 l 663 1263 l 549 1431 l 304 1265 l 250 1349 l 585 1575 l 947 1357 l 913 1289 z "},"Ÿ":{"ha":1176,"x_min":-8,"x_max":1176,"o":"m 332 1272 q 245 1308 281 1272 q 210 1397 210 1344 q 235 1469 210 1436 q 297 1523 260 1503 q 369 1543 335 1543 q 457 1506 422 1543 q 492 1415 492 1469 q 467 1344 492 1378 q 404 1292 442 1311 q 332 1272 367 1272 m 815 1272 q 728 1308 764 1272 q 693 1397 693 1344 q 718 1469 693 1436 q 781 1523 743 1503 q 853 1543 818 1543 q 940 1506 906 1543 q 975 1415 975 1469 q 950 1344 975 1378 q 888 1292 925 1311 q 815 1272 850 1272 m 710 131 l 864 89 l 819 -1 l 336 -1 l 336 76 l 467 179 l 467 364 l 93 949 l -8 1000 l 19 1090 l 493 1090 l 493 1013 l 389 932 l 638 544 l 886 904 l 683 1001 l 728 1092 l 1176 1092 l 1176 1014 l 1039 914 l 710 432 l 710 131 z "},"Ỳ":{"ha":1176,"x_min":-8,"x_max":1176,"o":"m 710 131 l 864 89 l 819 -1 l 336 -1 l 336 76 l 467 179 l 467 364 l 93 949 l -8 1000 l 19 1090 l 493 1090 l 493 1013 l 389 932 l 638 544 l 886 904 l 683 1001 l 728 1092 l 1176 1092 l 1176 1014 l 1039 914 l 710 432 l 710 131 m 633 1274 l 274 1489 l 308 1557 l 564 1583 l 713 1311 l 633 1274 z "},"Z":{"ha":1097,"x_min":61,"x_max":1029,"o":"m 750 106 l 939 403 l 1015 371 l 1015 -25 l 915 0 l 61 0 l 61 106 l 732 986 l 351 986 l 181 718 l 104 749 l 104 1117 l 204 1092 l 1029 1092 l 1029 986 l 358 106 l 750 106 z "},"Ź":{"ha":1097,"x_min":61,"x_max":1029,"o":"m 750 106 l 939 403 l 1015 371 l 1015 -25 l 915 0 l 61 0 l 61 106 l 732 986 l 351 986 l 181 718 l 104 749 l 104 1117 l 204 1092 l 1029 1092 l 1029 986 l 358 106 l 750 106 m 869 1489 l 511 1274 l 431 1311 l 579 1583 l 835 1557 l 869 1489 z "},"Ž":{"ha":1097,"x_min":61,"x_max":1029,"o":"m 750 106 l 939 403 l 1015 371 l 1015 -25 l 915 0 l 61 0 l 61 106 l 732 986 l 351 986 l 181 718 l 104 749 l 104 1117 l 204 1092 l 1029 1092 l 1029 986 l 358 106 l 750 106 m 557 1271 l 194 1489 l 229 1557 l 479 1583 l 593 1415 l 838 1581 l 892 1497 l 557 1271 z "},"Ż":{"ha":1097,"x_min":61,"x_max":1029,"o":"m 750 106 l 939 403 l 1015 371 l 1015 -25 l 915 0 l 61 0 l 61 106 l 732 986 l 351 986 l 181 718 l 104 749 l 104 1117 l 204 1092 l 1029 1092 l 1029 986 l 358 106 l 750 106 m 567 1538 q 665 1499 626 1538 q 703 1404 703 1461 q 675 1329 703 1364 q 606 1274 647 1294 q 525 1253 564 1253 q 428 1291 467 1253 q 390 1386 390 1329 q 418 1461 390 1426 q 487 1517 446 1496 q 567 1538 528 1538 z "},"a":{"ha":924,"x_min":67,"x_max":906,"o":"m 861 0 l 544 0 l 544 121 l 388 -3 q 318 -14 360 -14 q 126 51 185 -14 q 67 208 67 117 q 100 315 67 263 q 196 411 133 367 l 544 411 l 544 435 q 503 547 544 511 q 392 583 461 583 q 138 507 294 583 l 96 586 l 289 742 q 454 763 360 763 q 695 692 610 763 q 781 486 781 621 l 781 139 l 906 90 l 861 0 m 389 172 q 544 231 460 172 l 544 319 l 321 319 q 305 288 310 303 q 300 256 300 274 q 324 197 300 221 q 389 174 349 174 l 389 172 z "},"á":{"ha":924,"x_min":67,"x_max":906,"o":"m 861 0 l 544 0 l 544 121 l 388 -3 q 318 -14 360 -14 q 126 51 185 -14 q 67 208 67 117 q 100 315 67 263 q 196 411 133 367 l 544 411 l 544 435 q 503 547 544 511 q 392 583 461 583 q 138 507 294 583 l 96 586 l 289 742 q 454 763 360 763 q 695 692 610 763 q 781 486 781 621 l 781 139 l 906 90 l 861 0 m 389 172 q 544 231 460 172 l 544 319 l 321 319 q 305 288 310 303 q 300 256 300 274 q 324 197 300 221 q 389 174 349 174 l 389 172 m 758 1144 l 400 929 l 319 967 l 468 1239 l 724 1213 l 758 1144 z "},"ă":{"ha":924,"x_min":67,"x_max":906,"o":"m 861 0 l 544 0 l 544 121 l 388 -3 q 318 -14 360 -14 q 126 51 185 -14 q 67 208 67 117 q 100 315 67 263 q 196 411 133 367 l 544 411 l 544 435 q 503 547 544 511 q 392 583 461 583 q 138 507 294 583 l 96 586 l 289 742 q 454 763 360 763 q 695 692 610 763 q 781 486 781 621 l 781 139 l 906 90 l 861 0 m 389 172 q 544 231 460 172 l 544 319 l 321 319 q 305 288 310 303 q 300 256 300 274 q 324 197 300 221 q 389 174 349 174 l 389 172 m 778 1228 q 713 1078 767 1149 q 581 964 658 1007 q 429 921 504 921 q 246 960 333 921 q 115 1071 158 1000 l 315 1229 q 475 1076 363 1076 q 540 1096 515 1076 q 572 1149 565 1115 l 778 1228 z "},"â":{"ha":924,"x_min":67,"x_max":906,"o":"m 861 0 l 544 0 l 544 121 l 388 -3 q 318 -14 360 -14 q 126 51 185 -14 q 67 208 67 117 q 100 315 67 263 q 196 411 133 367 l 544 411 l 544 435 q 503 547 544 511 q 392 583 461 583 q 138 507 294 583 l 96 586 l 289 742 q 454 763 360 763 q 695 692 610 763 q 781 486 781 621 l 781 139 l 906 90 l 861 0 m 389 172 q 544 231 460 172 l 544 319 l 321 319 q 305 288 310 303 q 300 256 300 274 q 324 197 300 221 q 389 174 349 174 l 389 172 m 757 944 l 507 918 l 393 1086 l 149 921 l 94 1004 l 429 1231 l 792 1013 l 757 944 z "},"ä":{"ha":924,"x_min":67,"x_max":906,"o":"m 218 932 q 134 967 168 932 q 100 1054 100 1003 q 124 1124 100 1092 q 183 1175 147 1156 q 253 1194 219 1194 q 338 1159 306 1194 q 371 1071 371 1124 q 347 1003 371 1035 q 288 951 324 971 q 218 932 251 932 m 628 932 q 544 967 578 932 q 510 1054 510 1003 q 533 1124 510 1092 q 593 1175 557 1156 q 663 1194 629 1194 q 748 1159 715 1194 q 781 1071 781 1124 q 757 1003 781 1035 q 697 951 733 971 q 628 932 661 932 m 861 0 l 544 0 l 544 121 l 388 -3 q 318 -14 360 -14 q 126 51 185 -14 q 67 208 67 117 q 100 315 67 263 q 196 411 133 367 l 544 411 l 544 435 q 503 547 544 511 q 392 583 461 583 q 138 507 294 583 l 96 586 l 289 742 q 454 763 360 763 q 695 692 610 763 q 781 486 781 621 l 781 139 l 906 90 l 861 0 m 389 172 q 544 231 460 172 l 544 319 l 321 319 q 305 288 310 303 q 300 256 300 274 q 324 197 300 221 q 389 174 349 174 l 389 172 z "},"à":{"ha":924,"x_min":67,"x_max":906,"o":"m 861 0 l 544 0 l 544 121 l 388 -3 q 318 -14 360 -14 q 126 51 185 -14 q 67 208 67 117 q 100 315 67 263 q 196 411 133 367 l 544 411 l 544 435 q 503 547 544 511 q 392 583 461 583 q 138 507 294 583 l 96 586 l 289 742 q 454 763 360 763 q 695 692 610 763 q 781 486 781 621 l 781 139 l 906 90 l 861 0 m 389 172 q 544 231 460 172 l 544 319 l 321 319 q 305 288 310 303 q 300 256 300 274 q 324 197 300 221 q 389 174 349 174 l 389 172 m 478 929 l 118 1144 l 153 1213 l 408 1239 l 557 967 l 478 929 z "},"ā":{"ha":924,"x_min":67,"x_max":906,"o":"m 861 0 l 544 0 l 544 121 l 388 -3 q 318 -14 360 -14 q 126 51 185 -14 q 67 208 67 117 q 100 315 67 263 q 196 411 133 367 l 544 411 l 544 435 q 503 547 544 511 q 392 583 461 583 q 138 507 294 583 l 96 586 l 289 742 q 454 763 360 763 q 695 692 610 763 q 781 486 781 621 l 781 139 l 906 90 l 861 0 m 389 172 q 544 231 460 172 l 544 319 l 321 319 q 305 288 310 303 q 300 256 300 274 q 324 197 300 221 q 389 174 349 174 l 389 172 m 113 1121 l 763 1121 l 763 1026 l 113 1026 l 113 1121 z "},"ą":{"ha":924,"x_min":67,"x_max":906,"o":"m 861 0 q 789 -142 789 -94 q 805 -178 789 -165 q 856 -193 821 -192 l 856 -281 l 747 -367 q 554 -206 554 -329 q 565 -147 554 -169 l 750 0 l 544 0 l 544 121 l 388 -3 q 318 -14 360 -14 q 126 51 185 -14 q 67 208 67 117 q 100 315 67 263 q 196 411 133 367 l 544 411 l 544 435 q 503 547 544 511 q 392 583 461 583 q 138 507 294 583 l 96 586 l 289 742 q 454 763 360 763 q 695 692 610 763 q 781 486 781 621 l 781 139 l 906 90 l 861 0 m 389 172 q 544 231 460 172 l 544 319 l 321 319 q 305 288 310 303 q 300 256 300 274 q 324 197 300 221 q 389 174 349 174 l 389 172 z "},"å":{"ha":924,"x_min":67,"x_max":906,"o":"m 861 0 l 544 0 l 544 121 l 388 -3 q 318 -14 360 -14 q 126 51 185 -14 q 67 208 67 117 q 100 315 67 263 q 196 411 133 367 l 544 411 l 544 435 q 503 547 544 511 q 392 583 461 583 q 138 507 294 583 l 96 586 l 289 742 q 454 763 360 763 q 695 692 610 763 q 781 486 781 621 l 781 139 l 906 90 l 861 0 m 389 172 q 544 231 460 172 l 544 319 l 321 319 q 305 288 310 303 q 300 256 300 274 q 324 197 300 221 q 389 174 349 174 l 389 172 m 486 1235 q 620 1193 567 1235 q 674 1090 674 1151 q 629 995 674 1040 q 518 924 585 950 q 388 897 451 897 q 254 939 308 897 q 200 1042 200 981 q 244 1137 200 1092 q 356 1208 289 1182 q 486 1235 422 1235 m 406 1149 q 365 1136 379 1149 q 350 1100 350 1124 q 381 1017 350 1050 q 468 985 413 985 q 510 997 496 985 q 525 1033 525 1010 q 494 1116 525 1083 q 406 1149 463 1149 z "},"ã":{"ha":924,"x_min":67,"x_max":906,"o":"m 861 0 l 544 0 l 544 121 l 388 -3 q 318 -14 360 -14 q 126 51 185 -14 q 67 208 67 117 q 100 315 67 263 q 196 411 133 367 l 544 411 l 544 435 q 503 547 544 511 q 392 583 461 583 q 138 507 294 583 l 96 586 l 289 742 q 454 763 360 763 q 695 692 610 763 q 781 486 781 621 l 781 139 l 906 90 l 861 0 m 389 172 q 544 231 460 172 l 544 319 l 321 319 q 305 288 310 303 q 300 256 300 274 q 324 197 300 221 q 389 174 349 174 l 389 172 m 401 1253 q 504 1164 461 1192 q 583 1136 547 1136 q 647 1157 615 1136 l 718 1203 l 772 1119 l 469 919 q 365 1010 407 982 q 288 1038 322 1038 q 222 1014 257 1038 l 153 969 l 99 1053 l 401 1253 z "},"æ":{"ha":1315,"x_min":68,"x_max":1239,"o":"m 951 761 q 1164 650 1089 761 q 1236 342 1239 539 l 768 342 q 823 206 781 257 q 932 156 865 156 q 1193 246 1022 156 l 1235 167 l 1035 6 q 851 -15 956 -15 q 706 19 772 -15 q 596 115 640 54 l 449 -3 q 319 -14 397 -14 q 127 51 186 -14 q 68 208 68 117 q 101 314 68 263 q 197 410 135 365 l 524 410 l 524 435 q 485 547 524 511 q 385 583 447 583 q 139 507 290 583 l 97 586 l 290 742 q 447 763 357 763 q 694 667 618 763 q 822 737 754 711 q 951 763 889 763 l 951 761 m 874 600 q 764 433 768 600 l 996 433 q 960 560 986 519 q 874 600 935 600 m 403 156 q 550 196 471 156 q 522 318 526 254 l 321 318 q 305 287 310 301 q 300 254 300 272 q 328 183 300 211 q 403 156 356 156 z "},"b":{"ha":1014,"x_min":18,"x_max":935,"o":"m 636 763 q 790 715 721 763 q 897 583 858 667 q 935 399 935 500 q 864 194 935 289 q 687 42 793 99 q 482 -14 581 -14 q 378 8 426 -14 q 293 68 331 29 l 229 0 l 142 0 l 142 942 l 18 1024 l 18 1101 l 290 1213 l 378 1213 l 378 628 l 532 751 q 636 763 576 763 m 561 146 q 652 193 621 146 q 683 332 683 240 q 649 513 683 442 q 549 583 614 583 q 462 572 503 583 q 378 532 421 561 l 378 299 q 426 190 378 233 q 563 146 474 146 l 561 146 z "},"c":{"ha":886,"x_min":81,"x_max":817,"o":"m 506 763 q 657 747 571 763 q 782 711 743 731 l 782 453 l 694 453 q 575 563 642 524 q 436 601 508 601 q 358 553 385 601 q 331 417 331 506 q 378 231 331 304 q 515 157 426 157 q 775 244 606 157 l 817 165 l 617 7 q 435 -14 538 -14 q 252 34 333 -14 q 126 165 171 82 q 81 350 81 249 q 147 555 81 460 q 313 706 213 650 q 506 763 413 763 z "},"ć":{"ha":886,"x_min":81,"x_max":817,"o":"m 506 763 q 657 747 571 763 q 782 711 743 731 l 782 453 l 694 453 q 575 563 642 524 q 436 601 508 601 q 358 553 385 601 q 331 417 331 506 q 378 231 331 304 q 515 157 426 157 q 775 244 606 157 l 817 165 l 617 7 q 435 -14 538 -14 q 252 34 333 -14 q 126 165 171 82 q 81 350 81 249 q 147 555 81 460 q 313 706 213 650 q 506 763 413 763 m 779 1144 l 421 929 l 340 967 l 489 1239 l 744 1213 l 779 1144 z "},"č":{"ha":886,"x_min":81,"x_max":817,"o":"m 506 763 q 657 747 571 763 q 782 711 743 731 l 782 453 l 694 453 q 575 563 642 524 q 436 601 508 601 q 358 553 385 601 q 331 417 331 506 q 378 231 331 304 q 515 157 426 157 q 775 244 606 157 l 817 165 l 617 7 q 435 -14 538 -14 q 252 34 333 -14 q 126 165 171 82 q 81 350 81 249 q 147 555 81 460 q 313 706 213 650 q 506 763 413 763 m 467 926 l 104 1144 l 139 1213 l 389 1239 l 503 1071 l 747 1236 l 801 1153 l 467 926 z "},"ç":{"ha":886,"x_min":81,"x_max":817,"o":"m 525 -79 q 624 -156 597 -122 q 650 -231 650 -189 q 576 -328 650 -294 q 349 -369 501 -362 l 349 -292 q 421 -253 399 -275 q 443 -201 443 -232 q 426 -151 443 -174 q 361 -99 408 -129 q 460 -15 421 -49 l 435 -15 q 252 33 333 -15 q 126 164 171 81 q 81 349 81 247 q 147 553 81 458 q 313 705 213 649 q 506 761 413 761 q 657 745 571 761 q 782 710 743 729 l 782 451 l 694 451 q 575 561 642 522 q 436 600 508 600 q 358 552 385 600 q 331 415 331 504 q 378 229 331 303 q 515 156 426 156 q 775 243 606 156 l 817 164 l 633 19 l 556 -50 q 525 -76 557 -49 l 525 -79 z "},"ċ":{"ha":886,"x_min":81,"x_max":817,"o":"m 506 763 q 657 747 571 763 q 782 711 743 731 l 782 453 l 694 453 q 575 563 642 524 q 436 601 508 601 q 358 553 385 601 q 331 417 331 506 q 378 231 331 304 q 515 157 426 157 q 775 244 606 157 l 817 165 l 617 7 q 435 -14 538 -14 q 252 34 333 -14 q 126 165 171 82 q 81 350 81 249 q 147 555 81 460 q 313 706 213 650 q 506 763 413 763 m 476 1193 q 574 1155 536 1193 q 613 1060 613 1117 q 585 985 613 1019 q 515 929 557 950 q 435 908 474 908 q 338 947 376 908 q 300 1042 300 985 q 328 1117 300 1082 q 397 1172 356 1151 q 476 1193 438 1193 z "},"d":{"ha":1014,"x_min":81,"x_max":997,"o":"m 951 0 l 636 0 l 636 103 l 503 -3 q 400 -14 458 -14 q 235 34 308 -14 q 122 165 163 82 q 81 350 81 249 q 151 555 81 460 q 328 706 222 650 q 533 763 435 763 q 636 735 589 763 l 636 942 l 513 1024 l 513 1101 l 785 1213 l 872 1213 l 872 132 l 997 90 l 951 0 m 485 172 q 636 213 567 172 l 636 478 q 581 567 628 532 q 453 601 533 601 q 331 415 331 601 q 370 241 331 310 q 485 172 410 172 z "},"ð":{"ha":932,"x_min":50,"x_max":878,"o":"m 590 1040 q 800 773 722 922 q 878 478 878 624 q 813 237 878 350 q 642 56 749 124 q 415 -12 535 -12 q 232 35 314 -12 q 103 165 150 82 q 56 351 56 249 q 123 547 56 450 q 297 703 190 643 q 514 764 403 764 l 518 764 q 379 921 463 850 l 111 772 l 83 822 l 329 960 q 50 1086 207 1046 l 50 1164 l 282 1226 q 544 1078 421 1175 l 810 1226 l 839 1175 l 592 1038 l 590 1040 m 497 150 q 596 210 565 150 q 626 401 626 269 q 594 604 626 506 l 433 604 q 342 557 374 604 q 311 419 311 510 q 361 222 311 296 q 496 149 411 149 l 497 150 z "},"ď":{"ha":1014,"x_min":81,"x_max":1242,"o":"m 951 0 l 636 0 l 636 103 l 503 -3 q 400 -14 458 -14 q 235 34 308 -14 q 122 165 163 82 q 81 350 81 249 q 151 555 81 460 q 328 706 222 650 q 533 763 435 763 q 636 735 589 763 l 636 942 l 513 1024 l 513 1101 l 785 1213 l 872 1213 l 872 132 l 997 90 l 951 0 m 485 172 q 636 213 567 172 l 636 478 q 581 567 628 532 q 453 601 533 601 q 331 415 331 601 q 370 241 331 310 q 485 172 410 172 m 1242 974 l 1085 793 l 996 861 q 1036 1003 1031 933 l 963 1057 l 963 1135 l 1153 1213 l 1242 1213 l 1242 974 z "},"đ":{"ha":1014,"x_min":81,"x_max":1014,"o":"m 872 131 l 997 89 l 951 -1 l 636 -1 l 636 101 l 503 -4 q 400 -15 458 -15 q 235 33 308 -15 q 122 164 163 81 q 81 349 81 247 q 151 553 81 458 q 328 705 222 649 q 533 761 435 761 q 636 733 589 761 l 636 911 l 364 911 l 364 1003 l 636 1003 l 636 1171 l 785 1231 l 872 1231 l 872 1003 l 1014 1003 l 1014 911 l 872 910 l 872 131 m 485 171 q 636 211 567 171 l 636 476 q 581 565 628 531 q 453 600 533 600 q 331 414 331 600 q 370 240 331 308 q 485 171 410 171 z "},"e":{"ha":918,"x_min":81,"x_max":839,"o":"m 533 763 q 759 651 679 763 q 836 343 839 540 l 336 343 q 396 208 350 258 q 515 157 442 157 q 794 254 613 157 l 836 175 l 625 7 q 435 -14 543 -14 q 252 34 333 -14 q 126 165 171 82 q 81 350 81 249 q 151 555 81 460 q 328 706 222 650 q 533 763 435 763 m 457 601 q 365 560 396 601 q 332 435 335 519 l 597 435 q 556 561 586 521 q 456 601 526 601 l 457 601 z "},"é":{"ha":918,"x_min":81,"x_max":839,"o":"m 533 763 q 759 651 679 763 q 836 343 839 540 l 336 343 q 396 208 350 258 q 515 157 442 157 q 794 254 613 157 l 836 175 l 625 7 q 435 -14 543 -14 q 252 34 333 -14 q 126 165 171 82 q 81 350 81 249 q 151 555 81 460 q 328 706 222 650 q 533 763 435 763 m 457 601 q 365 560 396 601 q 332 435 335 519 l 597 435 q 556 561 586 521 q 456 601 526 601 l 457 601 m 786 1144 l 428 929 l 347 967 l 496 1239 l 751 1213 l 786 1144 z "},"ě":{"ha":918,"x_min":81,"x_max":839,"o":"m 533 763 q 759 651 679 763 q 836 343 839 540 l 336 343 q 396 208 350 258 q 515 157 442 157 q 794 254 613 157 l 836 175 l 625 7 q 435 -14 543 -14 q 252 34 333 -14 q 126 165 171 82 q 81 350 81 249 q 151 555 81 460 q 328 706 222 650 q 533 763 435 763 m 457 601 q 365 560 396 601 q 332 435 335 519 l 597 435 q 556 561 586 521 q 456 601 526 601 l 457 601 m 474 926 l 111 1144 l 146 1213 l 396 1239 l 510 1071 l 754 1236 l 808 1153 l 474 926 z "},"ê":{"ha":918,"x_min":81,"x_max":839,"o":"m 533 763 q 759 651 679 763 q 836 343 839 540 l 336 343 q 396 208 350 258 q 515 157 442 157 q 794 254 613 157 l 836 175 l 625 7 q 435 -14 543 -14 q 252 34 333 -14 q 126 165 171 82 q 81 350 81 249 q 151 555 81 460 q 328 706 222 650 q 533 763 435 763 m 457 601 q 365 560 396 601 q 332 435 335 519 l 597 435 q 556 561 586 521 q 456 601 526 601 l 457 601 m 785 944 l 535 918 l 421 1086 l 176 921 l 122 1004 l 457 1231 l 819 1013 l 785 944 z "},"ë":{"ha":918,"x_min":81,"x_max":839,"o":"m 244 932 q 160 967 194 932 q 126 1054 126 1003 q 150 1124 126 1092 q 210 1175 174 1156 q 279 1194 246 1194 q 365 1159 332 1194 q 397 1071 397 1124 q 374 1003 397 1035 q 314 951 350 971 q 244 932 278 932 m 654 932 q 570 967 604 932 q 536 1054 536 1003 q 560 1124 536 1092 q 619 1175 583 1156 q 689 1194 656 1194 q 774 1159 742 1194 q 807 1071 807 1124 q 783 1003 807 1035 q 724 951 760 971 q 654 932 688 932 m 533 763 q 759 651 679 763 q 836 343 839 540 l 336 343 q 396 208 350 258 q 515 157 442 157 q 794 254 613 157 l 836 175 l 625 7 q 435 -14 543 -14 q 252 34 333 -14 q 126 165 171 82 q 81 350 81 249 q 151 555 81 460 q 328 706 222 650 q 533 763 435 763 m 457 601 q 365 560 396 601 q 332 435 335 519 l 597 435 q 556 561 586 521 q 456 601 526 601 l 457 601 z "},"ė":{"ha":918,"x_min":81,"x_max":839,"o":"m 533 763 q 759 651 679 763 q 836 343 839 540 l 336 343 q 396 208 350 258 q 515 157 442 157 q 794 254 613 157 l 836 175 l 625 7 q 435 -14 543 -14 q 252 34 333 -14 q 126 165 171 82 q 81 350 81 249 q 151 555 81 460 q 328 706 222 650 q 533 763 435 763 m 457 601 q 365 560 396 601 q 332 435 335 519 l 597 435 q 556 561 586 521 q 456 601 526 601 l 457 601 m 483 1193 q 581 1155 543 1193 q 619 1060 619 1117 q 592 985 619 1019 q 522 929 564 950 q 442 908 481 908 q 345 947 383 908 q 307 1042 307 985 q 335 1117 307 1082 q 403 1172 363 1151 q 483 1193 444 1193 z "},"è":{"ha":918,"x_min":81,"x_max":839,"o":"m 533 763 q 759 651 679 763 q 836 343 839 540 l 336 343 q 396 208 350 258 q 515 157 442 157 q 794 254 613 157 l 836 175 l 625 7 q 435 -14 543 -14 q 252 34 333 -14 q 126 165 171 82 q 81 350 81 249 q 151 555 81 460 q 328 706 222 650 q 533 763 435 763 m 457 601 q 365 560 396 601 q 332 435 335 519 l 597 435 q 556 561 586 521 q 456 601 526 601 l 457 601 m 506 929 l 146 1144 l 181 1213 l 436 1239 l 585 967 l 506 929 z "},"ē":{"ha":918,"x_min":81,"x_max":839,"o":"m 533 763 q 759 651 679 763 q 836 343 839 540 l 336 343 q 396 208 350 258 q 515 157 442 157 q 794 254 613 157 l 836 175 l 625 7 q 435 -14 543 -14 q 252 34 333 -14 q 126 165 171 82 q 81 350 81 249 q 151 555 81 460 q 328 706 222 650 q 533 763 435 763 m 457 601 q 365 560 396 601 q 332 435 335 519 l 597 435 q 556 561 586 521 q 456 601 526 601 l 457 601 m 140 1121 l 790 1121 l 790 1026 l 140 1026 l 140 1121 z "},"ę":{"ha":918,"x_min":81,"x_max":839,"o":"m 533 763 q 759 651 679 763 q 836 343 839 540 l 336 343 q 396 208 350 258 q 515 157 442 157 q 794 254 613 157 l 836 175 l 640 18 q 535 -139 535 -71 q 556 -178 535 -165 q 628 -193 578 -190 l 628 -281 l 519 -367 q 385 -310 432 -350 q 338 -215 338 -271 q 349 -147 338 -174 l 486 -12 q 435 -14 468 -14 q 252 34 333 -14 q 126 165 171 82 q 81 350 81 249 q 151 555 81 460 q 328 706 222 650 q 533 763 435 763 m 457 601 q 365 560 396 601 q 332 435 335 519 l 597 435 q 556 561 586 521 q 456 601 526 601 l 457 601 z "},"f":{"ha":678,"x_min":35,"x_max":794,"o":"m 593 1226 q 704 1214 642 1226 q 794 1186 767 1201 l 794 938 l 707 938 q 624 1034 674 999 q 525 1069 575 1069 q 447 1026 474 1069 q 419 901 419 983 l 419 707 l 653 707 l 653 615 l 419 615 l 419 146 l 631 90 l 586 0 l 60 0 l 60 78 l 183 182 l 183 615 l 35 615 l 35 707 l 183 707 l 183 814 q 247 1019 183 924 q 408 1170 311 1114 q 593 1226 504 1226 z "},"g":{"ha":889,"x_min":54,"x_max":883,"o":"m 740 614 q 764 519 764 569 q 692 356 764 435 q 515 238 621 278 q 479 154 479 196 q 510 116 479 135 q 606 68 540 97 q 753 -9 701 26 q 804 -92 804 -44 q 749 -202 804 -136 q 610 -317 693 -268 q 450 -367 528 -367 q 249 -340 365 -367 q 54 -287 132 -314 l 54 -39 l 142 -39 q 280 -178 210 -131 q 439 -226 350 -226 q 516 -206 485 -226 q 547 -164 547 -186 q 510 -108 547 -132 q 397 -49 474 -83 q 274 16 315 -12 q 232 82 232 44 q 283 150 232 115 q 404 211 333 185 q 363 208 376 208 q 208 242 278 208 q 97 331 138 275 q 57 451 57 388 q 115 603 57 531 q 267 719 174 675 q 457 763 360 763 q 653 707 568 763 l 882 707 l 883 614 l 740 614 m 444 367 q 513 388 489 367 q 538 453 538 410 q 494 560 538 521 q 378 600 450 600 q 286 518 286 600 q 330 409 286 451 q 444 367 374 367 z "},"ğ":{"ha":889,"x_min":54,"x_max":883,"o":"m 740 614 q 764 519 764 569 q 692 356 764 435 q 515 238 621 278 q 479 154 479 196 q 510 116 479 135 q 606 68 540 97 q 753 -9 701 26 q 804 -92 804 -44 q 749 -202 804 -136 q 610 -317 693 -268 q 450 -367 528 -367 q 249 -340 365 -367 q 54 -287 132 -314 l 54 -39 l 142 -39 q 280 -178 210 -131 q 439 -226 350 -226 q 516 -206 485 -226 q 547 -164 547 -186 q 510 -108 547 -132 q 397 -49 474 -83 q 274 16 315 -12 q 232 82 232 44 q 283 150 232 115 q 404 211 333 185 q 363 208 376 208 q 208 242 278 208 q 97 331 138 275 q 57 451 57 388 q 115 603 57 531 q 267 719 174 675 q 457 763 360 763 q 653 707 568 763 l 882 707 l 883 614 l 740 614 m 444 367 q 513 388 489 367 q 538 453 538 410 q 494 560 538 521 q 378 600 450 600 q 286 518 286 600 q 330 409 286 451 q 444 367 374 367 m 764 1228 q 699 1078 753 1149 q 567 964 644 1007 q 415 921 490 921 q 232 960 319 921 q 101 1071 144 1000 l 301 1229 q 461 1076 349 1076 q 526 1096 501 1076 q 558 1149 551 1115 l 764 1228 z "},"ģ":{"ha":889,"x_min":54,"x_max":883,"o":"m 740 614 q 764 519 764 569 q 692 356 764 435 q 515 238 621 278 q 479 154 479 196 q 510 116 479 135 q 606 68 540 97 q 753 -9 701 26 q 804 -92 804 -44 q 749 -202 804 -136 q 610 -317 693 -268 q 450 -367 528 -367 q 249 -340 365 -367 q 54 -287 132 -314 l 54 -39 l 142 -39 q 280 -178 210 -131 q 439 -226 350 -226 q 516 -206 485 -226 q 547 -164 547 -186 q 510 -108 547 -132 q 397 -49 474 -83 q 274 16 315 -12 q 232 82 232 44 q 283 150 232 115 q 404 211 333 185 q 363 208 376 208 q 208 242 278 208 q 97 331 138 275 q 57 451 57 388 q 115 603 57 531 q 267 719 174 675 q 457 763 360 763 q 653 707 568 763 l 882 707 l 883 614 l 740 614 m 444 367 q 513 388 489 367 q 538 453 538 410 q 494 560 538 521 q 378 600 450 600 q 286 518 286 600 q 330 409 286 451 q 444 367 374 367 m 239 1053 l 417 1282 l 532 1282 l 490 1135 l 613 1065 l 568 975 l 239 975 l 239 1053 z "},"ġ":{"ha":889,"x_min":54,"x_max":883,"o":"m 740 614 q 764 519 764 569 q 692 356 764 435 q 515 238 621 278 q 479 154 479 196 q 510 116 479 135 q 606 68 540 97 q 753 -9 701 26 q 804 -92 804 -44 q 749 -202 804 -136 q 610 -317 693 -268 q 450 -367 528 -367 q 249 -340 365 -367 q 54 -287 132 -314 l 54 -39 l 142 -39 q 280 -178 210 -131 q 439 -226 350 -226 q 516 -206 485 -226 q 547 -164 547 -186 q 510 -108 547 -132 q 397 -49 474 -83 q 274 16 315 -12 q 232 82 232 44 q 283 150 232 115 q 404 211 333 185 q 363 208 376 208 q 208 242 278 208 q 97 331 138 275 q 57 451 57 388 q 115 603 57 531 q 267 719 174 675 q 457 763 360 763 q 653 707 568 763 l 882 707 l 883 614 l 740 614 m 444 367 q 513 388 489 367 q 538 453 538 410 q 494 560 538 521 q 378 600 450 600 q 286 518 286 600 q 330 409 286 451 q 444 367 374 367 m 442 1193 q 540 1155 501 1193 q 578 1060 578 1117 q 550 985 578 1019 q 481 929 522 950 q 400 908 439 908 q 303 947 342 908 q 265 1042 265 985 q 293 1117 265 1082 q 362 1172 321 1151 q 442 1193 403 1193 z "},"h":{"ha":1006,"x_min":32,"x_max":989,"o":"m 943 0 l 628 0 l 628 444 q 608 537 628 510 q 538 564 588 564 q 392 517 464 564 l 392 132 l 517 90 l 471 0 l 32 0 l 32 78 l 156 182 l 156 942 l 32 1024 l 32 1101 l 304 1213 l 392 1213 l 392 626 l 547 751 q 632 763 585 763 q 801 705 738 763 q 864 549 864 647 l 864 132 l 989 90 l 943 0 z "},"ħ":{"ha":1006,"x_min":0,"x_max":989,"o":"m 943 0 l 628 0 l 628 444 q 608 537 628 510 q 538 564 588 564 q 392 517 464 564 l 392 132 l 517 90 l 471 0 l 32 0 l 32 78 l 156 182 l 156 911 l 0 911 l 0 1003 l 156 1003 l 156 1167 l 304 1231 l 392 1231 l 392 1003 l 650 1003 l 650 911 l 392 911 l 392 626 l 547 751 q 632 763 585 763 q 801 705 738 763 q 864 549 864 647 l 864 132 l 989 90 l 943 0 z "},"i":{"ha":567,"x_min":60,"x_max":544,"o":"m 499 0 l 60 0 l 60 78 l 183 182 l 183 504 l 60 586 l 60 664 l 332 775 l 419 775 l 419 132 l 544 90 l 499 0 m 300 1193 q 398 1155 360 1193 q 436 1060 436 1117 q 408 985 436 1019 q 339 929 381 950 q 258 908 297 908 q 162 947 200 908 q 124 1042 124 985 q 151 1117 124 1082 q 220 1172 179 1151 q 300 1193 261 1193 z "},"ı":{"ha":567,"x_min":60,"x_max":544,"o":"m 499 0 l 60 0 l 60 78 l 183 182 l 183 504 l 60 586 l 60 664 l 332 775 l 419 775 l 419 132 l 544 90 l 499 0 z "},"í":{"ha":567,"x_min":60,"x_max":603,"o":"m 499 0 l 60 0 l 60 78 l 183 182 l 183 504 l 60 586 l 60 664 l 332 775 l 419 775 l 419 132 l 544 90 l 499 0 m 603 1144 l 244 929 l 164 967 l 313 1239 l 568 1213 l 603 1144 z "},"î":{"ha":567,"x_min":-62,"x_max":635,"o":"m 499 0 l 60 0 l 60 78 l 183 182 l 183 504 l 60 586 l 60 664 l 332 775 l 419 775 l 419 132 l 544 90 l 499 0 m 600 944 l 350 918 l 236 1086 l -8 921 l -62 1004 l 272 1231 l 635 1013 l 600 944 z "},"ï":{"ha":567,"x_min":-57,"x_max":624,"o":"m 214 1071 q 190 1003 214 1035 q 131 951 167 971 q 61 932 94 932 q -23 967 11 932 q -57 1054 -57 1003 q -33 1124 -57 1092 q 26 1175 -10 1156 q 96 1194 63 1194 q 181 1159 149 1194 q 214 1071 214 1124 m 506 1194 q 591 1159 558 1194 q 624 1071 624 1124 q 600 1003 624 1035 q 540 951 576 971 q 471 932 504 932 q 387 967 421 932 q 353 1054 353 1003 q 376 1124 353 1092 q 436 1175 400 1156 q 506 1194 472 1194 m 544 90 l 499 0 l 60 0 l 60 78 l 183 182 l 183 504 l 60 586 l 60 664 l 332 775 l 419 775 l 419 132 l 544 90 z "},"ì":{"ha":567,"x_min":-39,"x_max":544,"o":"m 499 0 l 60 0 l 60 78 l 183 182 l 183 504 l 60 586 l 60 664 l 332 775 l 419 775 l 419 132 l 544 90 l 499 0 m 321 929 l -39 1144 l -4 1213 l 251 1239 l 400 967 l 321 929 z "},"ĳ":{"ha":1103,"x_min":60,"x_max":982,"o":"m 258 908 q 162 947 200 908 q 124 1042 124 985 q 151 1117 124 1082 q 220 1172 179 1151 q 300 1193 261 1193 q 398 1155 360 1193 q 436 1060 436 1117 q 408 985 436 1019 q 339 929 381 950 q 258 908 297 908 m 804 897 q 708 935 746 897 q 669 1031 669 974 q 697 1106 669 1071 q 766 1161 725 1140 q 846 1182 807 1182 q 944 1144 906 1182 q 982 1049 982 1106 q 954 974 982 1008 q 885 918 926 939 q 804 897 843 897 m 544 90 l 499 0 l 60 0 l 60 78 l 183 182 l 183 504 l 60 586 l 60 664 l 332 775 l 419 775 l 419 132 l 544 90 m 965 138 q 969 35 965 82 q 978 -28 972 -11 l 676 -367 l 589 -299 q 701 -131 672 -200 q 729 42 729 -61 l 729 522 l 606 608 l 606 686 l 878 775 l 965 775 l 965 138 z "},"ī":{"ha":567,"x_min":-44,"x_max":606,"o":"m 499 0 l 60 0 l 60 78 l 183 182 l 183 504 l 60 586 l 60 664 l 332 775 l 419 775 l 419 132 l 544 90 l 499 0 m -44 1121 l 606 1121 l 606 1026 l -44 1026 l -44 1121 z "},"į":{"ha":567,"x_min":60,"x_max":544,"o":"m 258 908 q 162 947 200 908 q 124 1042 124 985 q 151 1117 124 1082 q 220 1172 179 1151 q 300 1193 261 1193 q 398 1155 360 1193 q 436 1060 436 1117 q 408 985 436 1019 q 339 929 381 950 q 258 908 297 908 m 499 0 q 426 -142 426 -94 q 442 -178 426 -165 q 493 -193 458 -192 l 493 -281 l 385 -367 q 192 -206 192 -329 q 203 -147 192 -169 l 388 0 l 60 0 l 60 78 l 183 182 l 183 504 l 60 586 l 60 664 l 332 775 l 419 775 l 419 132 l 544 90 l 499 0 z "},"j":{"ha":536,"x_min":22,"x_max":415,"o":"m 399 138 q 402 35 399 82 q 411 -28 406 -11 l 110 -367 l 22 -299 q 134 -131 106 -200 q 163 42 163 -61 l 163 522 l 39 608 l 39 686 l 311 775 l 399 775 l 399 138 m 279 1182 q 377 1144 339 1182 q 415 1049 415 1106 q 388 974 415 1008 q 318 918 360 939 q 238 897 276 897 q 141 935 179 897 q 103 1031 103 974 q 131 1106 103 1071 q 199 1161 158 1140 q 279 1182 240 1182 z "},"ȷ":{"ha":536,"x_min":22,"x_max":411,"o":"m 399 138 q 402 35 399 82 q 411 -28 406 -11 l 110 -367 l 22 -299 q 134 -131 106 -200 q 163 42 163 -61 l 163 522 l 39 608 l 39 686 l 311 775 l 399 775 l 399 138 z "},"k":{"ha":1018,"x_min":32,"x_max":1004,"o":"m 517 90 l 471 0 l 32 0 l 32 78 l 156 182 l 156 942 l 32 1024 l 32 1101 l 304 1213 l 392 1213 l 392 132 l 517 90 m 960 1 l 672 1 l 446 374 l 690 568 l 521 660 l 565 750 l 967 750 l 967 672 l 679 436 l 867 144 l 1004 92 l 960 1 z "},"ķ":{"ha":1018,"x_min":32,"x_max":1004,"o":"m 517 90 l 471 0 l 32 0 l 32 78 l 156 182 l 156 942 l 32 1024 l 32 1101 l 304 1213 l 392 1213 l 392 132 l 517 90 m 960 1 l 672 1 l 446 374 l 690 568 l 521 660 l 565 750 l 967 750 l 967 672 l 679 436 l 867 144 l 1004 92 l 960 1 m 726 -193 l 549 -422 l 433 -422 l 475 -275 l 353 -206 l 397 -115 l 726 -115 l 726 -193 z "},"l":{"ha":539,"x_min":32,"x_max":517,"o":"m 471 0 l 32 0 l 32 78 l 156 182 l 156 942 l 32 1024 l 32 1101 l 304 1213 l 392 1213 l 392 132 l 517 90 l 471 0 z "},"ĺ":{"ha":539,"x_min":32,"x_max":589,"o":"m 471 0 l 32 0 l 32 78 l 156 182 l 156 942 l 32 1024 l 32 1101 l 304 1213 l 392 1213 l 392 132 l 517 90 l 471 0 m 589 1540 l 231 1325 l 150 1363 l 299 1635 l 554 1608 l 589 1540 z "},"ľ":{"ha":539,"x_min":32,"x_max":761,"o":"m 471 0 l 32 0 l 32 78 l 156 182 l 156 942 l 32 1024 l 32 1101 l 304 1213 l 392 1213 l 392 132 l 517 90 l 471 0 m 761 974 l 604 793 l 515 861 q 556 1003 550 933 l 482 1057 l 482 1135 l 672 1213 l 761 1213 l 761 974 z "},"ļ":{"ha":539,"x_min":32,"x_max":517,"o":"m 471 0 l 32 0 l 32 78 l 156 182 l 156 942 l 32 1024 l 32 1101 l 304 1213 l 392 1213 l 392 132 l 517 90 l 471 0 m 457 -193 l 279 -422 l 164 -422 l 206 -275 l 83 -206 l 128 -115 l 457 -115 l 457 -193 z "},"ŀ":{"ha":765,"x_min":32,"x_max":808,"o":"m 471 0 l 32 0 l 32 78 l 156 182 l 156 942 l 32 1024 l 32 1101 l 304 1213 l 392 1213 l 392 132 l 517 90 l 471 0 m 672 719 q 770 681 732 719 q 808 586 808 642 q 781 510 808 546 q 711 454 753 475 q 631 433 669 433 q 534 472 572 433 q 496 567 496 510 q 524 642 496 607 q 592 699 551 678 q 672 719 633 719 z "},"ł":{"ha":533,"x_min":-46,"x_max":579,"o":"m 392 132 l 517 90 l 471 0 l 32 0 l 32 78 l 156 182 l 156 507 l -46 324 l -46 436 l 156 626 l 156 942 l 32 1024 l 32 1101 l 304 1213 l 392 1213 l 392 768 l 579 947 l 579 821 l 392 643 l 392 132 z "},"m":{"ha":1461,"x_min":58,"x_max":1442,"o":"m 1397 0 l 1081 0 l 1081 461 q 1063 541 1081 518 q 1000 564 1046 564 q 867 517 932 564 l 867 129 l 983 90 l 939 0 l 631 0 l 631 461 q 613 541 631 518 q 550 564 596 564 q 418 517 482 564 l 418 129 l 533 90 l 489 0 l 58 0 l 58 78 l 182 182 l 182 497 l 58 575 l 58 653 l 347 775 l 401 614 l 568 751 q 644 763 601 763 q 783 724 726 763 q 858 619 839 686 l 1019 751 q 1096 763 1053 763 q 1258 705 1197 763 q 1318 549 1318 647 l 1318 132 l 1442 90 l 1397 0 z "},"n":{"ha":1033,"x_min":60,"x_max":1017,"o":"m 971 0 l 656 0 l 656 444 q 635 537 656 510 q 565 564 615 564 q 419 517 492 564 l 419 132 l 544 90 l 499 0 l 60 0 l 60 78 l 183 182 l 183 497 l 60 575 l 60 653 l 349 775 l 403 614 l 575 751 q 660 763 613 763 q 828 705 765 763 q 892 549 892 647 l 892 132 l 1017 90 l 971 0 z "},"ń":{"ha":1033,"x_min":60,"x_max":1017,"o":"m 971 0 l 656 0 l 656 444 q 635 537 656 510 q 565 564 615 564 q 419 517 492 564 l 419 132 l 544 90 l 499 0 l 60 0 l 60 78 l 183 182 l 183 497 l 60 575 l 60 653 l 349 775 l 403 614 l 575 751 q 660 763 613 763 q 828 705 765 763 q 892 549 892 647 l 892 132 l 1017 90 l 971 0 m 825 1144 l 467 929 l 386 967 l 535 1239 l 790 1213 l 825 1144 z "},"ň":{"ha":1033,"x_min":60,"x_max":1017,"o":"m 971 0 l 656 0 l 656 444 q 635 537 656 510 q 565 564 615 564 q 419 517 492 564 l 419 132 l 544 90 l 499 0 l 60 0 l 60 78 l 183 182 l 183 497 l 60 575 l 60 653 l 349 775 l 403 614 l 575 751 q 660 763 613 763 q 828 705 765 763 q 892 549 892 647 l 892 132 l 1017 90 l 971 0 m 513 926 l 150 1144 l 185 1213 l 435 1239 l 549 1071 l 793 1236 l 847 1153 l 513 926 z "},"ņ":{"ha":1033,"x_min":60,"x_max":1017,"o":"m 971 0 l 656 0 l 656 444 q 635 537 656 510 q 565 564 615 564 q 419 517 492 564 l 419 132 l 544 90 l 499 0 l 60 0 l 60 78 l 183 182 l 183 497 l 60 575 l 60 653 l 349 775 l 403 614 l 575 751 q 660 763 613 763 q 828 705 765 763 q 892 549 892 647 l 892 132 l 1017 90 l 971 0 m 749 -193 l 571 -422 l 456 -422 l 497 -275 l 375 -206 l 419 -115 l 749 -115 l 749 -193 z "},"ŋ":{"ha":1028,"x_min":60,"x_max":904,"o":"m 892 138 q 895 35 892 82 q 904 -28 899 -11 l 603 -367 l 515 -299 q 627 -131 599 -200 q 656 42 656 -61 l 656 444 q 635 537 656 510 q 565 564 615 564 q 419 517 492 564 l 419 132 l 544 90 l 499 0 l 60 0 l 60 78 l 183 182 l 183 497 l 60 575 l 60 653 l 349 775 l 403 614 l 575 751 q 660 763 613 763 q 828 705 765 763 q 892 549 892 647 l 892 138 z "},"ñ":{"ha":1033,"x_min":60,"x_max":1017,"o":"m 971 0 l 656 0 l 656 444 q 635 537 656 510 q 565 564 615 564 q 419 517 492 564 l 419 132 l 544 90 l 499 0 l 60 0 l 60 78 l 183 182 l 183 497 l 60 575 l 60 653 l 349 775 l 403 614 l 575 751 q 660 763 613 763 q 828 705 765 763 q 892 549 892 647 l 892 132 l 1017 90 l 971 0 m 468 1253 q 571 1164 528 1192 q 650 1136 614 1136 q 714 1157 682 1136 l 785 1203 l 839 1119 l 536 919 q 431 1010 474 982 q 354 1038 389 1038 q 289 1014 324 1038 l 219 969 l 165 1053 l 468 1253 z "},"o":{"ha":967,"x_min":81,"x_max":888,"o":"m 533 763 q 717 715 636 763 q 842 583 797 667 q 888 399 888 500 q 817 194 888 289 q 640 42 746 99 q 435 -14 533 -14 q 252 34 333 -14 q 126 165 171 82 q 81 350 81 249 q 151 555 81 460 q 328 706 222 650 q 533 763 435 763 m 453 601 q 365 555 394 601 q 335 417 335 508 q 382 223 335 300 q 515 146 429 146 q 602 194 572 146 q 632 333 632 242 q 585 526 632 450 q 453 601 538 601 z "},"ó":{"ha":967,"x_min":81,"x_max":888,"o":"m 533 763 q 717 715 636 763 q 842 583 797 667 q 888 399 888 500 q 817 194 888 289 q 640 42 746 99 q 435 -14 533 -14 q 252 34 333 -14 q 126 165 171 82 q 81 350 81 249 q 151 555 81 460 q 328 706 222 650 q 533 763 435 763 m 453 601 q 365 555 394 601 q 335 417 335 508 q 382 223 335 300 q 515 146 429 146 q 602 194 572 146 q 632 333 632 242 q 585 526 632 450 q 453 601 538 601 m 806 1144 l 447 929 l 367 967 l 515 1239 l 771 1213 l 806 1144 z "},"ô":{"ha":967,"x_min":81,"x_max":888,"o":"m 533 763 q 717 715 636 763 q 842 583 797 667 q 888 399 888 500 q 817 194 888 289 q 640 42 746 99 q 435 -14 533 -14 q 252 34 333 -14 q 126 165 171 82 q 81 350 81 249 q 151 555 81 460 q 328 706 222 650 q 533 763 435 763 m 453 601 q 365 555 394 601 q 335 417 335 508 q 382 223 335 300 q 515 146 429 146 q 602 194 572 146 q 632 333 632 242 q 585 526 632 450 q 453 601 538 601 m 804 944 l 554 918 l 440 1086 l 196 921 l 142 1004 l 476 1231 l 839 1013 l 804 944 z "},"ö":{"ha":967,"x_min":81,"x_max":888,"o":"m 299 1194 q 384 1159 351 1194 q 417 1071 417 1124 q 393 1003 417 1035 q 333 951 369 971 q 264 932 297 932 q 180 967 214 932 q 146 1054 146 1003 q 169 1124 146 1092 q 229 1175 193 1156 q 299 1194 265 1194 m 708 1194 q 794 1159 761 1194 q 826 1071 826 1124 q 803 1003 826 1035 q 743 951 779 971 q 674 932 707 932 q 590 967 624 932 q 556 1054 556 1003 q 579 1124 556 1092 q 639 1175 603 1156 q 708 1194 675 1194 m 533 763 q 717 715 636 763 q 842 583 797 667 q 888 399 888 500 q 817 194 888 289 q 640 42 746 99 q 435 -14 533 -14 q 252 34 333 -14 q 126 165 171 82 q 81 350 81 249 q 151 555 81 460 q 328 706 222 650 q 533 763 435 763 m 453 601 q 365 555 394 601 q 335 417 335 508 q 382 223 335 300 q 515 146 429 146 q 602 194 572 146 q 632 333 632 242 q 585 526 632 450 q 453 601 538 601 z "},"ò":{"ha":967,"x_min":81,"x_max":888,"o":"m 533 763 q 717 715 636 763 q 842 583 797 667 q 888 399 888 500 q 817 194 888 289 q 640 42 746 99 q 435 -14 533 -14 q 252 34 333 -14 q 126 165 171 82 q 81 350 81 249 q 151 555 81 460 q 328 706 222 650 q 533 763 435 763 m 453 601 q 365 555 394 601 q 335 417 335 508 q 382 223 335 300 q 515 146 429 146 q 602 194 572 146 q 632 333 632 242 q 585 526 632 450 q 453 601 538 601 m 525 929 l 165 1144 l 200 1213 l 456 1239 l 604 967 l 525 929 z "},"ő":{"ha":967,"x_min":81,"x_max":981,"o":"m 533 763 q 717 715 636 763 q 842 583 797 667 q 888 399 888 500 q 817 194 888 289 q 640 42 746 99 q 435 -14 533 -14 q 252 34 333 -14 q 126 165 171 82 q 81 350 81 249 q 151 555 81 460 q 328 706 222 650 q 533 763 435 763 m 453 601 q 365 555 394 601 q 335 417 335 508 q 382 223 335 300 q 515 146 429 146 q 602 194 572 146 q 632 333 632 242 q 585 526 632 450 q 453 601 538 601 m 572 1144 l 268 929 l 189 967 l 294 1239 l 538 1213 l 572 1144 m 981 1144 l 676 929 l 597 967 l 703 1239 l 946 1213 l 981 1144 z "},"ō":{"ha":967,"x_min":81,"x_max":888,"o":"m 533 763 q 717 715 636 763 q 842 583 797 667 q 888 399 888 500 q 817 194 888 289 q 640 42 746 99 q 435 -14 533 -14 q 252 34 333 -14 q 126 165 171 82 q 81 350 81 249 q 151 555 81 460 q 328 706 222 650 q 533 763 435 763 m 453 601 q 365 555 394 601 q 335 417 335 508 q 382 223 335 300 q 515 146 429 146 q 602 194 572 146 q 632 333 632 242 q 585 526 632 450 q 453 601 538 601 m 160 1121 l 810 1121 l 810 1026 l 160 1026 l 160 1121 z "},"ø":{"ha":967,"x_min":81,"x_max":886,"o":"m 726 706 q 844 576 801 657 q 886 397 886 496 q 815 192 886 288 q 638 41 744 97 q 433 -15 532 -15 q 321 1 374 -15 l 196 -214 l 117 -168 l 238 42 q 122 171 164 90 q 81 350 81 251 q 151 555 81 460 q 328 706 222 650 q 533 763 435 763 q 644 746 593 763 l 768 961 l 849 915 l 728 707 l 726 706 m 333 414 q 363 257 333 324 l 543 569 q 451 600 504 600 q 363 553 393 600 q 333 415 333 507 l 333 414 m 515 143 q 602 191 572 143 q 632 331 632 239 q 603 488 632 421 l 422 174 q 514 143 461 143 l 515 143 z "},"õ":{"ha":967,"x_min":81,"x_max":888,"o":"m 533 763 q 717 715 636 763 q 842 583 797 667 q 888 399 888 500 q 817 194 888 289 q 640 42 746 99 q 435 -14 533 -14 q 252 34 333 -14 q 126 165 171 82 q 81 350 81 249 q 151 555 81 460 q 328 706 222 650 q 533 763 435 763 m 453 601 q 365 555 394 601 q 335 417 335 508 q 382 223 335 300 q 515 146 429 146 q 602 194 572 146 q 632 333 632 242 q 585 526 632 450 q 453 601 538 601 m 449 1253 q 551 1164 508 1192 q 631 1136 594 1136 q 694 1157 663 1136 l 765 1203 l 819 1119 l 517 919 q 412 1010 454 982 q 335 1038 369 1038 q 269 1014 304 1038 l 200 969 l 146 1053 l 449 1253 z "},"œ":{"ha":1393,"x_min":81,"x_max":1314,"o":"m 1026 763 q 1239 651 1164 763 q 1311 343 1314 540 l 843 343 q 898 208 856 258 q 1007 157 940 157 q 1268 247 1097 157 l 1310 168 l 1110 7 q 926 -14 1031 -14 q 792 16 854 -14 q 685 100 729 46 q 552 17 624 47 q 415 -14 481 -14 q 243 34 319 -14 q 124 165 167 82 q 81 350 81 249 q 148 555 81 460 q 317 706 215 650 q 514 763 418 763 q 647 733 586 763 q 750 649 707 703 q 887 732 813 701 q 1029 763 961 763 l 1026 763 m 493 146 q 566 193 542 146 q 590 333 590 240 q 549 526 590 450 q 431 601 507 601 q 357 555 382 601 q 332 417 332 508 q 374 223 332 300 q 493 146 417 146 m 949 601 q 839 435 843 601 l 1071 435 q 1035 561 1061 521 q 949 601 1010 601 z "},"p":{"ha":1056,"x_min":60,"x_max":976,"o":"m 522 -14 q 419 15 465 -14 l 419 -207 l 631 -262 l 586 -353 l 60 -353 l 60 -275 l 183 -171 l 183 497 l 60 575 l 60 653 l 349 775 l 403 613 l 576 751 q 678 763 621 763 q 831 715 763 763 q 938 583 900 667 q 976 399 976 500 q 906 194 976 289 q 728 42 835 99 q 524 -14 622 -14 l 522 -14 m 589 569 q 502 558 543 569 q 418 518 461 547 l 418 299 q 466 190 418 233 q 603 146 514 146 q 694 193 663 146 q 725 332 725 240 q 690 503 725 436 q 590 569 656 569 l 589 569 z "},"þ":{"ha":1028,"x_min":32,"x_max":947,"o":"m 494 -12 q 392 15 439 -12 l 392 -207 l 603 -262 l 558 -353 l 32 -353 l 32 -275 l 156 -171 l 156 942 l 32 1024 l 32 1101 l 304 1213 l 392 1213 l 392 628 l 546 751 q 649 763 590 763 q 803 715 735 763 q 909 583 871 667 q 947 399 947 500 q 876 194 947 289 q 699 42 806 99 q 494 -14 593 -14 l 494 -12 m 563 576 q 476 565 517 576 q 392 525 435 554 l 392 279 q 447 185 400 222 q 575 147 494 147 q 697 333 697 147 q 663 508 697 439 q 564 576 629 576 l 563 576 z "},"q":{"ha":1014,"x_min":82,"x_max":1007,"o":"m 961 -351 l 426 -351 l 426 -274 l 638 -178 l 638 100 l 508 -3 q 401 -14 464 -14 q 237 34 310 -14 q 123 164 164 82 q 82 344 82 246 q 147 552 82 456 q 310 706 213 649 q 500 763 408 763 q 711 692 621 763 l 785 765 l 872 765 l 872 -226 l 1007 -261 l 961 -351 m 489 174 q 638 213 567 174 l 638 472 q 582 566 629 529 q 454 603 535 603 q 363 554 393 603 q 332 413 332 506 q 373 243 332 311 q 489 175 414 175 l 489 174 z "},"r":{"ha":790,"x_min":60,"x_max":793,"o":"m 519 565 q 419 521 469 565 l 419 146 l 631 90 l 586 0 l 60 0 l 60 78 l 183 182 l 183 497 l 60 575 l 60 653 l 349 775 l 401 621 l 528 751 q 596 763 557 763 q 720 729 668 763 q 793 638 772 696 l 660 471 l 572 471 q 558 542 571 521 q 519 564 546 564 l 519 565 z "},"ŕ":{"ha":790,"x_min":60,"x_max":793,"o":"m 519 565 q 419 521 469 565 l 419 146 l 631 90 l 586 0 l 60 0 l 60 78 l 183 182 l 183 497 l 60 575 l 60 653 l 349 775 l 401 621 l 528 751 q 596 763 557 763 q 720 729 668 763 q 793 638 772 696 l 660 471 l 572 471 q 558 542 571 521 q 519 564 546 564 l 519 565 m 749 1144 l 390 929 l 310 967 l 458 1239 l 714 1213 l 749 1144 z "},"ř":{"ha":790,"x_min":60,"x_max":793,"o":"m 519 565 q 419 521 469 565 l 419 146 l 631 90 l 586 0 l 60 0 l 60 78 l 183 182 l 183 497 l 60 575 l 60 653 l 349 775 l 401 621 l 528 751 q 596 763 557 763 q 720 729 668 763 q 793 638 772 696 l 660 471 l 572 471 q 558 542 571 521 q 519 564 546 564 l 519 565 m 436 926 l 74 1144 l 108 1213 l 358 1239 l 472 1071 l 717 1236 l 771 1153 l 436 926 z "},"ŗ":{"ha":790,"x_min":60,"x_max":793,"o":"m 519 565 q 419 521 469 565 l 419 146 l 631 90 l 586 0 l 60 0 l 60 78 l 183 182 l 183 497 l 60 575 l 60 653 l 349 775 l 401 621 l 528 751 q 596 763 557 763 q 720 729 668 763 q 793 638 772 696 l 660 471 l 572 471 q 558 542 571 521 q 519 564 546 564 l 519 565 m 496 -193 l 318 -422 l 203 -422 l 244 -275 l 122 -206 l 167 -115 l 496 -115 l 496 -193 z "},"s":{"ha":776,"x_min":83,"x_max":715,"o":"m 463 176 q 426 230 463 203 q 315 299 390 257 q 197 370 242 340 q 120 438 153 400 q 88 521 88 476 q 135 628 88 571 q 253 724 183 685 q 381 763 322 763 q 547 747 451 763 q 685 711 642 731 l 685 479 l 597 479 q 508 588 560 549 q 400 626 456 626 q 356 610 372 626 q 339 572 339 594 q 376 515 339 543 q 493 442 413 488 q 658 336 600 383 q 715 228 715 289 q 666 120 715 176 q 545 25 617 64 q 414 -14 474 -14 q 233 2 338 -14 q 83 38 128 18 l 83 278 l 171 278 q 274 163 213 204 q 394 122 335 122 q 444 138 425 122 q 463 176 463 154 z "},"ś":{"ha":776,"x_min":83,"x_max":724,"o":"m 463 176 q 426 230 463 203 q 315 299 390 257 q 197 370 242 340 q 120 438 153 400 q 88 521 88 476 q 135 628 88 571 q 253 724 183 685 q 381 763 322 763 q 547 747 451 763 q 685 711 642 731 l 685 479 l 597 479 q 508 588 560 549 q 400 626 456 626 q 356 610 372 626 q 339 572 339 594 q 376 515 339 543 q 493 442 413 488 q 658 336 600 383 q 715 228 715 289 q 666 120 715 176 q 545 25 617 64 q 414 -14 474 -14 q 233 2 338 -14 q 83 38 128 18 l 83 278 l 171 278 q 274 163 213 204 q 394 122 335 122 q 444 138 425 122 q 463 176 463 154 m 724 1144 l 365 929 l 285 967 l 433 1239 l 689 1213 l 724 1144 z "},"š":{"ha":776,"x_min":49,"x_max":746,"o":"m 463 176 q 426 230 463 203 q 315 299 390 257 q 197 370 242 340 q 120 438 153 400 q 88 521 88 476 q 135 628 88 571 q 253 724 183 685 q 381 763 322 763 q 547 747 451 763 q 685 711 642 731 l 685 479 l 597 479 q 508 588 560 549 q 400 626 456 626 q 356 610 372 626 q 339 572 339 594 q 376 515 339 543 q 493 442 413 488 q 658 336 600 383 q 715 228 715 289 q 666 120 715 176 q 545 25 617 64 q 414 -14 474 -14 q 233 2 338 -14 q 83 38 128 18 l 83 278 l 171 278 q 274 163 213 204 q 394 122 335 122 q 444 138 425 122 q 463 176 463 154 m 411 926 l 49 1144 l 83 1213 l 333 1239 l 447 1071 l 692 1236 l 746 1153 l 411 926 z "},"ş":{"ha":776,"x_min":83,"x_max":715,"o":"m 715 226 q 678 133 715 182 q 582 46 640 85 q 446 -76 535 -1 q 544 -153 518 -119 q 571 -228 571 -186 q 497 -326 571 -292 q 269 -367 422 -360 l 269 -289 q 342 -251 319 -272 q 364 -199 364 -229 q 347 -149 364 -171 q 282 -96 329 -126 q 381 -12 342 -46 q 214 6 304 -10 q 83 38 124 21 l 83 278 l 171 278 q 274 163 213 204 q 394 122 335 122 q 444 138 425 122 q 463 176 463 154 q 426 230 463 203 q 315 299 390 257 q 197 370 242 340 q 120 438 153 400 q 88 521 88 476 q 135 628 88 571 q 253 724 183 685 q 381 763 322 763 q 547 747 451 763 q 685 711 642 731 l 685 479 l 597 479 q 508 588 560 549 q 400 626 456 626 q 356 610 372 626 q 339 572 339 594 q 376 515 339 543 q 493 442 413 488 q 658 336 600 383 q 715 228 715 289 l 715 226 z "},"ș":{"ha":776,"x_min":83,"x_max":715,"o":"m 463 176 q 426 230 463 203 q 315 299 390 257 q 197 370 242 340 q 120 438 153 400 q 88 521 88 476 q 135 628 88 571 q 253 724 183 685 q 381 763 322 763 q 547 747 451 763 q 685 711 642 731 l 685 479 l 597 479 q 508 588 560 549 q 400 626 456 626 q 356 610 372 626 q 339 572 339 594 q 376 515 339 543 q 493 442 413 488 q 658 336 600 383 q 715 228 715 289 q 666 120 715 176 q 545 25 617 64 q 414 -14 474 -14 q 233 2 338 -14 q 83 38 128 18 l 83 278 l 171 278 q 274 163 213 204 q 394 122 335 122 q 444 138 425 122 q 463 176 463 154 m 583 -193 l 406 -422 l 290 -422 l 332 -275 l 210 -206 l 254 -115 l 583 -115 l 583 -193 z "},"ß":{"ha":1135,"x_min":35,"x_max":1074,"o":"m 761 665 q 797 578 761 617 q 904 486 832 539 q 993 415 960 444 q 1050 344 1026 385 q 1074 256 1074 304 q 1026 136 1074 200 q 908 29 978 72 q 782 -14 839 -14 q 642 -2 722 -14 q 528 24 561 10 l 528 264 l 615 264 q 695 160 647 197 q 789 122 743 122 q 831 141 815 122 q 847 186 847 160 q 817 246 847 217 q 725 322 788 275 q 629 399 665 367 q 567 473 593 431 q 540 564 540 515 q 564 652 540 613 q 633 744 588 692 q 690 819 672 790 q 708 881 708 849 q 684 962 708 915 q 622 1042 660 1008 q 547 1075 585 1075 q 435 886 435 1075 l 435 0 l 75 0 l 75 78 l 199 175 l 199 615 l 35 615 l 35 707 l 199 707 l 199 819 q 268 1020 199 926 q 442 1170 338 1114 q 644 1226 547 1226 q 773 1191 699 1226 q 901 1101 847 1156 q 954 993 954 1047 q 928 902 954 942 q 850 810 901 863 q 783 734 806 765 q 761 665 761 703 z "},"ſ":{"ha":678,"x_min":35,"x_max":794,"o":"m 593 1226 q 704 1214 642 1226 q 794 1186 767 1201 l 794 938 l 707 938 q 624 1034 674 999 q 525 1069 575 1069 q 447 1026 474 1069 q 419 901 419 983 l 419 146 l 631 90 l 586 0 l 60 0 l 60 78 l 183 182 l 183 615 l 35 615 l 35 707 l 183 707 l 183 814 q 247 1019 183 924 q 408 1170 311 1114 q 593 1226 504 1226 z "},"t":{"ha":685,"x_min":8,"x_max":668,"o":"m 528 -3 q 415 -14 481 -14 q 220 47 282 -14 q 158 233 158 107 l 158 615 l 8 615 l 8 689 l 307 1014 l 394 1014 l 394 707 l 644 707 l 644 615 l 394 615 l 394 243 q 503 147 394 147 q 558 156 531 147 q 626 188 585 165 l 668 108 l 528 -3 z "},"ŧ":{"ha":685,"x_min":8,"x_max":668,"o":"m 528 -3 q 415 -14 481 -14 q 220 47 282 -14 q 158 233 158 107 l 158 615 l 8 615 l 8 689 l 307 1014 l 394 1014 l 394 707 l 644 707 l 644 615 l 394 615 l 394 243 q 503 147 394 147 q 558 156 531 147 q 626 188 585 165 l 668 108 l 528 -3 m 326 522 l 326 522 l 326 522 l 326 522 l 326 522 z "},"ť":{"ha":685,"x_min":8,"x_max":765,"o":"m 528 -3 q 415 -14 481 -14 q 220 47 282 -14 q 158 233 158 107 l 158 615 l 8 615 l 8 689 l 307 1014 l 394 1014 l 394 707 l 644 707 l 644 615 l 394 615 l 394 243 q 503 147 394 147 q 558 156 531 147 q 626 188 585 165 l 668 108 l 528 -3 m 765 974 l 608 793 l 519 861 q 560 1003 554 933 l 486 1057 l 486 1135 l 676 1213 l 765 1213 l 765 974 z "},"ţ":{"ha":685,"x_min":8,"x_max":668,"o":"m 443 -79 q 542 -156 515 -122 q 568 -231 568 -189 q 494 -328 568 -294 q 267 -369 419 -362 l 267 -292 q 339 -253 317 -275 q 361 -201 361 -232 q 344 -151 361 -174 q 279 -99 326 -129 q 378 -15 339 -49 q 211 53 264 -7 q 158 231 158 113 l 158 613 l 8 613 l 8 686 l 307 1011 l 394 1011 l 394 704 l 644 704 l 644 613 l 394 613 l 394 240 q 503 144 394 144 q 558 153 531 144 q 626 185 585 163 l 668 106 l 528 -6 l 524 -6 q 442 -76 492 -33 l 443 -79 z "},"ț":{"ha":685,"x_min":8,"x_max":668,"o":"m 528 -3 q 415 -14 481 -14 q 220 47 282 -14 q 158 233 158 107 l 158 615 l 8 615 l 8 689 l 307 1014 l 394 1014 l 394 707 l 644 707 l 644 615 l 394 615 l 394 243 q 503 147 394 147 q 558 156 531 147 q 626 188 585 165 l 668 108 l 528 -3 m 579 -193 l 401 -422 l 286 -422 l 328 -275 l 206 -206 l 250 -115 l 579 -115 l 579 -193 z "},"u":{"ha":997,"x_min":24,"x_max":975,"o":"m 931 0 l 614 0 l 614 119 l 464 -4 q 379 -15 426 -15 q 210 42 272 -15 q 147 199 147 100 l 147 497 l 24 568 l 24 646 l 296 767 l 383 767 l 383 303 q 403 210 383 236 q 472 183 422 183 q 614 231 544 183 l 614 497 l 490 568 l 490 646 l 763 767 l 850 767 l 850 132 l 975 90 l 931 0 z "},"ú":{"ha":997,"x_min":24,"x_max":975,"o":"m 931 0 l 614 0 l 614 119 l 464 -4 q 379 -15 426 -15 q 210 42 272 -15 q 147 199 147 100 l 147 497 l 24 568 l 24 646 l 296 767 l 383 767 l 383 303 q 403 210 383 236 q 472 183 422 183 q 614 231 544 183 l 614 497 l 490 568 l 490 646 l 763 767 l 850 767 l 850 132 l 975 90 l 931 0 m 832 1144 l 474 929 l 393 967 l 542 1239 l 797 1213 l 832 1144 z "},"û":{"ha":997,"x_min":24,"x_max":975,"o":"m 931 0 l 614 0 l 614 119 l 464 -4 q 379 -15 426 -15 q 210 42 272 -15 q 147 199 147 100 l 147 497 l 24 568 l 24 646 l 296 767 l 383 767 l 383 303 q 403 210 383 236 q 472 183 422 183 q 614 231 544 183 l 614 497 l 490 568 l 490 646 l 763 767 l 850 767 l 850 132 l 975 90 l 931 0 m 831 944 l 581 918 l 467 1086 l 222 921 l 168 1004 l 503 1231 l 865 1013 l 831 944 z "},"ü":{"ha":997,"x_min":24,"x_max":975,"o":"m 290 932 q 206 967 240 932 q 172 1054 172 1003 q 196 1124 172 1092 q 256 1175 219 1156 q 325 1194 292 1194 q 410 1159 378 1194 q 443 1071 443 1124 q 419 1003 443 1035 q 360 951 396 971 q 290 932 324 932 m 700 932 q 616 967 650 932 q 582 1054 582 1003 q 606 1124 582 1092 q 665 1175 629 1156 q 735 1194 701 1194 q 820 1159 788 1194 q 853 1071 853 1124 q 829 1003 853 1035 q 769 951 806 971 q 700 932 733 932 m 931 0 l 614 0 l 614 119 l 464 -4 q 379 -15 426 -15 q 210 42 272 -15 q 147 199 147 100 l 147 497 l 24 568 l 24 646 l 296 767 l 383 767 l 383 303 q 403 210 383 236 q 472 183 422 183 q 614 231 544 183 l 614 497 l 490 568 l 490 646 l 763 767 l 850 767 l 850 132 l 975 90 l 931 0 z "},"ù":{"ha":997,"x_min":24,"x_max":975,"o":"m 931 0 l 614 0 l 614 119 l 464 -4 q 379 -15 426 -15 q 210 42 272 -15 q 147 199 147 100 l 147 497 l 24 568 l 24 646 l 296 767 l 383 767 l 383 303 q 403 210 383 236 q 472 183 422 183 q 614 231 544 183 l 614 497 l 490 568 l 490 646 l 763 767 l 850 767 l 850 132 l 975 90 l 931 0 m 551 929 l 192 1144 l 226 1213 l 482 1239 l 631 967 l 551 929 z "},"ű":{"ha":997,"x_min":24,"x_max":1007,"o":"m 931 0 l 614 0 l 614 119 l 464 -4 q 379 -15 426 -15 q 210 42 272 -15 q 147 199 147 100 l 147 497 l 24 568 l 24 646 l 296 767 l 383 767 l 383 303 q 403 210 383 236 q 472 183 422 183 q 614 231 544 183 l 614 497 l 490 568 l 490 646 l 763 767 l 850 767 l 850 132 l 975 90 l 931 0 m 599 1144 l 294 929 l 215 967 l 321 1239 l 564 1213 l 599 1144 m 1007 1144 l 703 929 l 624 967 l 729 1239 l 972 1213 l 1007 1144 z "},"ū":{"ha":997,"x_min":24,"x_max":975,"o":"m 931 0 l 614 0 l 614 119 l 464 -4 q 379 -15 426 -15 q 210 42 272 -15 q 147 199 147 100 l 147 497 l 24 568 l 24 646 l 296 767 l 383 767 l 383 303 q 403 210 383 236 q 472 183 422 183 q 614 231 544 183 l 614 497 l 490 568 l 490 646 l 763 767 l 850 767 l 850 132 l 975 90 l 931 0 m 186 1121 l 836 1121 l 836 1026 l 186 1026 l 186 1121 z "},"ų":{"ha":997,"x_min":24,"x_max":975,"o":"m 931 0 q 858 -142 858 -94 q 874 -178 858 -165 q 925 -193 890 -192 l 925 -281 l 817 -367 q 624 -206 624 -329 q 635 -147 624 -169 l 819 0 l 614 0 l 614 119 l 464 -4 q 379 -15 426 -15 q 210 42 272 -15 q 147 199 147 100 l 147 497 l 24 568 l 24 646 l 296 767 l 383 767 l 383 303 q 403 210 383 236 q 472 183 422 183 q 614 231 544 183 l 614 497 l 490 568 l 490 646 l 763 767 l 850 767 l 850 132 l 975 90 l 931 0 z "},"ů":{"ha":997,"x_min":24,"x_max":975,"o":"m 931 0 l 614 0 l 614 119 l 464 -4 q 379 -15 426 -15 q 210 42 272 -15 q 147 199 147 100 l 147 497 l 24 568 l 24 646 l 296 767 l 383 767 l 383 303 q 403 210 383 236 q 472 183 422 183 q 614 231 544 183 l 614 497 l 490 568 l 490 646 l 763 767 l 850 767 l 850 132 l 975 90 l 931 0 m 560 1235 q 694 1193 640 1235 q 747 1090 747 1151 q 703 995 747 1040 q 592 924 658 950 q 461 897 525 897 q 328 939 382 897 q 274 1042 274 981 q 318 1137 274 1092 q 429 1208 363 1182 q 560 1235 496 1235 m 479 1149 q 438 1136 453 1149 q 424 1100 424 1124 q 455 1017 424 1050 q 542 985 486 985 q 584 997 569 985 q 599 1033 599 1010 q 567 1116 599 1083 q 479 1149 536 1149 z "},"v":{"ha":904,"x_min":-6,"x_max":867,"o":"m 867 671 l 511 0 l 336 0 l 129 503 l -6 581 l -6 658 l 301 775 l 354 565 l 506 196 l 674 524 l 475 658 l 519 749 l 867 749 l 867 671 z "},"w":{"ha":1326,"x_min":-6,"x_max":1290,"o":"m 1290 671 l 967 0 l 792 0 l 669 299 l 511 0 l 336 0 l 129 503 l -6 581 l -6 658 l 301 775 l 354 565 l 506 197 l 618 422 l 586 501 l 450 581 l 450 658 l 757 775 l 810 565 l 960 204 l 1104 519 l 897 658 l 943 749 l 1290 749 l 1290 671 z "},"ẃ":{"ha":1326,"x_min":-6,"x_max":1290,"o":"m 1290 671 l 967 0 l 792 0 l 669 299 l 511 0 l 336 0 l 129 503 l -6 581 l -6 658 l 301 775 l 354 565 l 506 197 l 618 422 l 586 501 l 450 581 l 450 658 l 757 775 l 810 565 l 960 204 l 1104 519 l 897 658 l 943 749 l 1290 749 l 1290 671 m 981 1144 l 622 929 l 542 967 l 690 1239 l 946 1213 l 981 1144 z "},"ŵ":{"ha":1326,"x_min":-6,"x_max":1290,"o":"m 1290 671 l 967 0 l 792 0 l 669 299 l 511 0 l 336 0 l 129 503 l -6 581 l -6 658 l 301 775 l 354 565 l 506 197 l 618 422 l 586 501 l 450 581 l 450 658 l 757 775 l 810 565 l 960 204 l 1104 519 l 897 658 l 943 749 l 1290 749 l 1290 671 m 979 944 l 729 918 l 615 1086 l 371 921 l 317 1004 l 651 1231 l 1014 1013 l 979 944 z "},"ẅ":{"ha":1326,"x_min":-6,"x_max":1290,"o":"m 439 932 q 355 967 389 932 q 321 1054 321 1003 q 344 1124 321 1092 q 404 1175 368 1156 q 474 1194 440 1194 q 559 1159 526 1194 q 592 1071 592 1124 q 568 1003 592 1035 q 508 951 544 971 q 439 932 472 932 m 849 932 q 765 967 799 932 q 731 1054 731 1003 q 754 1124 731 1092 q 814 1175 778 1156 q 883 1194 850 1194 q 969 1159 936 1194 q 1001 1071 1001 1124 q 978 1003 1001 1035 q 918 951 954 971 q 849 932 882 932 m 1290 671 l 967 0 l 792 0 l 669 299 l 511 0 l 336 0 l 129 503 l -6 581 l -6 658 l 301 775 l 354 565 l 506 197 l 618 422 l 586 501 l 450 581 l 450 658 l 757 775 l 810 565 l 960 204 l 1104 519 l 897 658 l 943 749 l 1290 749 l 1290 671 z "},"ẁ":{"ha":1326,"x_min":-6,"x_max":1290,"o":"m 1290 671 l 967 0 l 792 0 l 669 299 l 511 0 l 336 0 l 129 503 l -6 581 l -6 658 l 301 775 l 354 565 l 506 197 l 618 422 l 586 501 l 450 581 l 450 658 l 757 775 l 810 565 l 960 204 l 1104 519 l 897 658 l 943 749 l 1290 749 l 1290 671 m 700 929 l 340 1144 l 375 1213 l 631 1239 l 779 967 l 700 929 z "},"x":{"ha":919,"x_min":17,"x_max":900,"o":"m 854 -3 l 588 -3 l 392 269 l 269 157 l 394 88 l 349 -3 l 28 -3 l 28 75 l 333 349 l 150 588 l 17 657 l 61 747 l 329 747 l 529 481 l 646 589 l 521 658 l 565 749 l 888 749 l 888 671 l 583 399 l 754 176 l 900 88 l 854 -3 z "},"y":{"ha":904,"x_min":-6,"x_max":867,"o":"m 867 672 l 511 1 l 185 -365 l 97 -297 q 242 -85 200 -174 q 289 117 283 3 l 129 503 l -6 581 l -6 658 l 301 775 l 354 565 l 506 196 l 674 524 l 475 658 l 519 749 l 867 750 l 867 672 z "},"ý":{"ha":904,"x_min":-6,"x_max":867,"o":"m 867 672 l 511 1 l 185 -365 l 97 -297 q 242 -85 200 -174 q 289 117 283 3 l 129 503 l -6 581 l -6 658 l 301 775 l 354 565 l 506 196 l 674 524 l 475 658 l 519 749 l 867 750 l 867 672 m 764 1144 l 406 929 l 325 967 l 474 1239 l 729 1213 l 764 1144 z "},"ŷ":{"ha":904,"x_min":-6,"x_max":867,"o":"m 867 672 l 511 1 l 185 -365 l 97 -297 q 242 -85 200 -174 q 289 117 283 3 l 129 503 l -6 581 l -6 658 l 301 775 l 354 565 l 506 196 l 674 524 l 475 658 l 519 749 l 867 750 l 867 672 m 763 944 l 513 918 l 399 1086 l 154 921 l 100 1004 l 435 1231 l 797 1013 l 763 944 z "},"ÿ":{"ha":904,"x_min":-6,"x_max":867,"o":"m 222 932 q 138 967 172 932 q 104 1054 104 1003 q 128 1124 104 1092 q 188 1175 151 1156 q 257 1194 224 1194 q 342 1159 310 1194 q 375 1071 375 1124 q 351 1003 375 1035 q 292 951 328 971 q 222 932 256 932 m 632 932 q 548 967 582 932 q 514 1054 514 1003 q 538 1124 514 1092 q 597 1175 561 1156 q 667 1194 633 1194 q 752 1159 719 1194 q 785 1071 785 1124 q 761 1003 785 1035 q 701 951 738 971 q 632 932 665 932 m 867 672 l 511 1 l 185 -365 l 97 -297 q 242 -85 200 -174 q 289 117 283 3 l 129 503 l -6 581 l -6 658 l 301 775 l 354 565 l 506 196 l 674 524 l 475 658 l 519 749 l 867 750 l 867 672 z "},"ỳ":{"ha":904,"x_min":-6,"x_max":867,"o":"m 867 672 l 511 1 l 185 -365 l 97 -297 q 242 -85 200 -174 q 289 117 283 3 l 129 503 l -6 581 l -6 658 l 301 775 l 354 565 l 506 196 l 674 524 l 475 658 l 519 749 l 867 750 l 867 672 m 483 929 l 124 1144 l 158 1213 l 414 1239 l 563 967 l 483 929 z "},"z":{"ha":896,"x_min":88,"x_max":808,"o":"m 660 236 l 717 358 l 793 336 l 793 -25 l 682 0 l 88 0 l 88 88 l 514 513 l 232 513 l 179 403 l 103 426 l 103 774 l 214 749 l 808 749 l 808 661 l 382 236 l 660 236 z "},"ź":{"ha":896,"x_min":88,"x_max":808,"o":"m 660 236 l 717 358 l 793 336 l 793 -25 l 682 0 l 88 0 l 88 88 l 514 513 l 232 513 l 179 403 l 103 426 l 103 774 l 214 749 l 808 749 l 808 661 l 382 236 l 660 236 m 779 1144 l 421 929 l 340 967 l 489 1239 l 744 1213 l 779 1144 z "},"ž":{"ha":896,"x_min":88,"x_max":808,"o":"m 660 236 l 717 358 l 793 336 l 793 -25 l 682 0 l 88 0 l 88 88 l 514 513 l 232 513 l 179 403 l 103 426 l 103 774 l 214 749 l 808 749 l 808 661 l 382 236 l 660 236 m 467 926 l 104 1144 l 139 1213 l 389 1239 l 503 1071 l 747 1236 l 801 1153 l 467 926 z "},"ż":{"ha":896,"x_min":88,"x_max":808,"o":"m 660 236 l 717 358 l 793 336 l 793 -25 l 682 0 l 88 0 l 88 88 l 514 513 l 232 513 l 179 403 l 103 426 l 103 774 l 214 749 l 808 749 l 808 661 l 382 236 l 660 236 m 476 1193 q 574 1155 536 1193 q 613 1060 613 1117 q 585 985 613 1019 q 515 929 557 950 q 435 908 474 908 q 338 947 376 908 q 300 1042 300 985 q 328 1117 300 1082 q 397 1172 356 1151 q 476 1193 438 1193 z "},"ﬁ":{"ha":1132,"x_min":35,"x_max":1110,"o":"m 1064 0 l 749 0 l 749 525 l 633 615 l 418 615 l 418 146 l 631 90 l 585 0 l 58 0 l 58 78 l 182 182 l 182 615 l 35 615 l 35 707 l 182 707 l 182 814 q 247 1019 182 924 q 408 1170 311 1114 q 593 1226 504 1226 q 785 1213 682 1226 q 928 1181 889 1200 q 982 1131 963 1163 q 1001 1060 1001 1099 q 974 985 1001 1019 q 904 929 946 950 q 824 908 863 908 q 700 983 754 908 q 631 1053 667 1036 q 524 1069 596 1069 q 446 1026 474 1069 q 418 901 418 983 l 418 707 l 650 707 l 897 775 l 985 775 l 985 132 l 1110 90 l 1064 0 z "},"ﬂ":{"ha":1132,"x_min":35,"x_max":1111,"o":"m 1065 0 l 750 0 l 750 963 q 655 1041 713 1013 q 540 1069 597 1069 q 452 1026 486 1069 q 418 901 418 982 l 418 707 l 651 707 l 651 615 l 418 615 l 418 146 l 631 90 l 585 0 l 58 0 l 58 78 l 182 182 l 182 615 l 35 615 l 35 707 l 182 707 l 182 814 q 249 1019 182 924 q 419 1170 317 1114 q 614 1226 521 1226 q 774 1222 683 1226 q 914 1213 864 1218 l 985 1213 l 985 132 l 1111 90 l 1065 0 z "},"ª":{"ha":797,"x_min":65,"x_max":781,"o":"m 742 576 l 472 576 l 472 667 l 339 574 q 280 566 315 566 q 117 615 167 566 q 66 733 66 664 q 95 812 66 773 q 176 885 123 851 l 472 885 l 472 902 q 437 987 472 960 q 343 1014 402 1014 q 127 957 260 1014 l 91 1016 l 255 1133 q 396 1148 315 1148 q 601 1095 528 1148 q 673 941 673 1042 l 673 681 l 779 644 l 742 576 m 340 706 q 472 749 400 706 l 472 816 l 282 816 q 269 793 273 803 q 265 768 265 782 q 285 724 265 742 q 340 707 306 707 l 340 706 z "},"º":{"ha":846,"x_min":79,"x_max":767,"o":"m 464 1148 q 620 1112 552 1148 q 727 1014 689 1076 q 765 875 765 951 q 705 722 765 793 q 555 608 645 650 q 381 566 464 566 q 225 602 294 566 q 118 700 156 638 q 80 839 80 763 q 140 993 80 921 q 290 1106 200 1064 q 464 1148 381 1148 m 396 1027 q 321 993 346 1027 q 296 889 296 958 q 336 744 296 801 q 449 686 376 686 q 523 722 497 686 q 548 826 548 758 q 508 971 548 914 q 396 1027 468 1027 z "},"Δ":{"ha":1211,"x_min":67,"x_max":1140,"o":"m 1140 0 l 67 0 l 67 79 l 469 1049 l 710 1119 l 1140 72 l 1140 0 m 536 900 l 208 106 l 861 106 l 536 900 z "},"Ω":{"ha":1343,"x_min":81,"x_max":1263,"o":"m 1235 290 l 1235 -26 l 1135 -1 l 719 -1 l 719 444 q 856 476 794 447 q 953 553 918 506 q 989 660 989 601 q 951 812 989 744 q 834 919 913 879 q 640 958 756 958 q 496 929 561 958 q 392 851 431 900 q 354 743 354 801 q 423 547 354 631 q 624 444 492 464 l 624 -1 l 208 -1 l 108 -26 l 108 290 l 185 321 l 356 104 l 417 104 l 417 307 q 172 448 264 349 q 81 676 81 547 q 182 897 81 794 q 434 1058 283 999 q 721 1118 585 1118 q 1004 1067 881 1118 q 1195 926 1128 1015 q 1263 725 1263 836 q 1166 511 1263 610 q 926 353 1069 413 l 926 106 l 986 106 l 1158 321 l 1235 290 z "},"μ":{"ha":975,"x_min":54,"x_max":918,"o":"m 838 251 q 860 168 838 214 q 918 82 882 122 l 689 -14 l 601 -14 l 601 119 l 451 -4 q 371 -15 414 -15 l 371 -87 q 392 -170 369 -124 q 451 -257 415 -217 l 222 -353 l 135 -353 l 135 501 q 113 585 135 539 q 54 671 90 631 l 283 767 l 371 767 l 371 303 q 390 210 371 236 q 460 183 410 183 q 601 231 532 183 l 601 501 q 579 585 601 539 q 521 671 557 631 l 750 767 l 838 767 l 838 251 z "},"π":{"ha":1092,"x_min":0,"x_max":1035,"o":"m 876 246 q 899 164 876 210 q 957 76 921 118 l 756 -14 l 668 -14 l 668 511 l 496 511 l 496 0 l 207 0 l 207 76 q 265 163 243 117 q 288 246 288 208 l 288 511 l 253 511 q 61 457 164 511 l 0 579 l 214 749 l 1035 749 l 1035 511 l 876 511 l 876 246 z "},"ॲ":{"ha":1503,"x_min":97,"x_max":1794,"o":"m 1415 889 l 1415 -17 l 1328 -17 l 1119 114 l 1179 189 l 1179 431 q 1091 390 1136 401 q 986 378 1046 378 q 900 386 944 378 q 845 288 893 336 q 726 210 797 240 q 585 181 656 181 q 520 184 558 181 q 453 192 482 188 l 97 419 l 158 496 l 242 443 q 356 386 297 404 q 479 368 414 368 q 599 400 546 369 q 651 472 651 431 q 613 545 651 508 q 483 632 575 582 l 483 719 q 563 782 535 743 q 592 865 592 821 q 533 929 592 929 q 428 892 485 929 q 321 789 371 854 l 132 901 l 132 989 q 277 1073 188 1040 q 447 1106 367 1106 q 633 1057 540 1106 q 783 933 725 1008 q 842 782 842 858 q 808 682 842 731 q 717 597 775 633 q 767 565 740 585 q 879 532 833 532 q 1034 590 957 532 q 1178 754 1111 647 l 1178 892 l 1076 892 l 888 1004 l 888 1092 l 1469 1092 l 1658 979 l 1660 889 l 1415 889 m 1088 1629 q 1078 1547 1078 1590 q 1121 1469 1078 1493 q 1254 1444 1164 1444 q 1433 1496 1360 1444 q 1539 1635 1506 1547 l 1590 1699 l 1794 1569 q 1715 1429 1776 1492 q 1558 1331 1654 1367 q 1344 1296 1461 1296 q 1097 1340 1218 1296 q 899 1456 975 1385 q 822 1600 822 1526 q 832 1678 822 1643 l 892 1753 l 1088 1629 z "},"ऄ":{"ha":1503,"x_min":-269,"x_max":1660,"o":"m 1415 889 l 1415 -17 l 1328 -17 l 1119 114 l 1179 189 l 1179 431 q 1091 390 1136 401 q 986 378 1046 378 q 900 386 944 378 q 845 288 893 336 q 726 210 797 240 q 585 181 656 181 q 520 184 558 181 q 453 192 482 188 l 97 419 l 158 496 l 242 443 q 356 386 297 404 q 479 368 414 368 q 599 400 546 369 q 651 472 651 431 q 613 545 651 508 q 483 632 575 582 l 483 719 q 563 782 535 743 q 592 865 592 821 q 533 929 592 929 q 428 892 485 929 q 321 789 371 854 l 132 901 l 132 989 q 277 1073 188 1040 q 447 1106 367 1106 q 633 1057 540 1106 q 783 933 725 1008 q 842 782 842 858 q 808 682 842 731 q 717 597 775 633 q 767 565 740 585 q 879 532 833 532 q 1034 590 957 532 q 1178 754 1111 647 l 1178 892 l 1076 892 l 888 1004 l 888 1092 l 1176 1092 l 1019 1222 q 864 1317 936 1290 q 714 1344 792 1344 q 564 1326 649 1344 q 485 1314 526 1319 q 401 1308 443 1308 q 178 1351 281 1308 q -40 1490 76 1393 l -269 1681 l -206 1754 l -54 1629 q 100 1535 26 1563 q 251 1507 174 1507 q 401 1525 317 1507 q 481 1538 439 1532 q 564 1543 522 1543 q 787 1501 685 1543 q 1006 1361 889 1458 l 1329 1092 l 1471 1092 l 1658 979 l 1660 889 l 1415 889 z "},"अ":{"ha":1503,"x_min":97,"x_max":1660,"o":"m 1415 889 l 1415 -17 l 1328 -17 l 1119 114 l 1179 189 l 1179 431 q 1091 390 1136 401 q 986 378 1046 378 q 900 386 944 378 q 845 288 893 336 q 726 210 797 240 q 585 181 656 181 q 520 184 558 181 q 453 192 482 188 l 97 419 l 158 496 l 242 443 q 356 386 297 404 q 479 368 414 368 q 599 400 546 369 q 651 472 651 431 q 613 545 651 508 q 483 632 575 582 l 483 719 q 563 782 535 743 q 592 865 592 821 q 533 929 592 929 q 428 892 485 929 q 321 789 371 854 l 132 901 l 132 989 q 277 1073 188 1040 q 447 1106 367 1106 q 633 1057 540 1106 q 783 933 725 1008 q 842 782 842 858 q 808 682 842 731 q 717 597 775 633 q 767 565 740 585 q 879 532 833 532 q 1034 590 957 532 q 1178 754 1111 647 l 1178 892 l 1076 892 l 888 1004 l 888 1092 l 1469 1092 l 1658 979 l 1660 889 l 1415 889 z "},"आ":{"ha":1986,"x_min":97,"x_max":2142,"o":"m 1897 889 l 1897 -17 l 1810 -17 l 1601 114 l 1661 189 l 1661 889 l 1415 889 l 1415 -17 l 1328 -17 l 1119 114 l 1179 189 l 1179 431 q 1091 390 1136 401 q 986 378 1046 378 q 900 386 944 378 q 845 288 893 336 q 726 210 797 240 q 585 181 656 181 q 520 184 558 181 q 453 192 482 188 l 97 419 l 158 496 l 242 443 q 356 386 297 404 q 479 368 414 368 q 599 400 546 369 q 651 472 651 431 q 613 545 651 508 q 483 632 575 582 l 483 719 q 563 782 535 743 q 592 865 592 821 q 533 929 592 929 q 428 892 485 929 q 321 789 371 854 l 132 901 l 132 989 q 277 1073 188 1040 q 447 1106 367 1106 q 633 1057 540 1106 q 783 933 725 1008 q 842 782 842 858 q 808 682 842 731 q 717 597 775 633 q 767 565 740 585 q 879 532 833 532 q 1034 590 957 532 q 1178 754 1111 647 l 1178 892 l 1076 892 l 888 1004 l 888 1092 l 1953 1092 l 2140 979 l 2142 889 l 1897 889 z "},"इ":{"ha":1092,"x_min":-156,"x_max":1342,"o":"m 575 608 q 503 583 533 608 q 474 524 474 558 q 494 469 474 496 q 588 501 551 492 q 658 510 625 510 q 851 460 750 510 q 1019 338 951 411 q 1088 200 1088 265 q 1019 99 1088 150 q 840 17 950 49 q 618 -15 731 -15 l 606 -15 l 733 -97 q 867 -154 793 -136 q 1019 -172 942 -172 q 1131 -160 1072 -172 l 1303 -262 l 1303 -350 q 1163 -368 1228 -368 q 953 -328 1050 -368 q 719 -201 856 -289 l 308 61 q 130 197 199 117 q 61 360 61 276 q 84 436 61 408 q 146 464 107 464 q 267 400 207 464 q 378 217 328 336 q 571 174 469 174 q 703 189 643 174 q 799 230 764 204 q 835 285 835 256 q 814 322 835 304 q 771 340 793 340 q 668 289 724 340 q 435 363 535 310 q 282 484 335 417 q 229 614 229 551 q 265 708 229 663 q 359 782 301 754 q 479 810 417 810 l 704 810 l 704 892 l 35 892 l -156 1004 l -156 1092 l 1151 1092 l 1342 979 l 1342 892 l 940 892 l 940 610 l 578 610 l 575 608 z "},"ई":{"ha":1092,"x_min":-156,"x_max":1342,"o":"m 575 608 q 503 583 533 608 q 474 524 474 558 q 494 469 474 496 q 588 501 551 492 q 658 510 625 510 q 851 460 750 510 q 1019 338 951 411 q 1088 200 1088 265 q 1019 99 1088 150 q 840 17 950 49 q 618 -15 731 -15 l 606 -15 l 733 -97 q 867 -154 793 -136 q 1019 -172 942 -172 q 1131 -160 1072 -172 l 1303 -262 l 1303 -350 q 1163 -368 1228 -368 q 953 -328 1050 -368 q 719 -201 856 -289 l 308 61 q 130 197 199 117 q 61 360 61 276 q 84 436 61 408 q 146 464 107 464 q 267 400 207 464 q 378 217 328 336 q 571 174 469 174 q 703 189 643 174 q 799 230 764 204 q 835 285 835 256 q 814 322 835 304 q 771 340 793 340 q 668 289 724 340 q 435 363 535 310 q 282 484 335 417 q 229 614 229 551 q 265 708 229 663 q 359 782 301 754 q 479 810 417 810 l 704 810 l 704 892 l 35 892 l -156 1004 l -156 1092 l 722 1092 l 460 1308 q 450 1425 450 1365 q 494 1607 450 1526 q 624 1735 538 1688 q 829 1782 710 1782 q 960 1771 886 1782 l 1168 1604 l 1126 1525 q 899 1599 996 1599 q 754 1538 804 1599 q 704 1374 704 1476 q 813 1142 704 1231 l 874 1092 l 1151 1092 l 1342 979 l 1342 892 l 940 892 l 940 610 l 578 610 l 575 608 z "},"उ":{"ha":921,"x_min":-162,"x_max":1024,"o":"m 622 892 q 699 714 699 804 q 672 611 699 660 q 600 529 646 563 q 835 384 750 460 q 919 242 919 308 q 862 128 919 189 q 719 27 804 68 q 560 -14 633 -14 q 422 -3 489 -14 l 36 254 l 96 331 l 208 251 q 461 174 322 174 q 565 192 517 174 q 642 238 614 210 q 671 296 671 267 q 643 363 671 333 q 538 433 615 393 q 293 544 460 474 l 293 632 q 398 699 353 651 q 443 792 443 747 q 396 892 443 872 l 28 892 l -162 1004 l -162 1092 l 833 1092 l 1024 979 l 1022 892 l 622 892 z "},"ऊ":{"ha":1575,"x_min":-162,"x_max":1750,"o":"m 624 892 q 700 714 700 804 q 674 611 700 660 q 601 529 647 563 l 660 500 l 681 526 q 788 653 743 608 q 897 728 832 699 q 1051 757 961 757 q 1243 711 1143 757 q 1410 587 1343 665 q 1476 418 1476 508 q 1408 257 1476 325 q 1228 172 1339 189 l 1046 285 l 1046 372 q 1113 365 1088 365 q 1192 400 1164 365 q 1221 493 1221 435 q 1201 574 1221 546 q 1143 601 1182 601 q 1058 580 1097 601 q 987 524 1019 558 q 903 428 954 490 q 853 368 886 406 q 919 242 919 301 q 862 128 919 189 q 719 27 804 68 q 560 -14 633 -14 q 422 -3 489 -14 l 36 254 l 96 331 l 208 251 q 461 174 322 174 q 565 192 517 174 q 642 238 614 210 q 671 296 671 267 q 643 363 671 333 q 538 433 615 393 q 293 544 460 474 l 293 632 q 398 699 353 651 q 443 792 443 747 q 396 892 443 872 l 28 892 l -162 1004 l -162 1092 l 1561 1092 l 1750 979 l 1750 892 l 624 892 z "},"ऋ":{"ha":1982,"x_min":-179,"x_max":2160,"o":"m 2160 893 l 1072 893 l 1072 -12 l 985 -12 l 776 118 l 836 193 l 836 349 q 522 165 699 251 l 333 278 l 333 365 q 672 524 519 433 q 607 558 638 547 q 544 568 576 568 q 399 536 475 568 q 222 436 322 504 l 50 540 l 50 628 q 262 726 188 699 q 400 753 336 753 q 538 728 471 753 q 700 628 606 704 l 761 579 q 838 633 799 603 l 838 892 l 8 892 l -179 1004 l -179 1092 l 1971 1092 l 2160 981 l 2160 893 m 1519 -15 q 1628 48 1575 -15 q 1719 219 1681 111 l 1901 108 l 1901 21 q 1769 -127 1836 -83 q 1613 -171 1701 -171 q 1419 -122 1519 -171 q 1253 8 1319 -74 q 1188 186 1188 90 q 1210 288 1188 240 q 1274 371 1232 335 q 1244 490 1251 431 q 1197 476 1219 476 q 1142 501 1174 476 q 1086 567 1111 526 l 1138 567 q 1167 547 1140 547 q 1203 649 1186 547 l 1244 556 q 1287 697 1250 633 q 1378 797 1324 761 q 1490 833 1433 833 q 1633 803 1554 833 q 1768 727 1713 774 q 1824 633 1824 681 q 1736 531 1824 572 q 1511 465 1649 489 q 1617 328 1526 397 l 1617 240 q 1550 247 1586 247 q 1469 210 1497 247 q 1442 107 1442 172 q 1461 14 1442 46 q 1519 -18 1481 -18 l 1519 -15 z "},"ॠ":{"ha":1982,"x_min":-179,"x_max":2160,"o":"m 2160 893 l 1072 893 l 1072 -12 l 985 -12 l 776 118 l 836 193 l 836 349 q 522 165 699 251 l 333 278 l 333 365 q 672 524 519 433 q 607 558 638 547 q 544 568 576 568 q 399 536 475 568 q 222 436 322 504 l 50 540 l 50 628 q 262 726 188 699 q 400 753 336 753 q 538 728 471 753 q 700 628 606 704 l 761 579 q 838 633 799 603 l 838 892 l 8 892 l -179 1004 l -179 1092 l 1971 1092 l 2160 981 l 2160 893 m 1578 -214 q 1740 -90 1672 -210 l 1922 -203 l 1922 -290 q 1830 -334 1879 -319 q 1718 -349 1781 -349 q 1503 -308 1608 -349 q 1333 -201 1399 -268 q 1267 -61 1267 -135 q 1361 71 1267 15 q 1265 140 1300 101 q 1231 222 1231 178 q 1290 338 1231 292 q 1246 490 1254 414 q 1199 476 1221 476 q 1144 501 1175 476 q 1088 567 1113 526 l 1139 567 q 1168 547 1142 547 q 1204 649 1188 547 l 1246 556 q 1288 697 1251 633 q 1380 797 1325 761 q 1492 833 1435 833 q 1635 803 1556 833 q 1769 727 1714 774 q 1825 633 1825 681 q 1738 531 1825 572 q 1513 465 1650 489 q 1558 381 1521 422 l 1700 297 l 1700 210 q 1624 219 1661 219 q 1525 198 1564 219 q 1486 144 1486 176 q 1490 124 1486 135 q 1517 129 1500 126 l 1688 49 l 1688 -39 q 1549 -74 1601 -40 q 1496 -162 1497 -107 q 1518 -200 1496 -186 q 1575 -214 1540 -214 l 1578 -214 z "},"ऌ":{"ha":1361,"x_min":-175,"x_max":1536,"o":"m 1021 717 q 1194 592 1125 671 q 1264 425 1264 513 q 1233 344 1264 382 q 1139 251 1201 306 q 1025 136 1064 186 q 986 24 986 86 q 1051 -68 986 -68 q 1207 104 1135 -68 l 1393 -8 l 1393 -96 q 1168 -207 1293 -207 q 981 -160 1076 -207 q 823 -37 886 -112 q 760 114 760 38 q 794 215 760 168 q 896 325 829 261 q 994 431 961 388 q 1026 524 1026 475 q 1006 593 1026 567 q 943 619 985 619 q 835 572 882 619 q 732 438 789 525 q 699 388 715 411 l 553 481 l 553 568 l 561 581 q 497 603 536 603 q 395 556 435 603 q 356 436 356 510 q 381 337 356 383 q 463 243 406 290 l 585 143 l 525 67 l 110 410 q 100 493 100 449 q 135 622 100 561 q 240 722 171 683 q 403 760 308 760 q 650 688 531 760 q 782 753 710 742 l 782 892 l 15 892 l -175 1004 l -175 1092 l 1347 1092 l 1536 979 l 1536 892 l 1021 894 l 1021 717 z "},"ॡ":{"ha":1361,"x_min":-175,"x_max":1536,"o":"m 1017 717 q 1190 592 1121 671 q 1260 421 1260 513 q 1230 341 1260 375 q 1143 263 1200 307 q 1070 200 1094 226 q 1046 142 1046 174 q 1054 108 1046 125 l 1193 31 l 1193 -57 q 1056 -87 1110 -56 q 1003 -168 1003 -119 q 1024 -212 1003 -197 q 1081 -226 1044 -226 q 1157 -197 1122 -226 q 1226 -111 1192 -167 l 1407 -224 l 1407 -311 q 1324 -349 1368 -337 q 1222 -360 1279 -360 q 1006 -320 1111 -360 q 835 -214 900 -281 q 769 -72 769 -147 q 799 16 769 -25 q 881 89 829 57 q 788 219 788 147 q 813 284 788 257 q 893 350 839 311 q 990 433 957 396 q 1022 528 1022 471 q 1001 594 1022 568 q 939 621 979 621 q 859 595 896 621 q 794 534 822 569 q 729 440 767 499 l 694 389 l 549 482 l 549 569 l 561 582 q 497 603 536 603 q 395 556 435 603 q 356 436 356 510 q 381 337 356 383 q 463 243 406 290 l 585 143 l 525 67 l 110 410 q 100 493 100 449 q 135 622 100 561 q 240 722 171 683 q 403 760 308 760 q 650 688 531 760 q 782 753 710 742 l 782 892 l 15 892 l -175 1004 l -175 1092 l 1347 1092 l 1536 979 l 1536 892 l 1017 893 l 1017 717 z "},"ऍ":{"ha":940,"x_min":-175,"x_max":1208,"o":"m 833 892 q 885 589 885 713 q 851 402 885 478 q 753 288 817 326 l 572 400 l 572 488 q 627 556 611 515 q 643 664 643 596 q 622 892 643 735 l 396 892 q 357 571 357 719 q 389 375 357 449 q 494 254 421 301 l 654 143 q 868 -81 810 44 q 931 -367 926 -206 l 843 -367 l 694 -306 q 656 -59 697 -171 q 522 114 614 53 l 332 242 q 163 400 210 321 q 115 582 115 479 q 163 892 115 699 l 19 892 l -175 1004 l -175 1092 l 906 1092 l 1096 979 l 1096 892 l 833 892 m 501 1629 q 492 1547 492 1590 q 535 1469 492 1493 q 668 1444 578 1444 q 847 1496 774 1444 q 953 1635 919 1547 l 1004 1699 l 1208 1569 q 1129 1429 1190 1492 q 972 1331 1068 1367 q 758 1296 875 1296 q 510 1340 632 1296 q 313 1456 389 1385 q 236 1600 236 1526 q 246 1678 236 1643 l 306 1753 l 501 1629 z "},"ऎ":{"ha":940,"x_min":-856,"x_max":1096,"o":"m 833 892 q 885 589 885 713 q 851 402 885 478 q 753 288 817 326 l 572 400 l 572 488 q 627 556 611 515 q 643 664 643 596 q 622 892 643 735 l 396 892 q 357 571 357 719 q 389 375 357 449 q 494 254 421 301 l 654 143 q 868 -81 810 44 q 931 -367 926 -206 l 843 -367 l 694 -306 q 656 -59 697 -171 q 522 114 614 53 l 332 242 q 163 400 210 321 q 115 582 115 479 q 163 892 115 699 l 19 892 l -175 1004 l -175 1092 l 590 1092 l 433 1222 q 278 1317 350 1290 q 128 1344 206 1344 q -22 1326 63 1344 q -101 1314 -60 1319 q -185 1308 -143 1308 q -408 1351 -306 1308 q -626 1490 -510 1393 l -856 1681 l -792 1754 l -640 1629 q -486 1535 -560 1563 q -335 1507 -412 1507 q -185 1525 -269 1507 q -106 1538 -147 1532 q -22 1543 -64 1543 q 201 1501 99 1543 q 419 1361 303 1458 l 743 1092 l 906 1092 l 1096 979 l 1096 892 l 833 892 z "},"ए":{"ha":940,"x_min":-175,"x_max":1096,"o":"m 833 892 q 885 589 885 713 q 851 402 885 478 q 753 288 817 326 l 572 400 l 572 488 q 627 556 611 515 q 643 664 643 596 q 622 892 643 735 l 396 892 q 357 571 357 719 q 389 375 357 449 q 494 254 421 301 l 654 143 q 868 -81 810 44 q 931 -367 926 -206 l 843 -367 l 694 -306 q 656 -59 697 -171 q 522 114 614 53 l 332 242 q 163 400 210 321 q 115 582 115 479 q 163 892 115 699 l 19 892 l -175 1004 l -175 1092 l 906 1092 l 1096 979 l 1096 892 l 833 892 z "},"ऐ":{"ha":940,"x_min":-293,"x_max":1096,"o":"m 833 892 q 885 589 885 713 q 851 402 885 478 q 753 288 817 326 l 572 400 l 572 488 q 627 556 611 515 q 643 664 643 596 q 622 892 643 735 l 396 892 q 357 571 357 719 q 389 375 357 449 q 494 254 421 301 l 654 143 q 868 -81 810 44 q 931 -367 926 -206 l 843 -367 l 694 -306 q 656 -59 697 -171 q 522 114 614 53 l 332 242 q 163 400 210 321 q 115 582 115 479 q 163 892 115 699 l 19 892 l -175 1004 l -175 1092 l 589 1092 l 338 1299 q 183 1393 254 1367 q 33 1419 113 1419 q -104 1401 -37 1419 l -293 1514 l -293 1601 q -118 1619 -203 1619 q 103 1577 3 1619 q 324 1438 204 1535 l 743 1092 l 906 1092 l 1096 979 l 1096 892 l 833 892 z "},"ऑ":{"ha":1986,"x_min":97,"x_max":2278,"o":"m 2278 1569 q 2199 1429 2260 1492 q 2041 1331 2138 1367 q 1828 1296 1944 1296 q 1580 1340 1701 1296 q 1382 1456 1458 1385 q 1306 1600 1306 1526 q 1315 1678 1306 1643 l 1375 1753 l 1571 1629 q 1561 1547 1561 1590 q 1604 1469 1561 1493 q 1738 1444 1647 1444 q 1916 1496 1843 1444 q 2022 1635 1989 1547 l 2074 1699 l 2278 1569 m 2142 976 l 2142 889 l 1897 889 l 1897 -17 l 1810 -17 l 1601 114 l 1661 189 l 1661 889 l 1415 889 l 1415 -17 l 1328 -17 l 1119 114 l 1179 189 l 1179 431 q 1091 390 1136 401 q 986 378 1046 378 q 900 386 944 378 q 845 288 893 336 q 726 210 797 240 q 585 181 656 181 q 520 184 558 181 q 453 192 482 188 l 97 419 l 158 496 l 242 443 q 356 386 297 404 q 479 368 414 368 q 599 400 546 369 q 651 472 651 431 q 613 545 651 508 q 483 632 575 582 l 483 719 q 563 782 535 743 q 592 865 592 821 q 533 929 592 929 q 428 892 485 929 q 321 789 371 854 l 132 901 l 132 989 q 277 1073 188 1040 q 447 1106 367 1106 q 633 1057 540 1106 q 783 933 725 1008 q 842 782 842 858 q 808 682 842 731 q 717 597 775 633 q 767 565 740 585 q 879 532 833 532 q 1034 590 957 532 q 1178 754 1111 647 l 1178 892 l 1076 892 l 888 1004 l 888 1092 l 1896 1092 l 1954 1089 l 2142 976 z "},"ऒ":{"ha":1986,"x_min":97,"x_max":2142,"o":"m 1897 889 l 1897 -17 l 1810 -17 l 1601 114 l 1661 189 l 1661 889 l 1415 889 l 1415 -17 l 1328 -17 l 1119 114 l 1179 189 l 1179 431 q 1091 390 1136 401 q 986 378 1046 378 q 900 386 944 378 q 845 288 893 336 q 726 210 797 240 q 585 181 656 181 q 520 184 558 181 q 453 192 482 188 l 97 419 l 158 496 l 242 443 q 356 386 297 404 q 479 368 414 368 q 599 400 546 369 q 651 472 651 431 q 613 545 651 508 q 483 632 575 582 l 483 719 q 563 782 535 743 q 592 865 592 821 q 533 929 592 929 q 428 892 485 929 q 321 789 371 854 l 132 901 l 132 989 q 277 1073 188 1040 q 447 1106 367 1106 q 633 1057 540 1106 q 783 933 725 1008 q 842 782 842 858 q 808 682 842 731 q 717 597 775 633 q 767 565 740 585 q 879 532 833 532 q 1034 590 957 532 q 1178 754 1111 647 l 1178 892 l 1076 892 l 888 1004 l 888 1092 l 1660 1092 l 1503 1222 q 1347 1317 1419 1290 q 1197 1344 1275 1344 q 1047 1326 1132 1344 q 968 1314 1010 1319 q 885 1308 926 1308 q 662 1351 764 1308 q 443 1490 560 1393 l 214 1681 l 279 1754 l 429 1629 q 583 1535 510 1563 q 735 1507 657 1507 q 885 1525 800 1507 q 964 1538 922 1532 q 1047 1543 1006 1543 q 1270 1501 1168 1543 q 1489 1361 1372 1458 l 1813 1092 l 1953 1092 l 2140 979 l 2142 889 l 1897 889 z "},"ओ":{"ha":1986,"x_min":97,"x_max":2142,"o":"m 1897 889 l 1897 -17 l 1810 -17 l 1601 114 l 1661 189 l 1661 889 l 1415 889 l 1415 -17 l 1328 -17 l 1119 114 l 1179 189 l 1179 431 q 1091 390 1136 401 q 986 378 1046 378 q 900 386 944 378 q 845 288 893 336 q 726 210 797 240 q 585 181 656 181 q 520 184 558 181 q 453 192 482 188 l 97 419 l 158 496 l 242 443 q 356 386 297 404 q 479 368 414 368 q 599 400 546 369 q 651 472 651 431 q 613 545 651 508 q 483 632 575 582 l 483 719 q 563 782 535 743 q 592 865 592 821 q 533 929 592 929 q 428 892 485 929 q 321 789 371 854 l 132 901 l 132 989 q 277 1073 188 1040 q 447 1106 367 1106 q 633 1057 540 1106 q 783 933 725 1008 q 842 782 842 858 q 808 682 842 731 q 717 597 775 633 q 767 565 740 585 q 879 532 833 532 q 1034 590 957 532 q 1178 754 1111 647 l 1178 892 l 1076 892 l 888 1004 l 888 1092 l 1658 1092 l 1407 1299 q 1253 1393 1324 1367 q 1103 1419 1182 1419 q 965 1401 1033 1419 l 776 1514 l 776 1601 q 951 1619 867 1619 q 1173 1577 1072 1619 q 1393 1438 1274 1535 l 1813 1092 l 1953 1092 l 2140 979 l 2142 889 l 1897 889 z "},"औ":{"ha":1986,"x_min":97,"x_max":2142,"o":"m 1897 889 l 1897 -17 l 1810 -17 l 1601 114 l 1661 189 l 1661 889 l 1415 889 l 1415 -17 l 1328 -17 l 1119 114 l 1179 189 l 1179 431 q 1091 390 1136 401 q 986 378 1046 378 q 900 386 944 378 q 845 288 893 336 q 726 210 797 240 q 585 181 656 181 q 520 184 558 181 q 453 192 482 188 l 97 419 l 158 496 l 242 443 q 356 386 297 404 q 479 368 414 368 q 599 400 546 369 q 651 472 651 431 q 613 545 651 508 q 483 632 575 582 l 483 719 q 563 782 535 743 q 592 865 592 821 q 533 929 592 929 q 428 892 485 929 q 321 789 371 854 l 132 901 l 132 989 q 277 1073 188 1040 q 447 1106 367 1106 q 633 1057 540 1106 q 783 933 725 1008 q 842 782 842 858 q 808 682 842 731 q 717 597 775 633 q 767 565 740 585 q 879 532 833 532 q 1034 590 957 532 q 1178 754 1111 647 l 1178 892 l 1076 892 l 888 1004 l 888 1092 l 1447 1092 l 1333 1186 q 1178 1281 1250 1254 q 1028 1308 1106 1308 q 890 1290 958 1308 l 701 1401 l 701 1489 q 878 1507 792 1507 q 1100 1465 999 1507 q 1319 1325 1201 1424 l 1600 1092 l 1781 1092 l 1333 1458 q 1178 1552 1250 1525 q 1028 1579 1106 1579 q 890 1561 958 1579 l 701 1674 l 701 1761 q 878 1779 792 1779 q 1100 1738 999 1779 q 1319 1597 1201 1696 l 1933 1092 l 1953 1092 l 2140 979 l 2142 889 l 1897 889 z "},"ॳ":{"ha":1503,"x_min":97,"x_max":1660,"o":"m 1415 889 l 1415 -17 l 1328 -17 l 1119 114 l 1179 189 l 1179 431 q 1091 390 1136 401 q 986 378 1046 378 q 900 386 944 378 q 845 288 893 336 q 726 210 797 240 q 585 181 656 181 q 520 184 558 181 q 453 192 482 188 l 97 419 l 158 496 l 242 443 q 356 386 297 404 q 479 368 414 368 q 599 400 546 369 q 651 472 651 431 q 613 545 651 508 q 483 632 575 582 l 483 719 q 563 782 535 743 q 592 865 592 821 q 533 929 592 929 q 428 892 485 929 q 321 789 371 854 l 132 901 l 132 989 q 277 1073 188 1040 q 447 1106 367 1106 q 633 1057 540 1106 q 783 933 725 1008 q 842 782 842 858 q 808 682 842 731 q 717 597 775 633 q 767 565 740 585 q 879 532 833 532 q 1034 590 957 532 q 1178 754 1111 647 l 1178 892 l 1076 892 l 888 1004 l 888 1092 l 1469 1092 l 1658 979 l 1660 889 l 1415 889 m 1414 1254 l 1414 1835 l 1265 1897 l 1178 1897 l 1178 1317 l 1326 1254 l 1414 1254 z "},"ॴ":{"ha":1986,"x_min":97,"x_max":2142,"o":"m 1897 889 l 1897 -17 l 1810 -17 l 1601 114 l 1661 189 l 1661 889 l 1415 889 l 1415 -17 l 1328 -17 l 1119 114 l 1179 189 l 1179 431 q 1091 390 1136 401 q 986 378 1046 378 q 900 386 944 378 q 845 288 893 336 q 726 210 797 240 q 585 181 656 181 q 520 184 558 181 q 453 192 482 188 l 97 419 l 158 496 l 242 443 q 356 386 297 404 q 479 368 414 368 q 599 400 546 369 q 651 472 651 431 q 613 545 651 508 q 483 632 575 582 l 483 719 q 563 782 535 743 q 592 865 592 821 q 533 929 592 929 q 428 892 485 929 q 321 789 371 854 l 132 901 l 132 989 q 277 1073 188 1040 q 447 1106 367 1106 q 633 1057 540 1106 q 783 933 725 1008 q 842 782 842 858 q 808 682 842 731 q 717 597 775 633 q 767 565 740 585 q 879 532 833 532 q 1034 590 957 532 q 1178 754 1111 647 l 1178 892 l 1076 892 l 888 1004 l 888 1092 l 1660 1092 l 1660 1619 l 1747 1619 l 1896 1557 l 1896 1092 l 1953 1092 l 2140 979 l 2142 889 l 1897 889 z "},"ॵ":{"ha":1986,"x_min":99,"x_max":2143,"o":"m 1899 888 l 1899 -18 l 1811 -18 l 1603 113 l 1663 188 l 1663 888 l 1417 888 l 1417 -18 l 1329 -18 l 1121 113 l 1181 188 l 1181 429 q 1092 388 1138 400 q 988 376 1047 376 q 901 385 944 376 q 847 287 894 335 q 728 209 799 239 q 586 179 657 179 q 522 183 560 179 q 454 190 483 186 l 99 418 l 160 494 l 243 442 q 357 385 299 403 q 481 367 415 367 q 600 399 547 368 q 653 471 653 429 q 615 544 653 507 q 485 631 576 581 l 485 718 q 565 781 536 742 q 593 864 593 819 q 535 928 593 928 q 429 890 486 928 q 322 788 372 853 l 133 900 l 133 988 q 278 1072 189 1039 q 449 1104 368 1104 q 634 1056 542 1104 q 785 932 726 1007 q 843 781 843 857 q 810 681 843 729 q 718 596 776 632 q 768 564 742 583 q 881 531 835 531 q 1035 588 958 531 q 1179 753 1113 646 l 1179 890 l 1078 890 l 889 1003 l 889 1090 l 1660 1090 l 1503 1221 q 1347 1316 1419 1289 q 1197 1343 1275 1343 q 1047 1325 1132 1343 q 968 1313 1010 1318 q 885 1307 926 1307 q 662 1349 764 1307 q 443 1489 560 1392 l 214 1679 l 279 1753 l 429 1628 q 583 1533 510 1561 q 735 1506 657 1506 q 885 1524 800 1506 q 964 1536 922 1531 q 1047 1542 1006 1542 q 1270 1499 1168 1542 q 1489 1360 1372 1457 l 1790 1108 q 1825 1200 1825 1150 q 1797 1268 1825 1240 q 1711 1329 1768 1296 q 1611 1403 1644 1369 q 1578 1492 1578 1438 q 1621 1600 1578 1550 q 1744 1685 1664 1650 l 1925 1574 l 1925 1486 q 1832 1397 1832 1463 q 1859 1340 1832 1363 q 1944 1285 1886 1318 q 2044 1221 2010 1251 q 2079 1142 2079 1190 q 2029 1046 2079 1092 l 2140 979 l 2143 888 l 1899 888 z "},"ॶ":{"ha":1503,"x_min":97,"x_max":1660,"o":"m 1415 889 l 1415 -17 l 1328 -17 l 1119 114 l 1179 189 l 1179 431 q 1091 390 1136 401 q 986 378 1046 378 q 900 386 944 378 q 845 288 893 336 q 726 210 797 240 q 585 181 656 181 q 520 184 558 181 q 453 192 482 188 l 97 419 l 158 496 l 242 443 q 356 386 297 404 q 479 368 414 368 q 599 400 546 369 q 651 472 651 431 q 613 545 651 508 q 483 632 575 582 l 483 719 q 563 782 535 743 q 592 865 592 821 q 533 929 592 929 q 428 892 485 929 q 321 789 371 854 l 132 901 l 132 989 q 277 1073 188 1040 q 447 1106 367 1106 q 633 1057 540 1106 q 783 933 725 1008 q 842 782 842 858 q 808 682 842 731 q 717 597 775 633 q 767 565 740 585 q 879 532 833 532 q 1034 590 957 532 q 1178 754 1111 647 l 1178 892 l 1076 892 l 888 1004 l 888 1092 l 1469 1092 l 1658 979 l 1660 889 l 1415 889 m 939 -183 q 1075 -155 1007 -183 q 1201 -76 1143 -126 l 1389 -187 l 1389 -275 q 1214 -342 1321 -317 q 1014 -367 1107 -367 q 849 -346 922 -367 l 650 -187 l 692 -108 q 939 -183 842 -183 z "},"ॷ":{"ha":1503,"x_min":97,"x_max":1660,"o":"m 1415 889 l 1415 -17 l 1328 -17 l 1119 114 l 1179 189 l 1179 431 q 1091 390 1136 401 q 986 378 1046 378 q 900 386 944 378 q 845 288 893 336 q 726 210 797 240 q 585 181 656 181 q 520 184 558 181 q 453 192 482 188 l 97 419 l 158 496 l 242 443 q 356 386 297 404 q 479 368 414 368 q 599 400 546 369 q 651 472 651 431 q 613 545 651 508 q 483 632 575 582 l 483 719 q 563 782 535 743 q 592 865 592 821 q 533 929 592 929 q 428 892 485 929 q 321 789 371 854 l 132 901 l 132 989 q 277 1073 188 1040 q 447 1106 367 1106 q 633 1057 540 1106 q 783 933 725 1008 q 842 782 842 858 q 808 682 842 731 q 717 597 775 633 q 767 565 740 585 q 879 532 833 532 q 1034 590 957 532 q 1178 754 1111 647 l 1178 892 l 1076 892 l 888 1004 l 888 1092 l 1469 1092 l 1658 979 l 1660 889 l 1415 889 m 940 -186 q 1076 -158 1008 -186 q 1203 -79 1144 -129 l 1390 -190 l 1390 -278 q 1215 -344 1322 -319 q 1015 -369 1108 -369 q 850 -349 924 -369 l 651 -190 l 693 -111 q 940 -186 843 -186 m 940 -512 q 1076 -484 1008 -512 q 1203 -406 1144 -456 l 1390 -517 l 1390 -604 q 1215 -671 1322 -646 q 1015 -696 1108 -696 q 850 -675 924 -696 l 651 -517 l 693 -437 q 940 -512 843 -512 z "},"ा":{"ha":482,"x_min":-82,"x_max":638,"o":"m 393 892 l 393 -14 l 306 -14 l 97 117 l 157 192 l 157 892 l 106 892 l -82 1004 l -82 1092 l 450 1092 l 638 979 l 638 892 l 393 892 z "},"ि":{"ha":482,"x_min":-82,"x_max":739,"o":"m 183 1499 q 481 1399 349 1499 q 739 1078 614 1300 l 663 1010 q 497 1226 585 1153 q 325 1300 408 1300 q 271 1281 289 1300 q 253 1231 253 1263 q 267 1166 253 1203 q 307 1092 281 1129 l 393 1092 l 393 999 l 397 994 l 393 994 l 393 -14 l 306 -14 l 97 117 l 157 192 l 157 892 l 53 892 l -82 1004 l -82 1092 l 154 1092 q 42 1228 79 1160 q 4 1353 4 1296 q 52 1458 4 1418 q 183 1499 100 1499 z "},"ी":{"ha":482,"x_min":-458,"x_max":638,"o":"m 392 892 l 392 -14 l 304 -14 l 96 117 l 156 192 l 156 892 l 104 892 l -67 994 l -182 994 q -389 1178 -319 1083 q -458 1353 -458 1274 q -411 1458 -458 1418 q -281 1499 -364 1499 q 14 1402 -117 1499 q 268 1092 144 1306 l 450 1092 l 638 979 l 636 892 l 392 892 m 147 1092 q 3 1247 78 1194 q -142 1300 -71 1300 q -194 1282 -176 1300 q -212 1232 -212 1264 q -178 1124 -212 1185 q -83 1008 -143 1063 l -83 1092 l 147 1092 z "},"ॉ":{"ha":482,"x_min":-197,"x_max":775,"o":"m 393 892 l 393 -14 l 306 -14 l 97 117 l 157 192 l 157 892 l 106 892 l -82 1004 l -82 1092 l 450 1092 l 638 979 l 638 892 l 393 892 m 68 1629 q 58 1547 58 1590 q 101 1469 58 1493 q 235 1444 144 1444 q 413 1496 340 1444 q 519 1635 486 1547 l 571 1699 l 775 1569 q 696 1429 757 1492 q 538 1331 635 1367 q 325 1296 442 1296 q 77 1340 199 1296 q -121 1456 -44 1385 q -197 1600 -197 1526 q -187 1678 -197 1643 l -128 1753 l 68 1629 z "},"ॊ":{"ha":482,"x_min":-1289,"x_max":638,"o":"m 393 892 l 393 -14 l 306 -14 l 97 117 l 157 192 l 157 892 l 106 892 l -82 1004 l -82 1092 l 157 1092 l 0 1222 q -156 1317 -83 1290 q -306 1344 -228 1344 q -457 1326 -372 1344 q -512 1317 -464 1325 q -618 1308 -561 1308 q -841 1351 -739 1308 q -1060 1490 -943 1393 l -1289 1681 l -1225 1754 l -1074 1629 q -919 1535 -993 1563 q -768 1507 -846 1507 q -618 1525 -703 1507 q -539 1538 -581 1532 q -456 1543 -497 1543 q -233 1501 -335 1543 q -14 1361 -132 1460 l 310 1092 l 450 1092 l 638 979 l 638 892 l 393 892 z "},"ो":{"ha":482,"x_min":-726,"x_max":638,"o":"m 393 892 l 393 -14 l 306 -14 l 97 117 l 157 192 l 157 892 l 106 892 l -82 1004 l -82 1092 l 156 1092 l -96 1299 q -251 1393 -179 1367 q -401 1419 -322 1419 q -537 1401 -471 1419 l -726 1514 l -726 1601 q -551 1619 -636 1619 q -330 1577 -431 1619 q -110 1438 -229 1535 l 310 1092 l 450 1092 l 638 979 l 638 892 l 393 892 z "},"ौ":{"ha":482,"x_min":-801,"x_max":638,"o":"m 393 892 l 393 -14 l 306 -14 l 97 117 l 157 192 l 157 892 l 106 892 l -82 1004 l -82 1092 l -56 1092 l -171 1186 q -326 1281 -254 1254 q -476 1308 -399 1308 q -614 1290 -546 1308 l -801 1401 l -801 1489 q -626 1507 -714 1507 q -403 1465 -506 1507 q -185 1325 -301 1422 l 96 1092 l 276 1092 l -171 1458 q -326 1552 -254 1525 q -476 1579 -399 1579 q -614 1561 -546 1579 l -801 1674 l -801 1761 q -626 1779 -714 1779 q -404 1738 -506 1779 q -185 1597 -303 1696 l 429 1092 l 450 1092 l 638 979 l 638 892 l 393 892 z "},"ॎ":{"ha":482,"x_min":97,"x_max":638,"o":"m 393 892 l 393 -14 l 306 -14 l 97 117 l 157 192 l 157 1092 l 450 1092 l 638 979 l 638 892 l 393 892 z "},"ऻ":{"ha":482,"x_min":-82,"x_max":638,"o":"m 393 892 l 393 -14 l 306 -14 l 97 117 l 157 192 l 157 892 l 106 892 l -82 1004 l -82 1092 l 157 1092 l 157 1619 l 244 1619 l 393 1557 l 393 1092 l 450 1092 l 638 979 l 638 892 l 393 892 z "},"ॏ":{"ha":482,"x_min":-1289,"x_max":639,"o":"m 394 890 l 394 -15 l 307 -15 l 99 115 l 158 190 l 158 890 l 107 890 l -81 1003 l -81 1090 l 157 1090 l 0 1221 q -156 1316 -83 1289 q -306 1343 -228 1343 q -457 1325 -372 1343 q -512 1315 -464 1324 q -618 1307 -561 1307 q -841 1349 -739 1307 q -1060 1489 -943 1392 l -1289 1679 l -1225 1753 l -1074 1628 q -919 1533 -993 1561 q -768 1506 -846 1506 q -618 1524 -703 1506 q -539 1536 -581 1531 q -456 1542 -497 1542 q -233 1500 -335 1542 q -14 1360 -132 1458 l 288 1108 q 322 1200 322 1150 q 294 1268 322 1240 q 208 1329 265 1296 q 108 1403 142 1369 q 75 1492 75 1438 q 118 1600 75 1550 q 242 1685 161 1650 l 422 1574 l 422 1486 q 329 1397 329 1463 q 356 1340 329 1363 q 442 1285 383 1318 q 542 1221 507 1251 q 576 1142 576 1190 q 526 1046 576 1092 l 638 979 l 639 890 l 394 890 z "},"क":{"ha":1475,"x_min":-175,"x_max":1650,"o":"m 854 742 q 949 754 896 754 q 1140 708 1040 754 q 1307 584 1240 663 q 1374 415 1374 506 q 1305 254 1374 322 q 1125 169 1236 186 l 943 282 l 943 369 q 1010 363 985 363 q 1100 402 1068 363 q 1135 508 1132 442 q 1057 615 1135 615 q 969 579 1006 614 q 889 481 932 544 l 858 438 l 854 433 l 854 -15 l 767 -15 l 558 115 l 618 190 l 618 196 q 525 183 576 183 q 332 229 432 183 q 166 353 232 275 q 100 522 100 432 q 168 683 100 615 q 347 768 236 751 l 529 656 l 529 568 q 463 575 488 575 q 372 535 404 575 q 338 429 340 496 q 415 322 338 322 q 508 360 469 324 q 592 468 546 397 l 615 501 l 619 506 l 619 892 l 15 892 l -175 1004 l -175 1092 l 1460 1092 l 1650 979 l 1650 892 l 854 889 l 854 742 z "},"ख":{"ha":1725,"x_min":-181,"x_max":1882,"o":"m 1882 893 l 1638 893 l 1638 -12 l 1550 -12 l 1342 118 l 1401 193 l 1401 210 q 1278 188 1346 188 q 1078 233 1182 188 q 906 356 975 279 q 836 522 836 433 q 905 683 836 615 q 1085 768 974 751 l 1265 656 l 1265 568 q 1200 575 1226 575 q 1107 535 1140 575 q 1074 429 1074 494 q 1099 351 1074 379 q 1169 322 1124 322 q 1269 362 1226 322 q 1376 492 1311 401 q 1390 510 1385 501 q 1400 524 1396 518 l 1400 892 l 569 892 q 647 719 619 814 q 674 531 674 625 q 625 356 674 433 q 506 246 576 279 l 838 28 l 778 -49 l 301 263 q 155 376 218 306 q 92 501 92 446 q 133 575 92 550 q 249 600 175 600 q 418 575 322 600 q 424 650 424 607 q 410 774 424 710 q 375 892 397 838 l 13 892 l -181 1004 l -181 1092 l 1692 1092 l 1882 981 l 1882 893 z "},"ग":{"ha":1181,"x_min":-200,"x_max":1336,"o":"m 1092 892 l 1092 -14 l 1004 -14 l 796 117 l 856 192 l 856 892 l 608 892 l 608 463 q 574 353 608 408 q 490 263 540 299 q 396 226 439 226 q 269 275 342 226 q 143 392 196 324 q 90 511 90 460 q 130 576 90 553 q 247 600 169 600 q 372 583 301 600 l 372 892 l -10 892 l -200 1004 l -200 1092 l 1149 1092 l 1336 979 l 1336 892 l 1092 892 z "},"घ":{"ha":1285,"x_min":-196,"x_max":1439,"o":"m 1194 893 l 1194 -12 l 1107 -12 l 899 118 l 922 147 q 707 99 822 99 q 468 144 583 99 q 281 265 353 190 q 210 418 210 339 q 230 502 210 461 q 286 576 250 543 q 142 671 199 613 q 86 803 86 729 q 110 892 86 851 l -6 892 l -196 1004 l -196 1092 l 1251 1092 l 1439 979 l 1439 893 l 1194 893 m 586 246 q 725 272 663 246 q 840 343 788 299 q 958 461 892 388 l 958 893 l 558 893 l 558 822 q 483 832 519 832 q 380 805 418 831 q 342 742 342 779 q 358 688 342 711 q 403 644 374 665 q 514 668 456 664 l 704 557 l 704 469 q 643 474 682 474 q 544 452 585 474 q 483 398 503 431 q 464 331 464 365 q 586 246 464 246 z "},"ङ":{"ha":1265,"x_min":-210,"x_max":1508,"o":"m 1508 892 l 915 892 l 915 610 l 554 610 q 483 585 513 610 q 453 525 453 560 q 472 471 453 496 q 565 502 528 493 q 635 511 601 511 q 828 462 726 511 q 997 340 929 413 q 1065 201 1065 267 q 997 101 1065 151 q 819 18 928 50 q 599 -14 710 -14 q 457 -3 526 -14 l 6 369 l 68 443 l 271 276 q 549 174 397 174 q 679 189 619 174 q 774 230 739 204 q 808 285 808 256 q 788 322 808 304 q 744 340 768 340 q 643 289 696 340 q 433 365 535 310 q 267 488 331 419 q 203 614 203 556 q 239 708 203 663 q 333 782 275 754 q 453 810 390 810 l 678 810 l 678 892 l -19 892 l -210 1004 l -210 1092 l 1317 1092 l 1508 979 l 1508 892 m 1279 683 l 1279 476 l 1192 476 l 1043 538 l 1043 746 l 1131 746 l 1279 683 z "},"च":{"ha":1304,"x_min":-185,"x_max":1460,"o":"m 1460 892 l 1215 892 l 1215 -14 l 1128 -14 l 919 117 l 979 192 l 979 208 q 860 188 929 188 q 660 233 764 188 q 488 356 557 279 q 418 522 418 433 q 422 568 418 546 l 226 568 l 36 681 l 36 768 l 665 768 l 846 656 l 846 568 q 781 575 807 575 q 688 535 721 575 q 654 429 654 494 q 679 351 654 379 q 750 322 704 322 q 824 344 790 322 q 884 398 857 365 q 958 494 911 431 l 978 522 l 978 892 l 4 892 l -185 1004 l -185 1092 l 1271 1092 l 1460 979 l 1460 892 z "},"छ":{"ha":1504,"x_min":-196,"x_max":1649,"o":"m 1235 747 q 1405 583 1338 690 q 1472 358 1472 476 q 1392 161 1472 246 q 1169 31 1311 76 q 847 -14 1028 -14 q 543 31 685 -14 q 317 153 401 75 q 232 329 232 232 q 279 464 232 404 q 156 557 203 500 q 108 685 108 614 q 173 827 108 775 q 340 879 238 879 q 392 878 375 879 l 582 765 l 582 678 q 506 688 542 688 q 404 664 444 688 q 364 604 364 640 q 396 550 364 571 q 538 574 460 575 l 728 461 l 728 374 q 650 379 690 379 q 529 341 571 379 q 488 249 488 303 q 535 162 488 194 q 676 129 582 129 q 912 157 804 129 q 1093 238 1019 185 q 910 360 985 278 q 835 542 835 443 q 881 690 835 626 q 1000 778 926 753 l 1000 892 l -6 892 l -196 1004 l -196 1092 l 1458 1092 l 1649 979 l 1649 892 l 1235 893 l 1235 747 m 1151 642 q 1106 593 1124 642 q 1088 469 1088 544 q 1142 360 1088 360 q 1201 382 1172 360 q 1217 468 1217 424 q 1201 591 1217 540 q 1153 642 1185 642 l 1151 642 z "},"ज":{"ha":1221,"x_min":-175,"x_max":1375,"o":"m 1131 892 l 1131 -14 l 1043 -14 l 835 117 l 894 192 l 894 400 l 606 400 l 731 296 q 742 218 742 263 q 703 103 742 157 q 596 18 664 50 q 443 -14 528 -14 q 276 7 347 -14 l 51 186 l 93 264 q 258 181 194 204 q 369 157 321 157 q 454 188 422 157 q 486 268 486 219 q 460 365 486 315 q 385 457 435 414 l 307 524 l 367 600 l 894 600 l 894 892 l 15 892 l -175 1004 l -175 1092 l 1188 1092 l 1375 979 l 1375 892 l 1131 892 z "},"झ":{"ha":1542,"x_min":-156,"x_max":1697,"o":"m 1450 892 l 1450 -14 l 1363 -14 l 1154 117 l 1214 192 l 1214 392 q 1128 344 1169 358 q 1031 326 1086 329 q 1088 200 1088 258 q 1019 99 1088 150 q 840 17 950 49 q 618 -15 731 -15 l 606 -15 l 733 -97 q 867 -154 793 -136 q 1019 -172 942 -172 q 1131 -160 1072 -172 l 1303 -262 l 1303 -350 q 1163 -368 1228 -368 q 953 -328 1050 -368 q 719 -201 856 -289 l 308 61 q 130 197 199 117 q 61 360 61 276 q 84 436 61 408 q 146 464 107 464 q 267 400 207 464 q 378 217 328 336 q 571 174 469 174 q 703 189 643 174 q 799 230 764 204 q 835 285 835 256 q 814 322 835 304 q 771 340 793 340 q 668 289 724 340 q 435 363 535 310 q 282 484 335 417 q 229 614 229 551 q 265 708 229 663 q 359 782 301 754 q 479 810 417 810 l 704 810 l 704 892 l 35 892 l -156 1004 l -156 1092 l 1510 1092 l 1697 979 l 1694 892 l 1450 892 m 897 482 q 1052 539 976 482 q 1214 715 1128 596 l 1214 892 l 938 892 l 938 610 l 575 610 q 503 585 533 610 q 474 525 474 560 q 494 471 474 497 q 588 502 551 493 q 658 511 625 511 q 785 489 715 511 q 897 481 826 481 l 897 482 z "},"ञ":{"ha":1214,"x_min":-175,"x_max":1368,"o":"m 1122 893 l 1122 -12 l 1035 -12 l 826 118 l 886 193 l 886 371 q 771 358 836 360 q 652 216 742 271 q 440 161 563 161 q 290 182 353 161 l 92 340 l 133 419 q 365 336 285 336 q 490 384 447 338 q 533 508 533 431 q 513 588 533 558 q 456 619 493 618 q 378 586 415 619 q 311 496 340 553 l 131 607 l 131 694 q 244 753 175 728 q 369 779 314 779 q 519 749 442 779 q 659 665 596 718 q 756 547 722 613 q 888 671 818 586 l 888 892 l 15 892 l -175 1004 l -175 1092 l 1181 1092 l 1368 979 l 1367 893 l 1122 893 z "},"ट":{"ha":1076,"x_min":-175,"x_max":1267,"o":"m 574 539 q 422 474 481 539 q 363 310 363 410 q 408 176 363 224 q 529 129 454 129 q 689 177 614 129 q 847 331 764 225 l 1029 218 l 1029 131 q 855 25 956 64 q 653 -14 754 -14 q 397 49 522 -14 q 194 212 272 111 q 115 419 115 313 q 164 576 115 501 q 292 694 213 650 q 464 739 372 739 l 501 739 l 501 892 l 7 892 l -175 1004 l -175 1092 l 1085 1092 l 1267 979 l 1267 892 l 738 892 l 738 539 l 574 539 z "},"ठ":{"ha":1192,"x_min":-175,"x_max":1367,"o":"m 738 728 q 910 630 832 692 q 1033 491 988 568 q 1078 335 1078 414 q 1022 156 1078 236 q 869 31 967 76 q 650 -14 771 -14 q 397 49 521 -14 q 194 213 272 113 q 115 418 115 314 q 165 578 115 504 q 296 696 215 653 q 464 739 376 739 l 501 739 l 501 892 l 7 892 l -175 1004 l -175 1092 l 1185 1092 l 1367 979 l 1367 892 l 738 892 l 738 728 m 822 428 q 738 585 822 543 l 738 539 l 574 539 q 422 476 481 539 q 363 300 363 413 q 409 175 363 221 q 533 129 456 129 q 747 209 671 129 q 822 428 822 289 z "},"ड":{"ha":1090,"x_min":-210,"x_max":1251,"o":"m 554 610 q 483 585 513 610 q 453 525 453 560 q 472 471 453 496 q 565 502 528 493 q 635 511 601 511 q 828 462 726 511 q 997 340 929 413 q 1065 201 1065 267 q 997 101 1065 151 q 819 18 928 50 q 599 -14 710 -14 q 457 -3 526 -14 l 6 369 l 68 443 l 271 276 q 549 174 397 174 q 679 189 619 174 q 774 230 739 204 q 808 285 808 256 q 788 322 808 304 q 744 340 768 340 q 643 289 696 340 q 433 365 535 310 q 267 488 331 419 q 203 614 203 556 q 239 708 203 663 q 333 782 275 754 q 453 810 390 810 l 678 810 l 678 892 l -19 892 l -210 1004 l -210 1092 l 1061 1092 l 1251 979 l 1251 892 l 914 892 l 914 610 l 554 610 z "},"ढ":{"ha":1050,"x_min":-175,"x_max":1240,"o":"m 539 539 q 388 494 442 539 q 335 367 335 449 q 376 246 335 303 q 485 151 417 189 q 636 106 554 114 q 505 211 557 149 q 453 333 453 274 q 494 420 453 389 q 608 451 535 451 q 801 403 700 451 q 971 281 903 354 q 1039 142 1039 208 q 965 27 1039 68 q 760 -14 892 -14 q 449 53 596 -14 q 214 229 303 119 q 125 461 125 339 q 164 600 125 536 q 269 701 203 664 q 414 739 336 739 l 574 739 l 574 892 l 7 892 l -175 1004 l -175 1092 l 1058 1092 l 1240 979 l 1240 892 l 810 892 l 810 539 l 539 539 m 760 282 q 724 260 740 282 q 708 207 708 238 q 761 157 708 157 q 797 164 779 157 q 803 201 803 179 q 790 260 803 238 q 758 283 778 283 l 760 282 z "},"ण":{"ha":1356,"x_min":-175,"x_max":1511,"o":"m 1267 892 l 1267 -14 l 1179 -14 l 971 117 l 1031 192 l 1031 892 l 821 892 l 821 561 q 779 438 819 499 q 672 339 739 378 q 531 300 606 300 q 343 342 440 300 q 181 456 246 385 q 117 611 117 528 l 117 892 l 15 892 l -175 1004 l -175 1092 l 1324 1092 l 1511 979 l 1511 892 l 1267 892 m 353 892 l 353 561 q 439 446 353 446 q 504 465 471 446 q 560 519 538 483 q 585 607 583 556 l 585 892 l 353 892 z "},"त":{"ha":996,"x_min":-175,"x_max":1151,"o":"m 907 892 l 907 -14 l 819 -14 l 611 117 l 671 192 l 671 400 l 497 400 q 363 274 363 400 q 383 192 363 226 q 456 122 403 158 l 554 50 l 494 -26 l 118 221 q 107 326 107 269 q 415 600 107 600 l 671 600 l 671 892 l 17 892 l -175 1004 l -175 1092 l 964 1092 l 1151 979 l 1151 892 l 907 892 z "},"थ":{"ha":1203,"x_min":53,"x_max":1358,"o":"m 1113 890 l 1113 -15 l 1025 -15 l 817 115 l 876 190 l 876 263 q 597 197 761 197 q 372 241 489 197 q 167 350 254 285 q 60 475 81 415 l 119 550 q 143 549 128 549 q 354 619 279 549 q 208 683 276 639 q 96 786 139 726 q 53 913 53 846 q 87 1013 53 965 q 177 1090 121 1061 q 297 1119 233 1119 q 469 1063 381 1119 q 615 912 557 1007 q 674 706 674 817 q 631 565 674 629 q 512 457 589 500 q 333 400 435 414 q 507 343 379 343 q 638 367 581 343 q 749 440 694 392 q 878 575 803 488 l 878 892 l 826 892 l 639 1004 l 639 1092 l 1171 1092 l 1358 979 l 1357 890 l 1113 890 m 307 843 q 364 749 307 749 q 417 767 392 749 l 417 771 q 405 916 417 864 q 371 968 393 968 q 324 933 340 968 q 307 844 307 899 l 307 843 z "},"द":{"ha":1031,"x_min":-175,"x_max":1221,"o":"m 539 540 q 388 492 442 540 q 335 361 335 443 q 380 224 335 276 q 500 172 425 172 q 574 185 533 172 q 563 274 563 233 q 585 363 563 329 q 657 396 607 396 q 805 355 725 396 q 940 251 885 314 q 996 125 996 188 q 958 47 996 82 q 856 -4 921 11 l 1100 -161 l 1039 -237 l 685 -10 q 405 78 533 7 q 201 256 276 150 q 125 479 125 363 q 166 606 125 546 q 274 702 207 665 q 414 739 340 739 l 539 739 l 539 892 l 7 892 l -175 1004 l -175 1092 l 1040 1092 l 1221 979 l 1221 892 l 775 892 l 775 539 l 539 539 l 539 540 z "},"ध":{"ha":1379,"x_min":119,"x_max":1533,"o":"m 1289 892 l 1289 -14 l 1201 -14 l 993 117 l 1053 192 l 1053 268 q 953 222 1001 235 q 842 210 904 210 q 579 258 701 210 q 384 384 457 306 q 311 549 311 463 q 371 688 311 628 q 186 836 253 754 q 119 1011 119 918 q 190 1168 119 1108 q 381 1228 261 1228 q 570 1192 475 1228 q 726 1099 665 1156 q 788 985 788 1042 q 722 885 788 925 q 561 846 657 846 q 536 847 544 846 l 446 919 l 446 1007 q 485 999 469 999 q 519 1010 506 999 q 532 1040 532 1022 q 482 1075 532 1075 q 404 1040 433 1075 q 375 943 375 1004 q 479 754 375 826 q 594 772 536 772 l 783 665 l 783 578 q 717 583 750 583 q 603 551 642 583 q 564 460 564 518 q 717 358 564 358 q 835 377 786 358 q 933 435 885 396 q 1053 554 981 475 l 1053 892 l 1001 892 l 814 1004 l 814 1092 l 1346 1092 l 1533 979 l 1533 892 l 1289 892 z "},"न":{"ha":1047,"x_min":-200,"x_max":1201,"o":"m 957 892 l 957 -14 l 869 -14 l 661 117 l 721 192 l 721 400 l 536 400 q 467 278 514 331 q 376 226 419 226 q 257 277 325 226 q 140 397 189 328 q 90 517 90 467 q 154 581 90 563 q 371 600 218 600 l 721 600 l 721 892 l -7 892 l -200 1004 l -200 1092 l 1014 1092 l 1201 979 l 1201 892 l 957 892 z "},"ऩ":{"ha":1047,"x_min":-200,"x_max":1201,"o":"m 957 892 l 957 -14 l 869 -14 l 661 117 l 721 192 l 721 400 l 536 400 q 467 278 514 331 q 376 226 419 226 q 257 277 325 226 q 140 397 189 328 q 90 517 90 467 q 154 581 90 563 q 371 600 218 600 l 721 600 l 721 892 l -7 892 l -200 1004 l -200 1092 l 1014 1092 l 1201 979 l 1201 892 l 957 892 m 499 -237 l 411 -237 l 263 -176 l 263 32 l 350 32 l 499 -31 l 499 -237 z "},"प":{"ha":969,"x_min":-175,"x_max":1125,"o":"m 1125 892 l 881 892 l 881 -14 l 793 -14 l 585 117 l 644 192 l 644 317 q 540 300 601 300 q 349 346 449 300 q 183 470 249 392 q 117 639 117 549 l 117 892 l 15 892 l -175 1004 l -175 1092 l 938 1092 l 1125 979 l 1125 892 m 353 892 l 353 589 q 449 446 353 446 q 532 483 496 446 q 625 606 568 521 q 644 635 631 615 l 644 892 l 353 892 z "},"फ":{"ha":1501,"x_min":-175,"x_max":1676,"o":"m 881 744 q 975 757 922 757 q 1168 711 1068 757 q 1334 587 1268 665 q 1400 418 1400 508 q 1331 257 1400 325 q 1153 172 1263 189 l 971 285 l 971 372 q 1036 365 1013 365 q 1117 400 1089 365 q 1146 493 1146 435 q 1126 574 1146 546 q 1068 601 1107 601 q 1003 581 1032 601 q 951 531 974 560 q 881 433 929 503 l 881 -14 l 793 -14 l 585 117 l 644 192 l 644 317 q 540 300 601 300 q 349 346 449 300 q 183 470 249 392 q 117 639 117 549 l 117 892 l 15 892 l -175 1004 l -175 1092 l 1494 1092 l 1676 979 l 1676 892 l 881 892 l 881 744 m 449 446 q 532 483 496 446 q 625 606 568 521 q 644 635 631 615 l 644 892 l 353 892 l 353 589 q 449 446 353 446 z "},"ब":{"ha":988,"x_min":-175,"x_max":1144,"o":"m 1144 893 l 900 893 l 900 -12 l 813 -12 l 604 118 l 664 193 l 664 210 q 540 188 608 188 q 341 233 444 188 q 168 356 238 279 q 99 522 99 433 q 167 683 99 615 q 347 768 236 751 l 528 656 l 528 568 q 463 575 489 575 q 439 574 446 575 l 601 442 l 663 524 l 663 892 l 15 892 l -175 1004 l -175 1092 l 956 1092 l 1144 981 l 1144 893 m 338 429 q 363 351 338 379 q 433 322 388 322 q 539 368 489 322 l 358 517 q 338 431 338 482 l 338 429 z "},"भ":{"ha":1158,"x_min":8,"x_max":1314,"o":"m 1069 892 l 1069 -14 l 982 -14 l 774 117 l 833 192 l 833 400 l 574 400 q 504 278 551 331 q 414 226 457 226 q 285 276 358 226 q 158 396 211 326 q 106 517 106 465 q 163 579 106 560 q 358 600 221 599 l 358 675 q 194 727 275 686 q 60 830 113 768 q 8 963 8 892 q 66 1074 8 1029 q 215 1119 124 1119 q 392 1072 304 1119 q 538 942 481 1024 q 594 767 594 861 l 594 600 l 832 600 l 832 892 l 781 892 l 593 1004 l 593 1092 l 1125 1092 l 1313 979 l 1314 892 l 1069 892 m 318 818 q 360 829 340 818 l 360 833 q 351 940 360 910 q 324 969 343 969 q 281 945 297 969 q 265 883 265 921 q 278 835 265 851 q 317 818 292 818 l 318 818 z "},"म":{"ha":1196,"x_min":-200,"x_max":1350,"o":"m 1106 892 l 1106 -14 l 1018 -14 l 810 117 l 869 192 l 869 400 l 558 400 q 490 279 536 332 q 400 226 443 226 q 270 276 344 226 q 143 396 196 326 q 90 517 90 465 q 148 579 90 560 q 344 600 206 599 l 344 892 l -8 892 l -200 1004 l -200 1092 l 1163 1092 l 1350 979 l 1350 892 l 1106 892 m 869 892 l 581 892 l 581 600 l 869 600 l 869 892 z "},"य":{"ha":1063,"x_min":-135,"x_max":1217,"o":"m 1217 892 l 972 892 l 972 -14 l 885 -14 l 676 117 l 736 192 l 736 299 q 521 250 647 250 q 332 294 431 250 q 158 402 233 338 q 58 524 82 467 l 118 600 q 213 660 175 611 q 250 785 250 708 q 233 892 250 854 l 56 892 l -135 1004 l -135 1092 l 1029 1092 l 1217 979 l 1217 892 m 436 892 q 504 692 504 796 q 453 555 504 615 q 315 467 403 494 q 429 396 343 396 q 736 590 588 396 l 735 892 l 436 892 z "},"र":{"ha":733,"x_min":-181,"x_max":925,"o":"m 569 892 q 647 719 619 814 q 674 531 674 625 q 625 356 674 433 q 506 246 576 279 l 838 28 l 778 -49 l 301 263 q 155 376 218 306 q 92 501 92 446 q 133 575 92 550 q 249 600 175 600 q 418 575 322 600 q 424 650 424 607 q 410 774 424 710 q 375 892 397 838 l 13 892 l -181 1004 l -181 1092 l 731 1092 l 924 979 l 925 892 l 569 892 z "},"ऱ":{"ha":733,"x_min":-181,"x_max":925,"o":"m 569 892 q 647 719 619 814 q 674 531 674 625 q 625 356 674 433 q 506 246 576 279 l 838 28 l 778 -49 l 301 263 q 155 376 218 306 q 92 501 92 446 q 133 575 92 550 q 249 600 175 600 q 418 575 322 600 q 424 650 424 607 q 410 774 424 710 q 375 892 397 838 l 13 892 l -181 1004 l -181 1092 l 731 1092 l 924 979 l 925 892 l 569 892 m 465 -237 l 378 -237 l 229 -176 l 229 32 l 317 32 l 465 -31 l 465 -237 z "},"ल":{"ha":1310,"x_min":-175,"x_max":1465,"o":"m 1221 893 l 1221 -12 l 1133 -12 l 925 118 l 985 193 l 985 389 q 761 283 886 333 l 579 396 l 579 483 q 617 497 604 492 q 587 577 608 553 q 525 601 565 601 q 426 556 465 601 q 388 444 388 510 q 415 342 388 385 q 508 258 442 300 l 642 172 l 593 89 l 143 374 q 132 483 132 425 q 167 616 132 553 q 269 719 201 679 q 433 758 338 758 q 625 709 529 758 q 788 578 721 660 q 985 728 913 651 l 985 892 l 14 892 l -175 1004 l -175 1092 l 1278 1092 l 1465 979 l 1465 893 l 1221 893 z "},"ळ":{"ha":1475,"x_min":-175,"x_max":1650,"o":"m 1114 725 q 1299 597 1225 681 q 1374 415 1374 514 q 1336 297 1374 350 q 1235 213 1299 244 q 1099 174 1172 181 l 914 288 l 914 379 q 1008 364 965 364 q 1103 403 1071 364 q 1136 511 1136 442 q 1056 622 1136 622 q 994 604 1022 622 q 942 556 967 586 q 871 461 917 525 q 838 413 853 433 l 806 367 q 727 262 760 300 q 645 198 694 224 q 526 172 596 172 q 333 219 433 172 q 167 347 233 267 q 100 519 100 426 q 138 638 100 585 q 240 722 176 690 q 376 760 303 753 l 560 647 l 560 556 q 465 569 515 569 q 371 531 404 569 q 338 424 338 492 q 418 313 338 313 q 483 333 454 313 q 537 385 513 353 q 603 479 561 417 l 624 511 l 640 536 q 717 646 688 607 q 787 714 747 685 q 878 754 826 743 l 878 892 l 15 892 l -175 1004 l -175 1092 l 1460 1092 l 1650 979 l 1650 892 l 1114 890 l 1114 725 z "},"ऴ":{"ha":1475,"x_min":-175,"x_max":1650,"o":"m 1114 725 q 1299 597 1225 681 q 1374 415 1374 514 q 1336 297 1374 350 q 1235 213 1299 244 q 1099 174 1172 181 l 914 288 l 914 379 q 1008 364 965 364 q 1103 403 1071 364 q 1136 511 1136 442 q 1056 622 1136 622 q 994 604 1022 622 q 942 556 967 586 q 871 461 917 525 q 838 413 853 433 l 806 367 q 727 262 760 300 q 645 198 694 224 q 526 172 596 172 q 333 219 433 172 q 167 347 233 267 q 100 519 100 426 q 138 638 100 585 q 240 722 176 690 q 376 760 303 753 l 560 647 l 560 556 q 465 569 515 569 q 371 531 404 569 q 338 424 338 492 q 418 313 338 313 q 483 333 454 313 q 537 385 513 353 q 603 479 561 417 l 624 511 l 640 536 q 717 646 688 607 q 787 714 747 685 q 878 754 826 743 l 878 892 l 15 892 l -175 1004 l -175 1092 l 1460 1092 l 1650 979 l 1650 892 l 1114 890 l 1114 725 m 875 -203 l 788 -203 l 639 -142 l 639 67 l 726 67 l 875 4 l 875 -203 z "},"व":{"ha":988,"x_min":-175,"x_max":1144,"o":"m 1144 893 l 900 893 l 900 -12 l 813 -12 l 604 118 l 664 193 l 664 210 q 540 188 608 188 q 341 233 444 188 q 168 356 238 279 q 99 522 99 433 q 167 683 99 615 q 347 768 236 751 l 528 656 l 528 568 q 463 575 489 575 q 369 535 403 575 q 336 429 336 494 q 361 351 336 379 q 432 322 386 322 q 531 362 489 322 q 639 492 574 401 q 653 510 647 501 q 663 524 658 518 l 663 892 l 15 892 l -175 1004 l -175 1092 l 956 1092 l 1144 981 l 1144 893 z "},"श":{"ha":1290,"x_min":126,"x_max":1447,"o":"m 721 639 q 669 381 721 488 l 868 258 l 808 183 l 618 300 q 476 226 553 226 q 333 275 414 226 q 196 391 253 324 q 139 510 139 458 q 180 576 139 551 q 303 600 221 600 q 465 581 379 600 q 483 675 479 618 q 316 725 399 685 q 180 828 233 765 q 126 963 126 890 q 183 1074 126 1029 q 332 1119 240 1119 q 515 1065 425 1119 q 662 901 604 1010 q 719 639 719 793 l 721 639 m 1203 892 l 1203 -14 l 1115 -14 l 907 117 l 967 192 l 967 892 l 915 892 l 726 1004 l 726 1092 l 1258 1092 l 1447 979 l 1447 892 l 1203 892 m 379 882 q 392 833 379 850 q 432 817 406 817 q 482 832 458 817 q 467 941 478 913 q 440 969 457 969 q 398 945 414 969 q 382 883 382 921 l 379 882 z "},"ष":{"ha":969,"x_min":-175,"x_max":1125,"o":"m 1125 892 l 881 892 l 881 -14 l 793 -14 l 585 117 l 644 192 l 644 317 q 540 300 601 300 q 349 346 449 300 q 183 470 249 392 q 117 639 117 549 l 117 892 l 15 892 l -175 1004 l -175 1092 l 938 1092 l 1125 979 l 1125 892 m 354 892 l 354 828 l 486 772 l 640 626 l 644 635 l 646 892 l 354 892 m 450 446 q 531 481 496 446 q 619 594 567 517 l 496 646 l 354 781 l 354 589 q 450 446 354 446 z "},"स":{"ha":1276,"x_min":-181,"x_max":1432,"o":"m 1432 892 l 1188 892 l 1188 -14 l 1100 -14 l 892 117 l 951 192 l 951 388 q 850 369 901 369 q 757 388 796 369 l 665 461 q 606 330 650 388 q 506 246 563 272 l 838 28 l 778 -49 l 301 263 q 155 376 218 306 q 92 501 92 446 q 133 575 92 550 q 249 600 175 600 q 418 575 322 600 q 424 650 424 607 q 410 774 424 710 q 375 892 397 838 l 13 892 l -181 1004 l -181 1092 l 1244 1092 l 1432 979 l 1432 892 m 568 893 q 668 608 649 765 q 782 581 735 581 q 865 599 825 581 q 951 660 906 617 l 951 893 l 568 893 z "},"ह":{"ha":892,"x_min":-82,"x_max":1047,"o":"m 489 576 q 394 501 394 576 q 418 431 394 461 q 624 379 519 426 q 797 261 729 332 q 865 118 865 190 q 731 -74 865 11 l 543 39 l 543 126 q 594 167 578 146 q 610 215 610 189 q 585 273 610 253 q 514 293 560 293 q 395 246 440 293 q 349 121 350 199 q 386 10 349 56 q 522 -97 424 -36 l 814 -292 l 754 -367 l 103 49 q 93 143 93 97 q 135 306 93 238 q 257 407 178 375 l 147 475 q 138 553 138 508 q 206 717 138 658 q 407 776 275 776 l 475 776 l 475 892 l 99 892 l -82 1004 l -82 1092 l 867 1092 l 1047 979 l 1047 892 l 711 892 l 711 578 l 488 578 l 489 576 z "},"क़":{"ha":1475,"x_min":-175,"x_max":1650,"o":"m 854 742 q 949 754 896 754 q 1140 708 1040 754 q 1307 584 1240 663 q 1374 415 1374 506 q 1305 254 1374 322 q 1125 169 1236 186 l 943 282 l 943 369 q 1010 363 985 363 q 1100 402 1068 363 q 1135 508 1132 442 q 1057 615 1135 615 q 969 579 1006 614 q 889 481 932 544 l 858 438 l 854 433 l 854 -15 l 767 -15 l 558 115 l 618 190 l 618 196 q 525 183 576 183 q 332 229 432 183 q 166 353 232 275 q 100 522 100 432 q 168 683 100 615 q 347 768 236 751 l 529 656 l 529 568 q 463 575 488 575 q 372 535 404 575 q 338 429 340 496 q 415 322 338 322 q 508 360 469 324 q 592 468 546 397 l 615 501 l 619 506 l 619 892 l 15 892 l -175 1004 l -175 1092 l 1460 1092 l 1650 979 l 1650 892 l 854 889 l 854 742 m 408 -194 l 321 -194 l 172 -133 l 172 75 l 260 75 l 408 13 l 408 -194 z "},"ख़":{"ha":1725,"x_min":-181,"x_max":1882,"o":"m 1882 893 l 1638 893 l 1638 -12 l 1550 -12 l 1342 118 l 1401 193 l 1401 210 q 1278 188 1346 188 q 1078 233 1182 188 q 906 356 975 279 q 836 522 836 433 q 905 683 836 615 q 1085 768 974 751 l 1265 656 l 1265 568 q 1200 575 1226 575 q 1107 535 1140 575 q 1074 429 1074 494 q 1099 351 1074 379 q 1169 322 1124 322 q 1269 362 1226 322 q 1376 492 1311 401 q 1390 510 1385 501 q 1400 524 1396 518 l 1400 892 l 569 892 q 647 719 619 814 q 674 531 674 625 q 625 356 674 433 q 506 246 576 279 l 838 28 l 778 -49 l 301 263 q 155 376 218 306 q 92 501 92 446 q 133 575 92 550 q 249 600 175 600 q 418 575 322 600 q 424 650 424 607 q 410 774 424 710 q 375 892 397 838 l 13 892 l -181 1004 l -181 1092 l 1692 1092 l 1882 981 l 1882 893 m 364 -237 l 276 -237 l 128 -176 l 128 32 l 215 32 l 364 -31 l 364 -237 z "},"ग़":{"ha":1181,"x_min":-200,"x_max":1336,"o":"m 1092 892 l 1092 -14 l 1004 -14 l 796 117 l 856 192 l 856 892 l 608 892 l 608 463 q 574 353 608 408 q 490 263 540 299 q 396 226 439 226 q 269 275 342 226 q 143 392 196 324 q 90 511 90 460 q 130 576 90 553 q 247 600 169 600 q 372 583 301 600 l 372 892 l -10 892 l -200 1004 l -200 1092 l 1149 1092 l 1336 979 l 1336 892 l 1092 892 m 499 -237 l 411 -237 l 263 -176 l 263 32 l 350 32 l 499 -31 l 499 -237 z "},"ज़":{"ha":1221,"x_min":-175,"x_max":1375,"o":"m 1131 892 l 1131 -14 l 1043 -14 l 835 117 l 894 192 l 894 400 l 606 400 l 731 296 q 742 218 742 263 q 703 103 742 157 q 596 18 664 50 q 443 -14 528 -14 q 276 7 347 -14 l 51 186 l 93 264 q 258 181 194 204 q 369 157 321 157 q 454 188 422 157 q 486 268 486 219 q 460 365 486 315 q 385 457 435 414 l 307 524 l 367 600 l 894 600 l 894 892 l 15 892 l -175 1004 l -175 1092 l 1188 1092 l 1375 979 l 1375 892 l 1131 892 m 549 -439 l 461 -439 l 313 -378 l 313 -169 l 400 -169 l 549 -232 l 549 -439 z "},"ड़":{"ha":1090,"x_min":-210,"x_max":1251,"o":"m 554 610 q 483 585 513 610 q 453 525 453 560 q 472 471 453 496 q 565 502 528 493 q 635 511 601 511 q 828 462 726 511 q 997 340 929 413 q 1065 201 1065 267 q 997 101 1065 151 q 819 18 928 50 q 599 -14 710 -14 q 457 -3 526 -14 l 6 369 l 68 443 l 271 276 q 549 174 397 174 q 679 189 619 174 q 774 230 739 204 q 808 285 808 256 q 788 322 808 304 q 744 340 768 340 q 643 289 696 340 q 433 365 535 310 q 267 488 331 419 q 203 614 203 556 q 239 708 203 663 q 333 782 275 754 q 453 810 390 810 l 678 810 l 678 892 l -19 892 l -210 1004 l -210 1092 l 1061 1092 l 1251 979 l 1251 892 l 914 892 l 914 610 l 554 610 m 246 -244 l 158 -244 l 10 -183 l 10 25 l 97 25 l 246 -37 l 246 -244 z "},"ढ़":{"ha":1050,"x_min":-175,"x_max":1240,"o":"m 539 539 q 388 494 442 539 q 335 367 335 449 q 376 246 335 303 q 485 151 417 189 q 636 106 554 114 q 505 211 557 149 q 453 333 453 274 q 494 420 453 389 q 608 451 535 451 q 801 403 700 451 q 971 281 903 354 q 1039 142 1039 208 q 965 27 1039 68 q 760 -14 892 -14 q 449 53 596 -14 q 214 229 303 119 q 125 461 125 339 q 164 600 125 536 q 269 701 203 664 q 414 739 336 739 l 574 739 l 574 892 l 7 892 l -175 1004 l -175 1092 l 1058 1092 l 1240 979 l 1240 892 l 810 892 l 810 539 l 539 539 m 760 282 q 724 260 740 282 q 708 207 708 238 q 761 157 708 157 q 797 164 779 157 q 803 201 803 179 q 790 260 803 238 q 758 283 778 283 l 760 282 m 376 -300 l 289 -300 l 140 -239 l 140 -31 l 228 -31 l 376 -93 l 376 -300 z "},"फ़":{"ha":1501,"x_min":-175,"x_max":1676,"o":"m 881 744 q 975 757 922 757 q 1168 711 1068 757 q 1334 587 1268 665 q 1400 418 1400 508 q 1331 257 1400 325 q 1153 172 1263 189 l 971 285 l 971 372 q 1036 365 1013 365 q 1117 400 1089 365 q 1146 493 1146 435 q 1126 574 1146 546 q 1068 601 1107 601 q 1003 581 1032 601 q 951 531 974 560 q 881 433 929 503 l 881 -14 l 793 -14 l 585 117 l 644 192 l 644 317 q 540 300 601 300 q 349 346 449 300 q 183 470 249 392 q 117 639 117 549 l 117 892 l 15 892 l -175 1004 l -175 1092 l 1494 1092 l 1676 979 l 1676 892 l 881 892 l 881 744 m 449 446 q 532 483 496 446 q 625 606 568 521 q 644 635 631 615 l 644 892 l 353 892 l 353 589 q 449 446 353 446 m 440 -112 l 353 -112 l 204 -51 l 204 157 l 292 157 l 440 94 l 440 -112 z "},"य़":{"ha":1063,"x_min":-135,"x_max":1217,"o":"m 1217 892 l 972 892 l 972 -14 l 885 -14 l 676 117 l 736 192 l 736 299 q 521 250 647 250 q 332 294 431 250 q 158 402 233 338 q 58 524 82 467 l 118 600 q 213 660 175 611 q 250 785 250 708 q 233 892 250 854 l 56 892 l -135 1004 l -135 1092 l 1029 1092 l 1217 979 l 1217 892 m 436 892 q 504 692 504 796 q 453 555 504 615 q 315 467 403 494 q 429 396 343 396 q 736 590 588 396 l 735 892 l 436 892 m 440 -167 l 353 -167 l 204 -106 l 204 103 l 292 103 l 440 40 l 440 -167 z "},"ॹ":{"ha":1200,"x_min":-175,"x_max":1375,"o":"m 1131 892 l 1131 -14 l 1043 -14 l 835 117 l 894 192 l 894 400 l 606 400 l 731 296 q 742 218 742 263 q 703 103 742 157 q 596 18 664 50 q 443 -14 528 -14 q 276 7 347 -14 l 51 186 l 93 264 q 258 181 194 204 q 369 157 321 157 q 454 188 422 157 q 486 268 486 219 q 460 365 486 315 q 385 457 435 414 l 307 524 l 367 600 l 894 600 l 894 892 l 15 892 l -175 1004 l -175 1092 l 1188 1092 l 1375 979 l 1375 892 l 1131 892 m 225 -311 l 138 -311 l -11 -250 l -11 -42 l 76 -42 l 225 -104 l 225 -311 m 540 -501 l 453 -501 l 304 -440 l 304 -232 l 392 -232 l 540 -294 l 540 -501 m 833 -311 l 746 -311 l 597 -250 l 597 -42 l 685 -42 l 833 -104 l 833 -311 z "},"ॻ":{"ha":1186,"x_min":-200,"x_max":1342,"o":"m 1097 892 l 1097 -282 l 190 -282 l 50 -169 l 50 -82 l 861 -82 l 861 892 l 608 892 l 608 463 q 574 353 608 408 q 490 263 540 299 q 396 226 439 226 q 269 275 342 226 q 143 392 196 324 q 90 511 90 460 q 130 576 90 553 q 247 600 169 600 q 372 583 301 600 l 372 892 l -10 892 l -200 1004 l -200 1092 l 1153 1092 l 1342 979 l 1342 892 l 1097 892 z "},"ॼ":{"ha":1229,"x_min":-175,"x_max":1385,"o":"m 1140 892 l 1140 -282 l 224 -282 l 83 -169 l 83 -82 l 904 -82 l 904 400 l 606 400 l 731 296 q 742 218 742 263 q 703 103 742 157 q 596 18 664 50 q 443 -14 528 -14 q 276 7 347 -14 l 51 186 l 93 264 q 258 181 194 204 q 369 157 321 157 q 454 188 422 157 q 486 268 486 219 q 460 365 486 315 q 385 457 435 414 l 307 524 l 367 600 l 904 600 l 904 892 l 15 892 l -175 1004 l -175 1092 l 1197 1092 l 1385 979 l 1385 892 l 1140 892 z "},"ॾ":{"ha":1090,"x_min":-210,"x_max":1251,"o":"m 554 610 q 483 585 513 610 q 453 525 453 560 q 472 471 453 496 q 565 502 528 493 q 635 511 601 511 q 828 462 726 511 q 997 340 929 413 q 1065 201 1065 267 q 997 101 1065 151 q 819 18 928 50 q 599 -14 710 -14 q 457 -3 526 -14 l 6 369 l 68 443 l 271 276 q 549 174 397 174 q 679 189 619 174 q 774 230 739 204 q 808 285 808 256 q 788 322 808 304 q 744 340 768 340 q 643 289 696 340 q 433 365 535 310 q 267 488 331 419 q 203 614 203 556 q 239 708 203 663 q 333 782 275 754 q 453 810 390 810 l 678 810 l 678 892 l -19 892 l -210 1004 l -210 1092 l 1061 1092 l 1251 979 l 1251 892 l 914 892 l 914 610 l 554 610 m 1128 -282 l 221 -282 l 81 -169 l 81 -82 l 988 -82 l 1128 -194 l 1128 -282 z "},"ॿ":{"ha":1006,"x_min":-175,"x_max":1161,"o":"m 915 890 l 915 -283 l 283 -283 l 143 -171 l 143 -83 l 679 -83 l 679 215 q 540 186 618 186 q 341 232 444 186 q 168 355 238 278 q 99 521 99 432 q 167 682 99 614 q 347 767 236 750 l 528 654 l 528 567 q 463 574 489 574 q 439 572 446 574 l 601 440 l 626 474 q 679 546 660 521 l 679 892 l 15 892 l -175 1004 l -175 1092 l 972 1092 l 1161 979 l 1161 890 l 915 890 m 336 426 q 361 348 336 376 q 432 319 386 319 q 538 365 488 319 l 357 514 q 336 428 336 479 l 336 426 z "},"ꣻ":{"ha":1432,"x_min":264,"x_max":1168,"o":"m 1168 892 l 453 892 l 264 1004 l 264 1092 l 979 1092 l 1168 979 l 1168 892 z "},"⁄":{"ha":335,"x_min":-306,"x_max":639,"o":"m -225 -275 l -306 -233 l 557 1390 l 639 1350 l -225 -275 z "},"½":{"ha":1639,"x_min":76,"x_max":1575,"o":"m 481 576 l 94 576 l 94 646 l 203 719 l 203 1032 l 76 1063 l 113 1139 l 499 1139 l 499 1071 l 392 997 l 392 683 l 517 654 l 481 576 m 368 -275 l 288 -233 l 1150 1390 l 1232 1350 l 368 -275 m 1575 -128 l 1471 -110 l 950 -110 l 950 -33 q 1151 108 1082 56 q 1248 194 1221 161 q 1275 257 1275 228 q 1249 303 1275 285 q 1182 321 1222 321 q 978 263 1106 321 l 944 340 l 1100 449 q 1213 463 1144 463 q 1424 422 1344 463 q 1504 313 1504 381 q 1437 209 1504 274 q 1229 57 1369 144 l 1456 57 l 1499 147 l 1575 125 l 1575 -128 z "},"⅓":{"ha":1567,"x_min":76,"x_max":1506,"o":"m 481 576 l 94 576 l 94 646 l 203 719 l 203 1032 l 76 1063 l 113 1139 l 499 1139 l 499 1071 l 392 997 l 392 683 l 517 654 l 481 576 m 368 -275 l 288 -233 l 1150 1390 l 1232 1350 l 368 -275 m 1296 138 q 1456 62 1407 100 q 1506 -28 1506 24 q 1381 -212 1506 -132 q 985 -367 1257 -293 l 961 -282 q 1170 -212 1099 -242 q 1270 -150 1242 -182 q 1299 -74 1299 -118 q 1265 -8 1299 -36 q 1150 51 1231 21 l 1150 114 q 1229 188 1207 157 q 1251 256 1251 219 q 1225 314 1251 292 q 1157 336 1199 336 q 988 278 1101 336 l 954 346 l 1110 454 q 1169 463 1139 463 q 1315 442 1249 463 q 1419 388 1381 422 q 1458 311 1458 353 q 1415 227 1454 268 q 1296 138 1376 186 z "},"⅔":{"ha":1722,"x_min":54,"x_max":1660,"o":"m 685 558 l 581 576 l 60 576 l 60 653 q 261 794 192 742 q 358 881 331 847 q 385 943 385 914 q 358 989 385 971 q 292 1007 332 1007 q 88 949 215 1007 l 54 1026 l 210 1135 q 322 1149 254 1149 q 534 1108 454 1149 q 614 999 614 1067 q 547 895 614 960 q 339 743 479 831 l 565 743 l 608 833 l 685 811 l 685 558 m 524 -275 l 443 -233 l 1306 1390 l 1388 1350 l 524 -275 m 1450 138 q 1610 62 1561 100 q 1660 -28 1660 24 q 1535 -212 1660 -132 q 1139 -367 1411 -293 l 1115 -282 q 1324 -212 1253 -242 q 1424 -150 1396 -182 q 1453 -74 1453 -118 q 1419 -8 1453 -36 q 1304 51 1385 21 l 1304 114 q 1383 188 1361 157 q 1406 256 1406 219 q 1379 314 1406 292 q 1311 336 1353 336 q 1142 278 1256 336 l 1108 346 l 1264 454 q 1324 463 1293 463 q 1469 442 1403 463 q 1574 388 1535 422 q 1613 311 1613 353 q 1569 227 1608 268 q 1450 138 1531 186 z "},"¼":{"ha":1471,"x_min":76,"x_max":1471,"o":"m 481 576 l 94 576 l 94 646 l 203 719 l 203 1032 l 76 1063 l 113 1139 l 499 1139 l 499 1071 l 392 997 l 392 683 l 517 654 l 481 576 m 368 -275 l 288 -233 l 1150 1390 l 1232 1350 l 368 -275 m 1301 -76 l 1301 -260 l 1113 -318 l 1113 -76 l 701 -76 l 701 -8 l 1113 424 l 1301 481 l 1301 31 l 1471 31 l 1432 -76 l 1301 -76 m 1113 279 l 879 31 l 1113 31 l 1113 279 z "},"¾":{"ha":1518,"x_min":26,"x_max":1518,"o":"m 368 824 q 528 748 479 786 q 578 658 578 710 q 453 474 578 554 q 57 319 329 393 l 33 406 q 242 474 171 444 q 342 536 314 504 q 371 613 371 568 q 337 679 371 651 q 222 738 303 707 l 222 800 q 301 874 279 843 q 324 942 324 906 q 297 1000 324 978 q 229 1022 271 1022 q 60 964 174 1022 l 26 1032 l 182 1140 q 242 1149 211 1149 q 387 1128 321 1149 q 492 1074 453 1108 q 531 997 531 1039 q 488 913 526 954 q 368 824 449 872 m 415 -275 l 335 -233 l 1197 1390 l 1279 1350 l 415 -275 m 1349 -76 l 1349 -260 l 1160 -318 l 1160 -76 l 749 -76 l 749 -8 l 1160 424 l 1349 481 l 1349 31 l 1518 31 l 1479 -76 l 1349 -76 m 1160 279 l 926 31 l 1160 31 l 1160 279 z "},"⅛":{"ha":1763,"x_min":76,"x_max":1708,"o":"m 481 576 l 94 576 l 94 646 l 203 719 l 203 1032 l 76 1063 l 113 1139 l 499 1139 l 499 1071 l 392 997 l 392 683 l 517 654 l 481 576 m 368 -275 l 288 -233 l 1150 1390 l 1232 1350 l 368 -275 m 1485 357 q 1651 252 1593 301 q 1708 135 1708 203 q 1653 22 1708 82 q 1517 -81 1597 -39 q 1372 -122 1438 -122 q 1172 -92 1260 -122 q 1034 -8 1083 -61 q 985 110 985 46 q 1033 212 985 160 q 1190 336 1082 264 q 1082 421 1121 378 q 1043 519 1043 464 q 1095 620 1043 567 q 1222 710 1147 674 q 1360 747 1297 747 q 1506 723 1442 747 q 1607 658 1571 699 q 1643 571 1643 618 q 1606 481 1639 528 q 1485 360 1572 435 l 1485 357 m 1339 639 q 1272 617 1299 639 q 1246 561 1246 594 q 1287 476 1246 514 q 1403 399 1328 439 q 1446 467 1436 443 q 1456 524 1456 492 q 1423 607 1456 574 q 1339 640 1390 640 l 1339 639 m 1376 -19 q 1469 12 1435 -19 q 1503 88 1503 43 q 1471 160 1503 126 q 1398 218 1439 194 q 1268 289 1357 242 q 1204 217 1219 246 q 1189 154 1189 189 q 1215 69 1189 110 q 1285 6 1242 29 q 1378 -18 1329 -18 l 1376 -19 z "},"⅜":{"ha":1808,"x_min":26,"x_max":1754,"o":"m 368 824 q 528 748 479 786 q 578 658 578 710 q 453 474 578 554 q 57 319 329 393 l 33 406 q 242 474 171 444 q 342 536 314 504 q 371 613 371 568 q 337 679 371 651 q 222 738 303 707 l 222 800 q 301 874 279 843 q 324 942 324 906 q 297 1000 324 978 q 229 1022 271 1022 q 60 964 174 1022 l 26 1032 l 182 1140 q 242 1149 211 1149 q 387 1128 321 1149 q 492 1074 453 1108 q 531 997 531 1039 q 488 913 526 954 q 368 824 449 872 m 415 -275 l 335 -233 l 1197 1390 l 1279 1350 l 415 -275 m 1531 357 q 1697 252 1639 301 q 1754 135 1754 203 q 1699 22 1754 82 q 1563 -81 1643 -39 q 1418 -122 1483 -122 q 1217 -92 1306 -122 q 1080 -8 1129 -61 q 1031 110 1031 46 q 1079 212 1031 160 q 1236 336 1128 264 q 1128 421 1167 378 q 1089 519 1089 464 q 1141 620 1089 567 q 1268 710 1193 674 q 1406 747 1343 747 q 1552 723 1488 747 q 1653 658 1617 699 q 1689 571 1689 618 q 1651 481 1685 528 q 1531 360 1618 435 l 1531 357 m 1385 639 q 1318 617 1344 639 q 1292 561 1292 594 q 1333 476 1292 514 q 1449 399 1374 439 q 1492 467 1482 443 q 1501 524 1501 492 q 1469 607 1501 574 q 1385 640 1436 640 l 1385 639 m 1422 -19 q 1515 12 1481 -19 q 1549 88 1549 43 q 1517 160 1549 126 q 1444 218 1485 194 q 1314 289 1403 242 q 1250 217 1265 246 q 1235 154 1235 189 q 1261 69 1235 110 q 1331 6 1288 29 q 1424 -18 1375 -18 l 1422 -19 z "},"⅝":{"ha":1900,"x_min":54,"x_max":1846,"o":"m 201 919 q 454 827 365 869 q 578 742 543 785 q 613 646 613 700 q 536 501 613 563 q 347 400 460 440 q 78 319 235 360 l 54 406 q 278 474 203 444 q 379 531 353 503 q 406 600 406 560 q 381 663 406 636 q 288 719 357 689 q 82 790 219 749 l 163 1139 l 475 1139 l 517 1225 l 589 1208 l 589 956 l 489 972 l 213 972 l 201 919 m 506 -275 l 425 -233 l 1288 1390 l 1369 1350 l 506 -275 m 1622 357 q 1788 252 1731 301 q 1846 135 1846 203 q 1790 22 1846 82 q 1655 -81 1735 -39 q 1510 -122 1575 -122 q 1309 -92 1397 -122 q 1172 -8 1221 -61 q 1122 110 1122 46 q 1171 212 1122 160 q 1328 336 1219 264 q 1219 421 1258 378 q 1181 519 1181 464 q 1233 620 1181 567 q 1360 710 1285 674 q 1497 747 1435 747 q 1644 723 1579 747 q 1744 658 1708 699 q 1781 571 1781 618 q 1743 481 1776 528 q 1622 360 1710 435 l 1622 357 m 1476 639 q 1410 617 1436 639 q 1383 561 1383 594 q 1424 476 1383 514 q 1540 399 1465 439 q 1583 467 1574 443 q 1593 524 1593 492 q 1560 607 1593 574 q 1476 640 1528 640 l 1476 639 m 1514 -19 q 1606 12 1572 -19 q 1640 88 1640 43 q 1608 160 1640 126 q 1535 218 1576 194 q 1406 289 1494 242 q 1342 217 1357 246 q 1326 154 1326 189 q 1353 69 1326 110 q 1423 6 1379 29 q 1515 -18 1467 -18 l 1514 -19 z "},"⅞":{"ha":1819,"x_min":89,"x_max":1765,"o":"m 715 1051 l 250 319 l 150 350 l 550 974 l 207 974 l 165 885 l 89 907 l 89 1157 l 193 1139 l 715 1139 l 715 1051 m 425 -275 l 344 -233 l 1207 1390 l 1289 1350 l 425 -275 m 1542 357 q 1708 252 1650 301 q 1765 135 1765 203 q 1710 22 1765 82 q 1574 -81 1654 -39 q 1429 -122 1494 -122 q 1228 -92 1317 -122 q 1091 -8 1140 -61 q 1042 110 1042 46 q 1090 212 1042 160 q 1247 336 1139 264 q 1139 421 1178 378 q 1100 519 1100 464 q 1152 620 1100 567 q 1279 710 1204 674 q 1417 747 1354 747 q 1563 723 1499 747 q 1664 658 1628 699 q 1700 571 1700 618 q 1663 481 1696 528 q 1542 360 1629 435 l 1542 357 m 1396 639 q 1329 617 1356 639 q 1303 561 1303 594 q 1344 476 1303 514 q 1460 399 1385 439 q 1503 467 1493 443 q 1513 524 1513 492 q 1480 607 1513 574 q 1396 640 1447 640 l 1396 639 m 1433 -19 q 1526 12 1492 -19 q 1560 88 1560 43 q 1528 160 1560 126 q 1455 218 1496 194 q 1325 289 1414 242 q 1261 217 1276 246 q 1246 154 1246 189 q 1272 69 1246 110 q 1342 6 1299 29 q 1435 -18 1386 -18 l 1433 -19 z "},"₀":{"ha":899,"x_min":81,"x_max":819,"o":"m 489 463 q 660 426 585 463 q 778 328 736 390 q 819 189 819 265 q 756 35 819 107 q 595 -78 692 -36 q 410 -119 499 -119 q 239 -83 314 -119 q 122 15 164 -47 q 81 156 81 78 q 144 308 81 238 q 304 421 208 379 q 489 463 400 463 m 424 343 q 285 201 285 343 q 333 58 285 115 q 474 1 382 1 q 615 143 615 1 q 566 286 615 229 q 424 343 517 343 z "},"₁":{"ha":550,"x_min":51,"x_max":492,"o":"m 456 -108 l 69 -108 l 69 -40 l 178 35 l 178 347 l 51 378 l 88 454 l 474 454 l 474 386 l 367 313 l 367 -3 l 492 -32 l 456 -108 z "},"₂":{"ha":749,"x_min":54,"x_max":685,"o":"m 685 -128 l 581 -110 l 60 -110 l 60 -33 q 261 108 192 56 q 358 194 331 161 q 385 257 385 228 q 358 303 385 285 q 292 321 332 321 q 88 263 215 321 l 54 340 l 210 449 q 322 463 254 463 q 534 422 454 463 q 614 313 614 381 q 547 209 614 274 q 339 57 479 144 l 565 57 l 608 147 l 685 125 l 685 -128 z "},"₃":{"ha":640,"x_min":26,"x_max":578,"o":"m 368 138 q 528 62 479 100 q 578 -28 578 24 q 453 -212 578 -132 q 57 -367 329 -293 l 33 -282 q 242 -212 171 -242 q 342 -150 314 -182 q 371 -74 371 -118 q 337 -8 371 -36 q 222 51 303 21 l 222 114 q 301 188 279 157 q 324 256 324 219 q 297 314 324 292 q 229 336 271 336 q 60 278 174 336 l 26 346 l 182 454 q 242 463 211 463 q 387 442 321 463 q 492 388 453 422 q 531 311 531 353 q 488 227 526 268 q 368 138 449 186 z "},"₄":{"ha":811,"x_min":42,"x_max":811,"o":"m 642 -76 l 642 -260 l 453 -318 l 453 -76 l 42 -76 l 42 -8 l 453 424 l 642 481 l 642 31 l 811 31 l 772 -76 l 642 -76 m 453 279 l 219 31 l 453 31 l 453 279 z "},"₅":{"ha":731,"x_min":54,"x_max":613,"o":"m 201 233 q 454 141 365 183 q 578 56 543 99 q 613 -40 613 14 q 536 -185 613 -124 q 347 -286 460 -246 q 78 -367 235 -326 l 54 -282 q 278 -213 203 -243 q 379 -155 353 -183 q 406 -86 406 -126 q 381 -24 406 -50 q 288 33 357 3 q 82 104 219 63 l 163 453 l 475 453 l 517 539 l 589 522 l 589 269 l 489 286 l 213 286 l 201 233 z "},"₆":{"ha":842,"x_min":85,"x_max":785,"o":"m 688 671 q 382 450 475 557 q 289 229 289 343 q 335 66 289 131 q 469 1 382 1 q 579 124 579 1 q 525 269 579 210 q 389 356 471 328 l 446 438 q 615 403 538 438 q 739 307 693 368 q 785 169 785 246 q 728 34 785 101 q 583 -76 672 -33 q 406 -119 494 -119 q 240 -80 313 -119 q 126 29 167 -40 q 85 185 85 99 q 132 383 85 293 q 302 563 179 472 q 647 749 425 653 l 688 671 z "},"₇":{"ha":757,"x_min":89,"x_max":715,"o":"m 715 365 l 250 -367 l 150 -336 l 550 288 l 207 288 l 165 199 l 89 221 l 89 471 l 193 453 l 715 453 l 715 365 z "},"₈":{"ha":835,"x_min":57,"x_max":781,"o":"m 557 357 q 723 252 665 301 q 781 135 781 203 q 725 22 781 82 q 590 -81 669 -39 q 444 -122 510 -122 q 244 -92 332 -122 q 106 -8 156 -61 q 57 110 57 46 q 106 212 57 160 q 263 336 154 264 q 154 421 193 378 q 115 519 115 464 q 167 620 115 567 q 294 710 219 674 q 432 747 369 747 q 578 723 514 747 q 679 658 643 699 q 715 571 715 618 q 678 481 711 528 q 557 360 644 435 l 557 357 m 411 639 q 344 617 371 639 q 318 561 318 594 q 359 476 318 514 q 475 399 400 439 q 518 467 508 443 q 528 524 528 492 q 495 607 528 574 q 411 640 463 640 l 411 639 m 449 -19 q 541 12 507 -19 q 575 88 575 43 q 543 160 575 126 q 470 218 511 194 q 340 289 429 242 q 276 217 292 246 q 261 154 261 189 q 288 69 261 110 q 358 6 314 29 q 450 -18 401 -18 l 449 -19 z "},"₉":{"ha":828,"x_min":75,"x_max":774,"o":"m 453 463 q 619 424 546 463 q 733 319 692 386 q 774 169 774 253 q 727 -19 774 67 q 560 -190 681 -104 q 218 -367 439 -275 l 178 -289 q 478 -82 386 -182 q 569 124 569 18 q 523 281 569 219 q 388 343 476 343 q 279 219 279 343 q 332 76 279 135 q 465 -12 385 17 l 396 -96 q 237 -56 310 -92 q 119 39 164 -21 q 75 175 75 99 q 131 310 75 243 q 274 419 186 376 q 453 463 363 463 z "},"⁰":{"ha":899,"x_min":81,"x_max":819,"o":"m 489 1149 q 660 1113 585 1149 q 778 1014 736 1076 q 819 875 819 951 q 756 722 819 793 q 595 608 692 650 q 410 567 499 567 q 239 603 314 567 q 122 701 164 639 q 81 842 81 764 q 144 994 81 924 q 304 1107 208 1065 q 489 1149 400 1149 m 424 1029 q 285 888 285 1029 q 333 744 285 801 q 474 688 382 688 q 615 829 615 688 q 566 972 615 915 q 424 1029 517 1029 z "},"¹":{"ha":593,"x_min":76,"x_max":517,"o":"m 481 576 l 94 576 l 94 646 l 203 719 l 203 1032 l 76 1063 l 113 1139 l 499 1139 l 499 1071 l 392 997 l 392 683 l 517 654 l 481 576 z "},"²":{"ha":749,"x_min":54,"x_max":685,"o":"m 685 558 l 581 576 l 60 576 l 60 653 q 261 794 192 742 q 358 881 331 847 q 385 943 385 914 q 358 989 385 971 q 292 1007 332 1007 q 88 949 215 1007 l 54 1026 l 210 1135 q 322 1149 254 1149 q 534 1108 454 1149 q 614 999 614 1067 q 547 895 614 960 q 339 743 479 831 l 565 743 l 608 833 l 685 811 l 685 558 z "},"³":{"ha":640,"x_min":26,"x_max":578,"o":"m 368 824 q 528 748 479 786 q 578 658 578 710 q 453 474 578 554 q 57 319 329 393 l 33 406 q 242 474 171 444 q 342 536 314 504 q 371 613 371 568 q 337 679 371 651 q 222 738 303 707 l 222 800 q 301 874 279 843 q 324 942 324 906 q 297 1000 324 978 q 229 1022 271 1022 q 60 964 174 1022 l 26 1032 l 182 1140 q 242 1149 211 1149 q 387 1128 321 1149 q 492 1074 453 1108 q 531 997 531 1039 q 488 913 526 954 q 368 824 449 872 z "},"⁴":{"ha":811,"x_min":42,"x_max":811,"o":"m 642 610 l 642 426 l 453 368 l 453 610 l 42 610 l 42 678 l 453 1110 l 642 1167 l 642 717 l 811 717 l 772 610 l 642 610 m 453 965 l 219 717 l 453 717 l 453 965 z "},"⁵":{"ha":731,"x_min":54,"x_max":613,"o":"m 201 919 q 454 827 365 869 q 578 742 543 785 q 613 646 613 700 q 536 501 613 563 q 347 400 460 440 q 78 319 235 360 l 54 406 q 278 474 203 444 q 379 531 353 503 q 406 600 406 560 q 381 663 406 636 q 288 719 357 689 q 82 790 219 749 l 163 1139 l 475 1139 l 517 1225 l 589 1208 l 589 956 l 489 972 l 213 972 l 201 919 z "},"⁶":{"ha":842,"x_min":85,"x_max":785,"o":"m 688 1357 q 382 1136 475 1243 q 289 915 289 1029 q 335 752 289 817 q 469 688 382 688 q 579 810 579 688 q 525 955 579 896 q 389 1042 471 1014 l 446 1124 q 615 1089 538 1124 q 739 993 693 1054 q 785 856 785 932 q 728 720 785 788 q 583 610 672 653 q 406 567 494 567 q 240 606 313 567 q 126 715 167 646 q 85 871 85 785 q 132 1069 85 979 q 302 1249 179 1158 q 647 1435 425 1339 l 688 1357 z "},"⁷":{"ha":757,"x_min":89,"x_max":715,"o":"m 715 1051 l 250 319 l 150 350 l 550 974 l 207 974 l 165 885 l 89 907 l 89 1157 l 193 1139 l 715 1139 l 715 1051 z "},"⁸":{"ha":835,"x_min":57,"x_max":781,"o":"m 557 1043 q 723 938 665 988 q 781 821 781 889 q 725 708 781 768 q 590 606 669 647 q 444 564 510 564 q 244 594 332 564 q 106 678 156 625 q 57 796 57 732 q 106 898 57 846 q 263 1022 154 950 q 154 1107 193 1064 q 115 1206 115 1150 q 167 1306 115 1253 q 294 1397 219 1360 q 432 1433 369 1433 q 578 1409 514 1433 q 679 1344 643 1385 q 715 1257 715 1304 q 678 1167 711 1214 q 557 1046 644 1121 l 557 1043 m 411 1325 q 344 1303 371 1325 q 318 1247 318 1281 q 359 1163 318 1200 q 475 1085 400 1125 q 518 1153 508 1129 q 528 1210 528 1178 q 495 1293 528 1260 q 411 1326 463 1326 l 411 1325 m 449 668 q 541 699 507 668 q 575 774 575 729 q 543 847 575 813 q 470 904 511 881 q 340 975 429 928 q 276 903 292 932 q 261 840 261 875 q 288 756 261 796 q 358 693 314 717 q 450 669 401 669 l 449 668 z "},"⁹":{"ha":828,"x_min":75,"x_max":774,"o":"m 453 1149 q 619 1110 546 1149 q 733 1006 692 1072 q 774 856 774 939 q 727 668 774 753 q 559 497 681 583 q 218 319 438 411 l 178 399 q 478 605 388 506 q 569 810 569 704 q 523 967 569 906 q 388 1029 476 1029 q 279 906 279 1029 q 332 762 279 821 q 465 674 385 703 l 396 590 q 236 631 310 596 q 119 725 163 665 q 75 861 75 785 q 131 996 75 929 q 274 1106 186 1063 q 453 1149 363 1149 z "},"०":{"ha":1010,"x_min":133,"x_max":876,"o":"m 428 806 q 629 756 524 806 q 806 623 735 707 q 876 442 876 539 q 839 308 876 368 q 734 215 801 249 q 582 181 667 181 q 381 230 486 181 q 204 363 275 279 q 133 544 133 447 q 171 678 133 618 q 276 772 208 738 q 428 806 343 806 m 517 660 q 426 608 463 660 q 389 476 389 557 q 417 364 389 401 q 494 326 444 326 q 585 378 549 326 q 621 510 621 429 q 594 622 621 585 q 517 660 567 660 z "},"१":{"ha":842,"x_min":33,"x_max":640,"o":"m 267 1106 q 456 1042 369 1106 q 591 867 542 978 q 640 621 640 756 q 610 299 640 500 q 554 -14 581 99 l 467 -14 l 318 47 q 368 326 347 181 q 397 593 389 472 q 221 648 306 601 q 85 763 136 694 q 33 901 33 832 q 65 1003 33 956 q 151 1078 97 1050 q 267 1106 204 1106 m 290 831 q 350 736 290 736 q 378 740 367 736 q 403 757 390 744 q 385 903 400 851 q 346 956 371 956 q 306 919 322 956 q 289 832 289 883 l 290 831 z "},"२":{"ha":1001,"x_min":122,"x_max":1103,"o":"m 622 288 q 464 218 538 218 q 324 264 401 218 q 191 374 246 310 q 136 492 136 439 q 179 556 136 533 q 301 579 222 579 q 488 549 389 579 q 601 818 601 685 q 519 918 601 918 q 416 883 474 918 q 311 789 358 847 l 122 901 l 122 989 q 266 1072 176 1039 q 436 1106 356 1106 q 631 1049 533 1106 q 792 903 729 992 q 856 726 856 814 q 809 538 856 639 q 690 356 763 436 l 1103 18 l 1039 -53 l 622 288 z "},"३":{"ha":1117,"x_min":115,"x_max":1010,"o":"m 1008 243 q 953 130 1008 190 q 818 28 899 69 q 667 -12 738 -12 q 576 -6 628 -12 l 864 -240 l 797 -312 l 275 115 q 158 233 201 168 q 115 363 115 297 q 138 439 115 411 q 200 467 160 467 q 327 392 276 467 q 396 178 378 318 q 507 151 457 154 q 626 173 567 151 q 722 228 685 194 q 760 297 760 263 q 741 365 760 335 q 668 435 722 394 q 500 546 614 475 l 500 633 q 606 705 561 654 q 650 814 650 756 q 574 919 650 919 q 462 883 519 919 q 360 790 404 846 l 171 903 l 171 990 q 319 1075 229 1043 q 489 1107 410 1107 q 681 1049 583 1107 q 841 904 778 992 q 904 736 904 817 q 869 602 904 660 q 772 510 835 544 q 947 373 885 443 q 1010 242 1010 303 l 1008 243 z "},"४":{"ha":1108,"x_min":118,"x_max":958,"o":"m 722 557 q 865 423 815 478 q 937 322 915 368 q 958 226 958 276 q 916 105 958 160 q 800 18 874 50 q 636 -14 726 -14 q 405 38 515 -14 q 226 175 294 90 q 158 353 158 260 q 192 481 158 417 q 299 618 226 546 l 378 696 l 304 751 q 164 902 210 824 q 118 1072 118 981 q 128 1151 118 1106 l 188 1226 l 385 1103 q 374 1008 374 1054 q 451 768 374 858 l 572 888 q 660 1001 636 951 q 685 1104 685 1050 q 672 1164 685 1131 l 724 1226 l 926 1099 q 944 1018 944 1058 q 912 904 944 961 q 808 774 879 847 l 646 614 l 722 557 m 528 144 q 653 193 603 144 q 703 314 703 242 q 670 428 703 369 q 575 544 638 488 l 531 500 q 440 385 467 438 q 413 272 413 333 q 441 175 413 207 q 528 143 469 143 l 528 144 z "},"५":{"ha":1111,"x_min":156,"x_max":1215,"o":"m 783 88 q 650 -12 728 -8 q 495 35 583 -12 q 344 147 407 82 q 281 264 281 213 q 328 325 281 301 q 465 349 376 349 q 621 332 532 349 q 638 650 636 467 q 569 643 600 643 q 382 685 479 643 q 220 800 285 728 q 156 954 156 872 l 156 1107 l 243 1107 l 392 1046 l 392 904 q 478 789 392 789 q 551 806 514 789 q 614 858 589 824 q 639 940 639 893 l 639 1107 l 726 1107 l 875 1046 l 875 619 q 822 179 875 340 l 1215 -143 l 1150 -212 l 783 88 z "},"६":{"ha":1254,"x_min":100,"x_max":1460,"o":"m 940 318 q 778 245 864 272 q 618 218 693 218 q 410 263 517 218 q 233 383 303 307 q 163 553 163 460 q 185 648 163 603 q 250 728 208 693 q 142 818 183 764 q 100 939 100 872 q 164 1071 100 1022 q 332 1119 228 1119 q 383 1117 350 1119 l 574 1006 l 574 918 q 497 928 533 928 q 396 908 436 928 q 356 858 356 888 q 381 815 356 831 q 468 799 407 800 l 658 688 l 658 600 q 581 604 631 604 q 460 567 501 604 q 418 476 418 531 q 450 404 418 432 q 526 376 482 376 q 790 532 693 376 q 765 697 765 622 q 788 819 765 776 q 853 863 811 863 q 970 808 906 863 q 1081 675 1035 753 q 1126 535 1126 597 q 1099 458 1126 499 q 1024 378 1072 418 l 1460 21 l 1392 -51 l 940 318 z "},"७":{"ha":1399,"x_min":126,"x_max":1254,"o":"m 869 999 q 1062 937 974 999 q 1202 770 1150 875 q 1254 543 1254 665 q 1187 263 1254 390 q 1004 61 1119 135 q 750 -12 889 -12 q 439 86 582 -12 q 211 351 296 185 q 126 708 126 517 q 154 938 126 824 q 235 1153 182 1051 l 294 1228 l 490 1104 q 405 815 428 938 q 382 549 382 693 q 452 256 382 364 q 657 147 522 147 q 871 236 786 147 q 985 488 956 325 q 813 544 894 499 q 682 656 732 590 q 632 790 632 722 q 664 894 632 846 q 750 969 696 942 q 868 997 804 997 l 869 999 m 947 631 q 976 635 964 631 q 1000 650 988 639 l 1000 664 q 947 849 1000 849 q 906 813 922 849 q 889 725 889 778 q 947 631 889 631 z "},"८":{"ha":1131,"x_min":-117,"x_max":1111,"o":"m 617 892 q 471 834 528 892 q 414 679 414 776 q 453 578 414 618 q 551 515 493 538 q 708 465 610 493 q 888 407 819 435 q 1003 328 956 379 q 1050 193 1050 276 q 899 -26 1050 60 l 718 86 l 718 174 q 774 201 753 178 q 794 261 794 225 q 767 317 794 293 q 696 357 739 340 q 575 397 653 374 q 364 476 447 438 q 220 587 281 515 q 160 771 160 658 q 188 892 160 833 l 76 892 l -117 1004 l -117 1092 l 918 1092 l 1111 979 l 1111 892 l 617 892 z "},"९":{"ha":1028,"x_min":96,"x_max":940,"o":"m 940 149 q 762 35 865 85 q 553 -15 658 -15 q 343 35 450 -15 q 166 174 236 86 q 96 368 96 263 q 153 519 96 450 q 304 631 210 588 q 200 747 239 683 q 161 878 161 810 q 199 994 161 942 q 306 1076 238 1046 q 463 1106 375 1106 q 636 1069 551 1106 q 774 977 721 1033 q 828 861 828 921 q 763 763 828 801 q 599 724 697 724 q 576 725 585 724 l 488 797 l 488 885 q 526 876 508 876 q 560 888 547 876 q 572 919 572 900 q 522 953 572 953 q 444 920 474 953 q 415 835 415 888 q 485 679 415 746 l 669 569 l 669 482 q 593 488 642 488 q 469 460 526 488 q 379 384 413 432 q 346 282 346 336 q 376 208 346 238 q 451 178 406 178 q 750 350 604 178 l 940 236 l 940 149 z "},"Ⅰ":{"ha":704,"x_min":76,"x_max":628,"o":"m 582 -1 l 99 -1 l 99 76 l 233 182 l 233 671 l 76 714 l 122 804 l 604 804 l 604 726 l 469 621 l 469 133 l 628 89 l 582 -1 z "},"Ⅱ":{"ha":1408,"x_min":76,"x_max":1332,"o":"m 582 -1 l 99 -1 l 99 76 l 233 182 l 233 671 l 76 714 l 122 804 l 604 804 l 604 726 l 469 621 l 469 133 l 628 89 l 582 -1 m 1286 -1 l 803 -1 l 803 76 l 938 182 l 938 671 l 781 714 l 826 804 l 1308 804 l 1308 726 l 1174 621 l 1174 133 l 1332 89 l 1286 -1 z "},"Ⅲ":{"ha":2113,"x_min":76,"x_max":2036,"o":"m 582 -1 l 99 -1 l 99 76 l 233 182 l 233 671 l 76 714 l 122 804 l 604 804 l 604 726 l 469 621 l 469 133 l 628 89 l 582 -1 m 1286 -1 l 803 -1 l 803 76 l 938 182 l 938 671 l 781 714 l 826 804 l 1308 804 l 1308 726 l 1174 621 l 1174 133 l 1332 89 l 1286 -1 m 1990 -1 l 1507 -1 l 1507 76 l 1642 182 l 1642 671 l 1485 714 l 1531 804 l 2013 804 l 2013 726 l 1878 621 l 1878 133 l 2036 89 l 1990 -1 z "},"Ⅳ":{"ha":1864,"x_min":76,"x_max":1864,"o":"m 582 -1 l 99 -1 l 99 76 l 233 182 l 233 671 l 76 714 l 122 804 l 604 804 l 604 726 l 469 621 l 469 133 l 628 89 l 582 -1 m 1703 606 l 1411 44 l 1171 -26 l 842 642 l 696 714 l 740 804 l 1253 804 l 1253 726 l 1108 639 l 1346 165 l 1582 615 l 1375 714 l 1421 804 l 1864 804 l 1864 726 l 1703 606 z "},"Ⅴ":{"ha":1160,"x_min":-8,"x_max":1160,"o":"m 999 606 l 707 44 l 467 -26 l 138 642 l -8 714 l 36 804 l 549 804 l 549 726 l 404 639 l 642 165 l 878 615 l 671 714 l 717 804 l 1160 804 l 1160 726 l 999 606 z "},"Ⅵ":{"ha":1864,"x_min":-8,"x_max":1788,"o":"m 999 606 l 707 44 l 467 -26 l 138 642 l -8 714 l 36 804 l 549 804 l 549 726 l 404 639 l 642 165 l 878 615 l 671 714 l 717 804 l 1160 804 l 1160 726 l 999 606 m 1742 -1 l 1258 -1 l 1258 76 l 1393 182 l 1393 671 l 1236 714 l 1282 804 l 1764 804 l 1764 726 l 1629 621 l 1629 133 l 1788 89 l 1742 -1 z "},"Ⅶ":{"ha":2568,"x_min":-8,"x_max":2492,"o":"m 999 606 l 707 44 l 467 -26 l 138 642 l -8 714 l 36 804 l 549 804 l 549 726 l 404 639 l 642 165 l 878 615 l 671 714 l 717 804 l 1160 804 l 1160 726 l 999 606 m 1742 -1 l 1258 -1 l 1258 76 l 1393 182 l 1393 671 l 1236 714 l 1282 804 l 1764 804 l 1764 726 l 1629 621 l 1629 133 l 1788 89 l 1742 -1 m 2446 -1 l 1963 -1 l 1963 76 l 2097 182 l 2097 671 l 1940 714 l 1986 804 l 2468 804 l 2468 726 l 2333 621 l 2333 133 l 2492 89 l 2446 -1 z "},"Ⅷ":{"ha":3272,"x_min":-8,"x_max":3196,"o":"m 999 606 l 707 44 l 467 -26 l 138 642 l -8 714 l 36 804 l 549 804 l 549 726 l 404 639 l 642 165 l 878 615 l 671 714 l 717 804 l 1160 804 l 1160 726 l 999 606 m 1742 -1 l 1258 -1 l 1258 76 l 1393 182 l 1393 671 l 1236 714 l 1282 804 l 1764 804 l 1764 726 l 1629 621 l 1629 133 l 1788 89 l 1742 -1 m 2446 -1 l 1963 -1 l 1963 76 l 2097 182 l 2097 671 l 1940 714 l 1986 804 l 2468 804 l 2468 726 l 2333 621 l 2333 133 l 2492 89 l 2446 -1 m 3150 -1 l 2667 -1 l 2667 76 l 2801 182 l 2801 671 l 2644 714 l 2690 804 l 3172 804 l 3172 726 l 3038 621 l 3038 133 l 3196 89 l 3150 -1 z "},"Ⅸ":{"ha":1882,"x_min":76,"x_max":1867,"o":"m 582 -1 l 99 -1 l 99 76 l 233 182 l 233 671 l 76 714 l 122 804 l 604 804 l 604 726 l 469 621 l 469 133 l 628 89 l 582 -1 m 1821 -3 l 1343 -3 l 1343 75 l 1429 133 l 1243 301 l 1064 168 l 1221 89 l 1175 -1 l 732 -1 l 732 76 l 788 104 l 1151 376 l 906 603 l 718 713 l 764 803 l 1242 803 l 1242 725 l 1151 671 l 1339 506 l 1497 631 l 1339 713 l 1383 803 l 1826 803 l 1826 725 l 1767 694 l 1432 431 l 1713 169 l 1867 88 l 1821 -3 z "},"Ⅹ":{"ha":1178,"x_min":14,"x_max":1163,"o":"m 1117 -3 l 639 -3 l 639 75 l 725 133 l 539 301 l 360 168 l 517 89 l 471 -1 l 28 -1 l 28 76 l 83 104 l 447 376 l 201 603 l 14 713 l 60 803 l 538 803 l 538 725 l 447 671 l 635 506 l 793 631 l 635 713 l 679 803 l 1122 803 l 1122 725 l 1063 694 l 728 431 l 1008 169 l 1163 88 l 1117 -3 z "},"Ⅺ":{"ha":1864,"x_min":-8,"x_max":1788,"o":"m 999 606 l 707 44 l 467 -26 l 138 642 l -8 714 l 36 804 l 549 804 l 549 726 l 404 639 l 642 165 l 878 615 l 671 714 l 717 804 l 1160 804 l 1160 726 l 999 606 m 1742 -1 l 1258 -1 l 1258 76 l 1393 182 l 1393 671 l 1236 714 l 1282 804 l 1764 804 l 1764 726 l 1629 621 l 1629 133 l 1788 89 l 1742 -1 z "},"Ⅻ":{"ha":2586,"x_min":14,"x_max":2510,"o":"m 1117 -3 l 639 -3 l 639 75 l 725 133 l 539 301 l 360 168 l 517 89 l 471 -1 l 28 -1 l 28 76 l 83 104 l 447 376 l 201 603 l 14 713 l 60 803 l 538 803 l 538 725 l 447 671 l 635 506 l 793 631 l 635 713 l 679 803 l 1122 803 l 1122 725 l 1063 694 l 728 431 l 1008 169 l 1163 88 l 1117 -3 m 1760 -1 l 1276 -1 l 1276 76 l 1411 182 l 1411 671 l 1254 714 l 1300 804 l 1782 804 l 1782 726 l 1647 621 l 1647 133 l 1806 89 l 1760 -1 m 2464 -1 l 1981 -1 l 1981 76 l 2115 182 l 2115 671 l 1958 714 l 2004 804 l 2486 804 l 2486 726 l 2351 621 l 2351 133 l 2510 89 l 2464 -1 z "},"Ⅼ":{"ha":1039,"x_min":43,"x_max":985,"o":"m 885 0 l 67 0 l 67 78 l 197 181 l 197 674 l 43 714 l 89 804 l 581 804 l 581 726 l 449 624 l 449 106 l 694 106 l 908 417 l 985 385 l 985 -25 l 885 0 z "}}}
